<svg xmlns="http://www.w3.org/2000/svg" xml:space="preserve" width="160" height="160" style="shape-rendering:geometricPrecision;text-rendering:geometricPrecision;image-rendering:optimizeQuality;fill-rule:evenodd;clip-rule:evenodd" viewBox="0 0 901472 901472"><defs><style>.str0,.str1{stroke:#040507;stroke-width:1803.66}.str0{stroke:#0d0303}.fil0{fill:#fff}.fil1,.fil3{fill:#040507;fill-rule:nonzero}.fil3{fill:#bcbaba}</style></defs><g id="Слой_x0020_1"><g id="_2187875008752"><path class="fil0" d="M0 0h901472v901472H0z"/><path class="fil0 str0" d="M635706 265736h123314v123319H635706zM759020 265736h123314v123319H759020zM389079 265736h123314v123319H389079z"/><path class="fil0 str0" d="M512393 265736h123314v123319H512393zM635706 389056h123314v123319H635706zM759020 389056h123314v123319H759020zM389079 389056h123314v123319H389079z"/><path class="fil0 str0" d="M512393 389056h123314v123319H512393zM635706 512376h123314v123319H635706zM759020 512376h123314v123319H759020zM389079 512376h123314v123319H389079z"/><path class="fil0 str0" d="M512393 512376h123314v123319H512393zM635706 635695h123314v123319H635706zM759020 635695h123314v123319H759020zM389079 635695h123314v123319H389079z"/><path class="fil0 str0" d="M512393 635695h123314v123319H512393zM635706 759015h123314v123319H635706zM759020 759015h123314v123319H759020zM389079 759015h123314v123319H389079z"/><path class="fil0 str0" d="M512393 759015h123314v123319H512393z"/><path class="fil0 str1" d="M19137 19137h863197v168009H19137z"/><path class="fil1" d="M346536 114635h-10666c-75 1502-226 3005-827 4132-600 1277-1652 2103-3605 2103-1955 0-3007-902-3607-2103-1278-2479-1427-9166-1427-15626 0-6461 149-13148 1427-15626 600-1201 1652-2104 3607-2104 1953 0 3005 751 3605 2029 601 1126 752 2630 827 4131h10666c-224-5108-2027-9314-4806-11944-2705-2553-5860-3831-10292-3831-5786 0-9316 2404-11720 5409-3757 4583-3983 11644-3983 21936 0 10291 226 17353 3983 21935 2404 3005 5934 5409 11720 5409 4432 0 7587-1278 10292-3831 2779-2630 4582-6912 4806-12019z"/><path id="1" class="fil1" d="M376287 129884v-9616h-13972v-12545h12019v-9617h-12019V86013h13972v-9616h-24640v53487z"/><path id="2" class="fil1" d="M411747 129884V76397h-10667v21486h-8865V76397h-10668v53487h10668v-22387h8865v22387z"/><path id="3" class="fil1" d="M444802 86013v-9616h-28696v9616h9014v43871h10666V86013z"/><path id="4" class="fil1" d="M478009 129884V76397h-15251c-11644 0-14874 6086-14874 16301 0 5711 902 10817 6086 14048l-7813 23138h11118l6535-20809h3530v20809h10669zm-10669-30425h-4505c-4057 0-4283-3680-4283-6761 0-3080 226-6685 4283-6685h4505v13446z"/><path id="5" class="fil1" d="M515121 112832c0-10443-3456-17053-15025-17053h-4432v-9766h16827v-9616h-27495v53487h15100c11569 0 15025-6609 15025-17052zm-10668 0c0 3379-226 7436-4283 7436h-4506v-14874h4506c4057 0 4283 4056 4283 7438z"/><path id="6" class="fil1" d="M550430 93449c0-10440-3456-17052-15025-17052h-15101v53487h10669v-19382h4432c11569 0 15025-6610 15025-17053zm-10669 0c0 3382-225 7439-4282 7439h-4506V86013h4506c4057 0 4282 4057 4282 7436z"/><path id="7" class="fil1" d="M585739 112832c0-10443-3456-17053-15026-17053h-4431V76397h-10669v53487h15100c11570 0 15026-6609 15026-17052zm-10669 0c0 3379-149 7436-4657 7436h-4131v-14874h4131c4508 0 4657 4056 4657 7438z"/><path class="fil0 str0" d="M265765 265736h123314v123319H265765zM19137 265736h123314v123319H19137zM142451 265736h123314v123319H142451z"/><path class="fil1" d="M90858 306809h-8420c-837 6869-5854 8541-12245 8720v7466h9975v25443h10690v-41629z"/><path class="fil0 str0" d="M265765 389056h123314v123319H265765zM19137 389056h123314v123319H19137zM142451 389056h123314v123319H142451zM265765 512376h123314v123319H265765zM19137 512376h123314v123319H19137zM142451 512376h123314v123319H142451zM265765 635695h123314v123319H265765zM19137 635695h123314v123319H19137zM142451 635695h123314v123319H142451zM265765 759015h123314v123319H265765zM19137 759015h123314v123319H19137zM142451 759015h123314v123319H142451z"/><path class="fil0 str1" d="M635706 187146h123314v78591H635706z"/><path class="fil1" d="M677114 230636h-2187c-19 509-98 1016-332 1369-196 311-509 507-1035 507-528 0-841-215-1035-528-430-663-490-2070-490-4608 0-2541 60-3946 490-4611 194-313 507-526 1035-526 526 0 839 194 1035 507 234 332 313 839 332 1348h2187c-38-1231-411-2285-1114-2930-624-586-1386-899-2440-899-1291 0-2130 509-2696 1193-918 1092-1016 2617-1016 5918 0 3300 98 4823 1016 5917 566 684 1405 1191 2696 1191 1054 0 1776-292 2402-878 703-645 1114-1718 1152-2970z"/><path id="1" class="fil1" d="M685210 220423h-2383l-1661 6424-1678-6424h-2383l3048 9393-313 1133c-313 1094-744 1427-1953 1427v1952c2225 0 3026-411 3652-2363l3671-11542z"/><path id="2" class="fil1" d="M692897 230091c0-2911-1056-4219-3575-4219h-1307v-3496h4276v-1953h-6465v13905h3496c2519 0 3575-1329 3575-4237zm-2189 0c0 1405-291 2265-1465 2265h-1228v-4512h1228c1174 0 1465 839 1465 2247z"/><path id="3" class="fil1" d="M701266 230091c0-2911-1056-4219-3575-4219h-1308v-3496h4276v-1953h-6465v13905h3497c2519 0 3575-1329 3575-4237zm-2189 0c0 1405-292 2265-1465 2265h-1229v-4512h1229c1173 0 1465 839 1465 2247z"/><path id="4" class="fil1" d="M709516 227376c0-3301-77-4826-1016-5918-566-684-1405-1193-2694-1193-1290 0-2129 509-2696 1193-917 1111-1015 2617-1015 5918 0 3300 98 4804 1015 5917 567 684 1406 1191 2696 1191 1289 0 2128-507 2694-1191 939-1094 1016-2617 1016-5917zm-2187 0c0 2538-58 3945-469 4608-196 313-528 528-1054 528-528 0-841-215-1035-528-411-663-489-2070-489-4608 0-2541 78-3946 489-4611 194-313 507-526 1035-526 526 0 858 213 1054 526 411 665 469 2070 469 4611z"/><path id="5" class="fil1" d="M716754 222395v-1972h-6855v1972h2323v11933h2187v-11933z"/><path id="6" class="fil1" d="m724771 234328-3377-13905h-2130l-3417 13905h2304l547-2753h3222l566 2753h2285zm-3260-4727h-2383l1191-5820 1192 5820z"/><path class="fil0 str1" d="M759020 187146h123314v78591H759020z"/><path class="fil1" d="M784158 230344c0-1288-158-2129-801-2794-196-194-468-370-762-507 294-117 528-294 722-487 645-665 800-1427 800-2424 0-1503-234-2206-877-2851-566-586-1408-858-2696-858h-3477v13905h3458c1307 0 2149-294 2734-879 665-684 899-1465 899-3105zm-2189-155c0 1620-488 2167-1659 2167h-1054v-4337h1054c1171 0 1659 626 1659 2170zm-39-5920c0 1328-449 1895-1582 1895h-1092v-3769h1092c1133 0 1582 507 1582 1874z"/><path id="1" class="fil1" d="M792701 227376c0-3301-77-4826-1016-5918-566-684-1405-1193-2693-1193-1291 0-2130 509-2696 1193-918 1111-1016 2617-1016 5918 0 3300 98 4804 1016 5917 566 684 1405 1191 2696 1191 1288 0 2127-507 2693-1191 939-1094 1016-2617 1016-5917zm-2187 0c0 2538-57 3945-468 4608-196 313-528 528-1054 528-528 0-842-215-1035-528-411-663-490-2070-490-4608 0-2541 79-3946 490-4611 193-313 507-526 1035-526 526 0 858 213 1054 526 411 665 468 2070 468 4611z"/><path id="2" class="fil1" d="M800934 230636h-2187c-19 509-98 1016-333 1369-195 311-508 507-1034 507-529 0-842-215-1035-528-430-663-490-2070-490-4608 0-2541 60-3946 490-4611 193-313 506-526 1035-526 526 0 839 194 1034 507 235 332 314 839 333 1348h2187c-39-1231-411-2285-1114-2930-624-586-1386-899-2440-899-1291 0-2130 509-2696 1193-918 1092-1016 2617-1016 5918 0 3300 98 4823 1016 5917 566 684 1405 1191 2696 1191 1054 0 1776-292 2402-878 702-645 1113-1718 1152-2970z"/><path id="3" class="fil1" d="m810124 234328-3554-7344 3184-6561h-2306l-3124 6659 3379 7246h2421zm-5841 0v-13905h-2187v13905h2187z"/><path id="4" class="fil1" d="M817850 224660c0-2910-1056-4237-3575-4237h-3497v13905h2189v-5449h1308c2519 0 3575-1310 3575-4219zm-2189 0c0 1406-292 2247-1465 2247h-1229v-4512h1229c1173 0 1465 858 1465 2265z"/><path id="5" class="fil1" d="M824833 234328v-1972h-3652v-4043h3143v-1972h-3143v-3946h3652v-1972h-5842v13905z"/><path id="6" class="fil1" d="M832986 230636h-2187c-19 509-98 1016-332 1369-196 311-509 507-1035 507-528 0-841-215-1035-528-430-663-489-2070-489-4608 0-2541 59-3946 489-4611 194-313 507-526 1035-526 526 0 839 194 1035 507 234 332 313 839 332 1348h2187c-38-1231-411-2285-1113-2930-624-586-1387-899-2441-899-1290 0-2129 509-2696 1193-917 1092-1015 2617-1015 5918 0 3300 98 4823 1015 5917 567 684 1406 1191 2696 1191 1054 0 1776-292 2402-878 703-645 1114-1718 1152-2970z"/><path id="7" class="fil1" d="M840009 234328v-1972h-3652v-4043h3143v-1972h-3143v-3946h3652v-1972h-5841v13905z"/><path id="8" class="fil1" d="M848359 234328v-13905h-2189v5858h-2713v-5858h-2189v13905h2189v-6073h2713v6073z"/><path id="9" class="fil1" d="M857139 230091c0-2911-1057-4219-3576-4219h-1307v-5449h-2189v13905h3496c2519 0 3576-1329 3576-4237zm-2189 0c0 1405-292 2265-1465 2265h-1229v-4512h1229c1173 0 1465 839 1465 2247z"/><path id="10" class="fil1" d="M864219 234328v-1972h-3652v-4043h3143v-1972h-3143v-3946h3652v-1972h-5841v13905z"/><path class="str1" style="fill:#fa3737" d="M389079 187146h123314v78591H389079z"/><path class="fil1" d="M431442 234328v-13905h-2189v7146c-449 60-779 98-1229 98-939 0-1388-351-1388-1639v-5605h-2187v5820c0 2459 958 3379 3222 3379 509 0 1037-21 1603-98v4804h2168z"/><path id="1" class="fil1" d="M438991 234328v-1972h-3652v-4043h3143v-1972h-3143v-3946h3652v-1972h-5841v13905z"/><path id="2" class="fil1" d="M446344 222395v-1972h-6855v1972h2323v11933h2187v-11933z"/><path id="3" class="fil1" d="M454383 230344c0-1288-158-2129-801-2794-196-194-468-370-762-507 294-117 528-294 722-487 645-665 800-1427 800-2424 0-1503-234-2206-877-2851-567-586-1408-858-2696-858h-3477v13905h3458c1307 0 2148-294 2734-879 664-684 899-1465 899-3105zm-2189-155c0 1620-488 2167-1659 2167h-1054v-4337h1054c1171 0 1659 626 1659 2170zm-39-5920c0 1328-449 1895-1582 1895h-1092v-3769h1092c1133 0 1582 507 1582 1874z"/><path id="4" class="fil1" d="M461717 234328v-1972h-3652v-4043h3143v-1972h-3143v-3946h3652v-1972h-5842v13905z"/><path id="5" class="fil1" d="M470047 224660c0-2910-1056-4237-3575-4237h-3497v13905h2189v-5449h1308c2519 0 3575-1310 3575-4219zm-2189 0c0 1406-292 2247-1465 2247h-1229v-4512h1229c1173 0 1465 858 1465 2265z"/><path id="6" class="fil1" d="M476932 222395v-1972h-5744v13905h2190v-11933z"/><path class="fil0 str1" d="M512393 187146h123314v78591H512393z"/><path class="fil1" d="M551373 234328v-13905h-7110v13905h2187v-11933h2734v11933z"/><path id="1" class="fil1" d="m554821 234328 1816-5702h1229v5702h2189v-13905h-3516c-2540 0-3556 1229-3556 4101 0 1719 354 2950 1623 3633l-2070 6171h2285zm351-9804c0-1152 175-2129 1348-2129h1346v4257h-1346c-1173 0-1348-976-1348-2128z"/><path id="2" class="fil1" d="M567858 222395v-1972h-6855v1972h2323v11933h2187v-11933z"/><path id="3" class="fil1" d="M575896 234328v-13905h-2189v5858h-2713v-5858h-2189v13905h2189v-6073h2713v6073z"/><path id="4" class="fil1" d="m579538 234328 3126-8515v8515h2187v-13905h-1953l-3105 8516v-8516h-2189v13905z"/><path id="5" class="fil1" d="M594802 237122v-4766h-1172v-11933h-2189v11933h-2693v-11933h-2190v13905h6174v2794z"/><path id="6" class="fil1" d="m603677 234328-3377-13905h-2130l-3417 13905h2304l547-2753h3222l566 2753h2285zm-3260-4727h-2383l1191-5820 1192 5820z"/><path class="fil0 str1" d="M265765 187146h123314v78591H265765z"/><path class="fil1" d="M313883 230636h-2187c-19 509-98 1016-332 1369-196 311-509 507-1035 507-528 0-841-215-1035-528-430-663-490-2070-490-4608 0-2541 60-3946 490-4611 194-313 507-526 1035-526 526 0 839 194 1035 507 234 332 313 839 332 1348h2187c-38-1231-411-2285-1114-2930-624-586-1386-899-2440-899-1291 0-2130 509-2696 1193-918 1092-1016 2617-1016 5918 0 3300 98 4823 1016 5917 566 684 1405 1191 2696 1191 1054 0 1776-292 2402-878 703-645 1114-1718 1152-2970z"/><path id="1" class="fil1" d="M322137 224660c0-2910-1057-4237-3576-4237h-3496v13905h2189v-5449h1307c2519 0 3576-1310 3576-4219zm-2189 0c0 1406-292 2247-1466 2247h-1228v-4512h1228c1174 0 1466 858 1466 2265z"/><path id="2" class="fil1" d="M329119 234328v-1972h-3652v-4043h3143v-1972h-3143v-3946h3652v-1972h-5841v13905z"/><path id="3" class="fil1" d="M339226 236965v-4609h-1152v-11933h-6563v5194c0 2755-428 4902-1152 6739h-899v4609h2070v-2637h5626v2637h2070zm-3339-4609h-3301c643-1739 1016-3692 1016-6192v-3788h2285v9980z"/><path id="4" class="fil1" d="m348122 234328-3377-13905h-2129l-3418 13905h2304l547-2753h3222l567 2753h2284zm-3260-4727h-2383l1191-5820 1192 5820z"/><path class="fil0 str1" d="M19137 187146h123314v78591H19137z"/><path class="fil1" d="M41056 234328v-13905h-7110v13905h2187v-11933h2734v11933z"/><path id="1" class="fil1" d="M49815 227376c0-3301-77-4826-1016-5918-567-684-1406-1193-2694-1193-1290 0-2129 509-2696 1193-918 1111-1016 2617-1016 5918 0 3300 98 4804 1016 5917 567 684 1406 1191 2696 1191 1288 0 2127-507 2694-1191 939-1094 1016-2617 1016-5917zm-2187 0c0 2538-58 3945-469 4608-196 313-528 528-1054 528-528 0-841-215-1035-528-411-663-490-2070-490-4608 0-2541 79-3946 490-4611 194-313 507-526 1035-526 526 0 858 213 1054 526 411 665 469 2070 469 4611z"/><path id="2" class="fil1" d="M58243 234328v-13905h-2189v5858h-2713v-5858h-2189v13905h2189v-6073h2713v6073z"/><path id="3" class="fil1" d="M65792 234328v-1972h-3652v-4043h3143v-1972h-3143v-3946h3652v-1972h-5841v13905z"/><path id="4" class="fil1" d="M75898 236965v-4609h-1152v-11933h-6563v5194c0 2755-428 4902-1152 6739h-898v4609h2069v-2637h5626v2637h2070zm-3339-4609h-3300c643-1739 1015-3692 1015-6192v-3788h2285v9980z"/><path id="5" class="fil1" d="M82785 234328v-1972h-3652v-4043h3143v-1972h-3143v-3946h3652v-1972h-5841v13905z"/><path id="6" class="fil1" d="M91701 234328v-13905h-6505v7713c0 3946-878 4220-1874 4220h-196v1972h645c1953 0 3535-585 3535-5937v-5996h2206v11933h2189z"/><path id="7" class="fil1" d="M100481 230091c0-2911-1056-4219-3576-4219h-1307v-5449h-2189v13905h3496c2520 0 3576-1329 3576-4237zm-2189 0c0 1405-292 2265-1465 2265h-1229v-4512h1229c1173 0 1465 839 1465 2247z"/><path id="8" class="fil1" d="M108811 234328v-13905h-2189v5858h-2713v-5858h-2189v13905h2189v-6073h2713v6073z"/><path id="9" class="fil1" d="m112453 234328 3126-8515v8515h2187v-13905h-1953l-3105 8516v-8516h-2189v13905z"/><path id="10" class="fil1" d="m127482 234328-3554-7344 3184-6561h-2306l-3124 6659 3379 7246h2421zm-5841 0v-13905h-2187v13905h2187z"/><path class="fil0 str1" d="M142451 187146h123314v78591H142451z"/><path class="fil1" d="M182320 230344c0-1288-157-2129-800-2794-196-194-469-370-763-507 294-117 528-294 722-487 645-665 801-1427 801-2424 0-1503-234-2206-877-2851-567-586-1408-858-2696-858h-3478v13905h3459c1307 0 2148-294 2734-879 664-684 898-1465 898-3105zm-2189-155c0 1620-487 2167-1659 2167h-1054v-4337h1054c1172 0 1659 626 1659 2170zm-38-5920c0 1328-449 1895-1582 1895h-1093v-3769h1093c1133 0 1582 507 1582 1874z"/><path id="1" class="fil1" d="M189712 222395v-1972h-6855v1972h2323v11933h2187v-11933z"/><path id="2" class="fil1" d="M197514 227376c0-3301-77-4826-1016-5918-566-684-1405-1193-2693-1193-1291 0-2130 509-2696 1193-918 1111-1016 2617-1016 5918 0 3300 98 4804 1016 5917 566 684 1405 1191 2696 1191 1288 0 2127-507 2693-1191 939-1094 1016-2617 1016-5917zm-2187 0c0 2538-57 3945-468 4608-196 313-528 528-1054 528-529 0-842-215-1035-528-411-663-490-2070-490-4608 0-2541 79-3946 490-4611 193-313 506-526 1035-526 526 0 858 213 1054 526 411 665 468 2070 468 4611z"/><path id="3" class="fil1" d="M205923 224660c0-2910-1056-4237-3575-4237h-3497v13905h2189v-5449h1308c2519 0 3575-1310 3575-4219zm-2189 0c0 1406-291 2247-1465 2247h-1229v-4512h1229c1174 0 1465 858 1465 2265z"/><path id="4" class="fil1" d="M214156 234328v-13905h-2189v5858h-2713v-5858h-2189v13905h2189v-6073h2713v6073z"/><path id="5" class="fil1" d="m217797 234328 3126-8515v8515h2187v-13905h-1952l-3105 8516v-8516h-2189v13905z"/><path id="6" class="fil1" d="m232827 234328-3554-7344 3183-6561h-2306l-3124 6659 3380 7246h2421zm-5841 0v-13905h-2187v13905h2187z"/><path class="fil1" d="M321747 321212c119-4001 2270-6092 6271-6092 3522 0 5852 1793 5852 4540 0 2151-1493 3703-4001 4061-956 119-2509 238-3644 238-656 0-894 0-1612-59v6810c2211-60 2449-60 3045-60 4242 0 6751 1970 6751 5256 0 3343-2568 5375-6691 5375-5256 0-6808-2628-6987-7168h-9676v1075c0 10153 7826 14634 16963 14634 8420 0 16902-4182 16902-13737 0-4779-2688-8124-7287-9319 3584-894 5854-3942 5854-8002 0-7106-6033-11646-15469-11646-9497 0-15888 5374-15888 14094h9617zM221309 340324h-19532c2449-2448 4242-3283 8065-5732 5851-3703 10988-6691 10988-14336 0-8062-5971-13138-15350-13138-11467 0-16543 6807-16543 17080h9616c0-4121 1195-8360 6450-8360 3465 0 5614 2029 5614 5196 0 3464-2926 5195-5494 6927-9855 6571-17081 9557-17081 20964v120h33267v-8721zM468294 331306h-5434v-23890h-9736l-18513 22934v9378h18096v9317h10153v-9317h5434v-8422zm-15289 60h-10931l10931-13559v13559zM588980 307654h-26280l-4061 23294h9257c1554-2210 3703-3166 6390-3166 4183 0 6810 2687 6810 6929 0 4121-2747 6748-6988 6748-3942 0-6570-1971-6868-5195h-9974c598 9197 7048 13377 16603 13377 10692 0 17381-5852 17381-15290 0-8300-5256-13556-13618-13556-3224 0-5196 656-8422 2747l1254-7347h18516v-8541zM714324 318406c-1314-7228-6631-11288-14753-11288-11467 0-17977 8181-17977 22457 0 10809 4838 20128 16783 20128 9137 0 16484-5377 16484-15051 0-8244-5735-13976-13857-13976-4180 0-6927 1254-9614 4359 656-4719 1970-10392 7883-10392 2926 0 4538 1075 5494 3763h9557zm-15828 9676c3941 0 6688 2807 6688 6748 0 3942-2747 6808-6569 6808-3763 0-6450-2866-6450-6808 0-3882 2687-6748 6331-6748zM836445 307654h-30281v9080h19948c-8302 9615-13200 20007-13856 32311h10928c358-13020 4302-23593 13261-33088v-8303zM72943 448944c-4719 1374-8005 4419-8005 9974 0 7884 6510 12722 17202 12722 10511 0 16961-4958 16961-12903 0-5136-2687-8419-7943-9793 4121-1254 6271-4242 6271-8660 0-8423-8062-11289-15230-11289-7048 0-15528 3165-15528 11527 0 4480 2449 7049 6272 8422zm9018-12721c4120 0 6510 1791 6510 4838 0 3105-2449 5074-6331 5074s-6450-1969-6450-4955c0-2988 2508-4957 6271-4957zm-60 16243c4419 0 7166 2270 7166 5854s-2628 5794-6987 5794c-4301 0-7108-2270-7108-5854 0-3524 2747-5794 6929-5794zM316436 429900h-8420c-837 6870-5854 8542-12244 8720v7466h9974v25443h10690v-41629z"/><path id="1" class="fil1" d="M342646 429602c-12483 0-17141 10332-17141 21382 0 13198 6210 21141 16544 21141 10750 0 17021-7764 17021-21141 0-13320-6212-21382-16424-21382zm-299 8182c6272 0 6928 7406 6928 12783 0 4836-239 13437-6928 13437-6748 0-7048-8003-7048-12960 0-9078 2151-13260 7048-13260z"/><path class="fil1" d="M187744 460899c956 7106 6629 11348 14992 11348 11347 0 17798-8124 17738-22458 0-12721-6331-20187-17083-20187-9495 0-16184 6271-16184 15111 0 8360 5495 13975 13736 13975 4301 0 6750-1135 9616-4420-477 4540-2031 10513-7645 10513-2806 0-4838-1135-5615-3882h-9555zm15647-23115c3763 0 6570 2868 6570 6750s-2807 6689-6570 6689c-3762 0-6450-2807-6450-6749 0-3882 2688-6690 6450-6690zM444082 429900h-8419c-837 6870-5854 8542-12245 8720v7466h9975v25443h10689v-41629z"/><path id="1" class="fil1" d="M478056 429900h-8420c-837 6870-5854 8542-12244 8720v7466h9974v25443h10690v-41629z"/><path class="fil1" d="M563213 429900h-8420c-837 6870-5854 8542-12244 8720v7466h9974v25443h10690v-41629z"/><path id="1" class="fil1" d="M605549 462809h-19531c2448-2449 4241-3284 8064-5733 5852-3703 10988-6690 10988-14335 0-8062-5971-13139-15349-13139-11467 0-16544 6808-16544 17081h9617c0-4121 1194-8361 6450-8361 3464 0 5613 2030 5613 5196 0 3465-2926 5196-5494 6927-9855 6572-17080 9557-17080 20965v119h33266v-8720z"/><path class="fil1" d="M686377 429900h-8420c-837 6870-5854 8542-12244 8720v7466h9974v25443h10690v-41629z"/><path id="1" class="fil1" d="M705838 443697c119-4001 2270-6092 6271-6092 3523 0 5852 1793 5852 4540 0 2150-1493 3703-4001 4061-956 119-2509 238-3644 238-655 0-894 0-1612-60v6810c2211-59 2449-59 3046-59 4241 0 6750 1970 6750 5255 0 3344-2568 5375-6691 5375-5255 0-6808-2628-6987-7168h-9676v1076c0 10153 7826 14633 16963 14633 8420 0 16902-4182 16902-13737 0-4778-2687-8124-7287-9318 3584-895 5854-3942 5854-8003 0-7106-6033-11646-15469-11646-9497 0-15887 5375-15887 14095h9616z"/><path class="fil1" d="M809662 429900h-8420c-836 6870-5853 8542-12244 8720v7466h9974v25443h10690v-41629z"/><path id="1" class="fil1" d="M852356 453791h-5434v-23891h-9736l-18514 22935v9378h18096v9316h10154v-9316h5434v-8422zm-15290 59h-10930l10930-13558v13558z"/><path class="fil1" d="M69957 552615h-8420c-837 6869-5854 8541-12244 8720v7466h9974v25443h10690v-41629z"/><path id="1" class="fil1" d="M110023 552853H83743l-4061 23295h9257c1555-2211 3703-3167 6391-3167 4182 0 6810 2687 6810 6929 0 4121-2747 6749-6989 6749-3942 0-6570-1972-6868-5196h-9974c598 9197 7048 13377 16603 13377 10692 0 17381-5852 17381-15290 0-8300-5256-13556-13618-13556-3224 0-5196 656-8422 2747l1254-7346h18516v-8542z"/><path class="fil1" d="M317303 553222h-8420c-837 6869-5854 8541-12245 8720v7466h9975v25443h10690v-41629z"/><path id="1" class="fil1" d="M358206 553460h-30281v9080h19948c-8302 9615-13200 20007-13856 32311h10928c358-13020 4302-23593 13261-33088v-8303z"/><path class="fil1" d="M193123 553222h-8420c-837 6869-5854 8541-12244 8720v7466h9974v25443h10690v-41629z"/><path id="1" class="fil1" d="M235220 564212c-1313-7228-6631-11288-14752-11288-11468 0-17977 8181-17977 22457 0 10809 4838 20128 16782 20128 9137 0 16484-5377 16484-15051 0-8244-5735-13976-13856-13976-4180 0-6927 1254-9615 4359 656-4719 1970-10392 7883-10392 2926 0 4538 1076 5494 3763h9557zm-15828 9676c3942 0 6689 2807 6689 6748 0 3942-2747 6808-6570 6808-3762 0-6450-2866-6450-6808 0-3882 2688-6748 6331-6748z"/><path class="fil1" d="M439602 553222h-8420c-837 6869-5854 8541-12244 8720v7466h9974v25443h10690v-41629z"/><path id="1" class="fil1" d="M456376 572872c-4719 1374-8005 4419-8005 9975 0 7883 6510 12721 17202 12721 10511 0 16961-4957 16961-12902 0-5136-2687-8420-7943-9794 4121-1254 6272-4241 6272-8660 0-8422-8063-11288-15230-11288-7049 0-15528 3164-15528 11526 0 4481 2448 7049 6271 8422zm9018-12721c4121 0 6510 1791 6510 4838 0 3105-2449 5075-6331 5075s-6450-1970-6450-4956c0-2987 2508-4957 6271-4957zm-59 16244c4418 0 7165 2270 7165 5853 0 3584-2628 5795-6987 5795-4301 0-7108-2270-7108-5854 0-3524 2747-5794 6930-5794z"/><path class="fil1" d="M563243 553222h-8420c-837 6869-5854 8541-12244 8720v7466h9974v25443h10690v-41629z"/><path id="1" class="fil1" d="M572730 584220c956 7106 6629 11348 14991 11348 11348 0 17798-8124 17739-22457 0-12721-6331-20187-17083-20187-9495 0-16184 6271-16184 15110 0 8361 5494 13976 13735 13976 4302 0 6751-1135 9617-4421-477 4540-2032 10513-7645 10513-2807 0-4838-1135-5615-3882h-9555zm15647-23115c3763 0 6569 2868 6569 6750s-2806 6689-6569 6689-6450-2807-6450-6748c0-3882 2687-6691 6450-6691z"/><path class="fil1" d="M696860 586130h-19531c2449-2448 4242-3283 8064-5732 5852-3703 10988-6691 10988-14336 0-8062-5971-13138-15349-13138-11467 0-16544 6807-16544 17080h9617c0-4120 1195-8360 6450-8360 3465 0 5613 2029 5613 5196 0 3464-2926 5196-5494 6927-9855 6571-17080 9557-17080 20964v120h33266v-8721z"/><path id="1" class="fil1" d="M714707 552924c-12482 0-17140 10332-17140 21382 0 13198 6210 21141 16544 21141 10750 0 17021-7764 17021-21141 0-13320-6212-21382-16425-21382zm-298 8181c6272 0 6927 7406 6927 12783 0 4836-238 13437-6927 13437-6748 0-7048-8002-7048-12960 0-9078 2151-13260 7048-13260z"/><path class="fil1" d="M824505 586130h-19532c2449-2448 4242-3283 8065-5732 5851-3703 10988-6691 10988-14336 0-8062-5971-13138-15350-13138-11467 0-16543 6807-16543 17080h9616c0-4120 1195-8360 6450-8360 3465 0 5614 2029 5614 5196 0 3464-2926 5196-5494 6927-9856 6571-17081 9557-17081 20964v120h33267v-8721z"/><path id="1" class="fil1" d="M850116 553222h-8420c-837 6869-5854 8541-12245 8720v7466h9975v25443h10690v-41629z"/><path class="fil1" d="M80440 708843H60909c2449-2449 4242-3284 8064-5733 5852-3703 10988-6690 10988-14335 0-8062-5971-13139-15349-13139-11467 0-16544 6808-16544 17080h9617c0-4120 1195-8360 6450-8360 3465 0 5613 2030 5613 5196 0 3465-2925 5196-5494 6927-9855 6572-17080 9557-17080 20965v119h33266v-8720z"/><path id="1" class="fil1" d="M114414 708843H94882c2449-2449 4242-3284 8065-5733 5852-3703 10988-6690 10988-14335 0-8062-5971-13139-15349-13139-11468 0-16544 6808-16544 17080h9616c0-4120 1195-8360 6451-8360 3464 0 5613 2030 5613 5196 0 3465-2926 5196-5494 6927-9855 6572-17081 9557-17081 20965v119h33267v-8720z"/><path class="fil1" d="M326890 709450h-19532c2449-2449 4242-3284 8064-5733 5852-3703 10988-6690 10988-14335 0-8062-5971-13139-15349-13139-11467 0-16543 6808-16543 17080h9616c0-4120 1195-8360 6450-8360 3465 0 5614 2029 5614 5196 0 3465-2926 5196-5494 6927-9856 6572-17081 9557-17081 20965v119h33267v-8720z"/><path id="1" class="fil1" d="M361221 700432h-5435v-23891h-9735l-18514 22934v9379h18096v9316h10153v-9316h5435v-8422zm-15290 59h-10930l10930-13558v13558z"/><path class="fil1" d="M203606 709450h-19531c2449-2449 4242-3284 8064-5733 5852-3703 10988-6690 10988-14335 0-8062-5971-13139-15349-13139-11467 0-16544 6808-16544 17080h9617c0-4120 1195-8360 6450-8360 3465 0 5613 2029 5613 5196 0 3465-2925 5196-5494 6927-9855 6572-17080 9557-17080 20965v119h33266v-8720z"/><path id="1" class="fil1" d="M214705 690338c119-4001 2270-6093 6272-6093 3522 0 5851 1793 5851 4540 0 2151-1492 3704-4001 4061-956 120-2508 239-3643 239-656 0-895 0-1612-60v6810c2210-59 2448-59 3045-59 4242 0 6750 1969 6750 5255 0 3343-2568 5375-6691 5375-5255 0-6808-2628-6987-7168h-9676v1076c0 10153 7826 14633 16964 14633 8419 0 16901-4182 16901-13737 0-4778-2687-8124-7287-9319 3584-894 5854-3941 5854-8002 0-7106-6033-11646-15468-11646-9498 0-15888 5375-15888 14095h9616z"/><path class="fil1" d="M450384 709450h-19532c2449-2449 4242-3284 8064-5733 5852-3703 10988-6690 10988-14335 0-8062-5971-13139-15349-13139-11467 0-16544 6808-16544 17080h9617c0-4120 1195-8360 6450-8360 3465 0 5614 2029 5614 5196 0 3465-2926 5196-5494 6927-9856 6572-17081 9557-17081 20965v119h33267v-8720z"/><path id="1" class="fil1" d="M482087 676780h-26280l-4061 23294h9257c1555-2211 3703-3167 6391-3167 4182 0 6810 2688 6810 6930 0 4120-2747 6748-6989 6748-3942 0-6570-1972-6868-5196h-9974c598 9197 7048 13377 16603 13377 10692 0 17381-5852 17381-15289 0-8301-5255-13557-13618-13557-3224 0-5196 656-8422 2747l1254-7346h18516v-8541z"/><path class="fil1" d="M573547 709269h-19531c2449-2449 4242-3284 8064-5733 5852-3703 10988-6691 10988-14335 0-8062-5971-13139-15349-13139-11467 0-16544 6808-16544 17080h9617c0-4120 1195-8360 6450-8360 3465 0 5613 2029 5613 5196 0 3465-2925 5196-5494 6927-9855 6572-17080 9557-17080 20965v119h33266v-8720z"/><path id="1" class="fil1" d="M607282 687350c-1313-7227-6631-11288-14753-11288-11467 0-17976 8181-17976 22457 0 10809 4838 20128 16782 20128 9137 0 16484-5377 16484-15051 0-8243-5735-13976-13856-13976-4181 0-6928 1254-9615 4359 656-4719 1970-10392 7883-10392 2926 0 4538 1076 5494 3763h9557zm-15828 9677c3942 0 6689 2806 6689 6748 0 3941-2747 6808-6570 6808-3762 0-6450-2867-6450-6808 0-3882 2688-6748 6331-6748z"/><path class="fil1" d="M697725 709450h-19531c2448-2449 4241-3284 8064-5733 5852-3703 10988-6690 10988-14335 0-8062-5971-13139-15349-13139-11467 0-16544 6808-16544 17080h9617c0-4120 1194-8360 6450-8360 3464 0 5613 2029 5613 5196 0 3465-2926 5196-5494 6927-9855 6572-17081 9557-17081 20965v119h33267v-8720z"/><path id="1" class="fil1" d="M730265 676780h-30281v9080h19949c-8303 9614-13200 20006-13856 32310h10928c358-13020 4302-23592 13260-33088v-8302z"/><path class="fil1" d="M820026 709450h-19531c2449-2449 4242-3284 8064-5733 5852-3703 10988-6690 10988-14335 0-8062-5971-13139-15349-13139-11467 0-16544 6808-16544 17080h9617c0-4120 1195-8360 6450-8360 3465 0 5613 2029 5613 5196 0 3465-2925 5196-5494 6927-9855 6572-17080 9557-17080 20965v119h33266v-8720z"/><path id="1" class="fil1" d="M828438 696192c-4719 1373-8005 4418-8005 9974 0 7883 6510 12722 17202 12722 10511 0 16961-4958 16961-12903 0-5136-2687-8420-7943-9793 4121-1255 6271-4242 6271-8661 0-8422-8062-11288-15229-11288-7049 0-15528 3164-15528 11527 0 4480 2448 7048 6271 8422zm9018-12722c4121 0 6510 1791 6510 4838 0 3105-2449 5075-6331 5075s-6450-1970-6450-4955c0-2988 2508-4958 6271-4958zm-60 16244c4419 0 7166 2270 7166 5854s-2628 5794-6987 5794c-4301 0-7108-2270-7108-5854 0-3524 2747-5794 6929-5794z"/><path class="fil1" d="M80470 832162H60939c2449-2449 4242-3283 8064-5732 5852-3703 10988-6691 10988-14336 0-8062-5971-13139-15349-13139-11467 0-16544 6808-16544 17081h9617c0-4121 1194-8360 6450-8360 3465 0 5613 2029 5613 5195 0 3465-2926 5196-5494 6928-9855 6571-17080 9557-17080 20964v119h33266v-8720z"/><path id="1" class="fil1" d="M81595 830252c956 7106 6629 11348 14991 11348 11348 0 17798-8124 17738-22457 0-12722-6330-20188-17082-20188-9495 0-16184 6272-16184 15111 0 8360 5494 13976 13735 13976 4302 0 6750-1135 9617-4421-477 4540-2032 10513-7645 10513-2807 0-4838-1135-5615-3882h-9555zm15647-23115c3763 0 6569 2868 6569 6750s-2806 6689-6569 6689-6450-2807-6450-6748c0-3882 2687-6691 6450-6691z"/><path class="fil1" d="M308525 813657c119-4001 2270-6092 6271-6092 3523 0 5852 1793 5852 4540 0 2151-1493 3703-4001 4061-956 119-2509 238-3644 238-655 0-894 0-1612-59v6810c2211-60 2449-60 3046-60 4241 0 6750 1970 6750 5255 0 3344-2568 5375-6691 5375-5255 0-6808-2628-6987-7168h-9676v1076c0 10153 7826 14634 16963 14634 8420 0 16902-4183 16902-13738 0-4778-2687-8124-7287-9318 3584-895 5854-3942 5854-8003 0-7106-6033-11646-15469-11646-9497 0-15888 5375-15888 14095h9617z"/><path id="1" class="fil1" d="M357011 799860h-8420c-837 6870-5854 8542-12244 8721v7465h9974v25443h10690v-41629z"/><path class="fil1" d="M180881 813657c119-4001 2270-6092 6271-6092 3522 0 5852 1793 5852 4540 0 2151-1493 3703-4001 4061-957 119-2509 238-3644 238-656 0-894 0-1612-59v6810c2210-60 2449-60 3045-60 4242 0 6751 1970 6751 5255 0 3344-2568 5375-6691 5375-5256 0-6808-2628-6987-7168h-9676v1076c0 10153 7826 14634 16963 14634 8420 0 16902-4183 16902-13738 0-4778-2688-8124-7287-9318 3584-895 5854-3942 5854-8003 0-7106-6033-11646-15469-11646-9497 0-15888 5375-15888 14095h9617z"/><path id="1" class="fil1" d="M221603 799562c-12483 0-17140 10332-17140 21382 0 13199 6209 21142 16543 21142 10750 0 17021-7764 17021-21142 0-13320-6212-21382-16424-21382zm-299 8182c6272 0 6928 7406 6928 12783 0 4836-239 13437-6928 13437-6748 0-7048-8003-7048-12960 0-9078 2151-13260 7048-13260z"/><path class="fil3" d="M458859 799860h-8420c-837 6870-5854 8542-12244 8721v7465h9974v25443h10690v-41629zM590534 832769h-19531c2449-2449 4242-3284 8064-5732 5852-3704 10988-6691 10988-14336 0-8062-5971-13139-15349-13139-11467 0-16544 6808-16544 17081h9617c0-4121 1194-8361 6450-8361 3465 0 5613 2030 5613 5196 0 3465-2926 5196-5494 6927-9855 6572-17080 9557-17080 20965v119h33266v-8720zM690972 813657c120-4001 2270-6092 6272-6092 3522 0 5851 1793 5851 4540 0 2151-1492 3703-4001 4061-956 119-2508 238-3643 238-656 0-895 0-1612-59v6810c2210-60 2449-60 3045-60 4242 0 6750 1970 6750 5255 0 3344-2568 5375-6691 5375-5255 0-6807-2628-6986-7168h-9677v1076c0 10153 7826 14634 16964 14634 8420 0 16901-4183 16901-13738 0-4778-2687-8124-7287-9318 3584-895 5854-3942 5854-8003 0-7106-6033-11646-15468-11646-9498 0-15888 5375-15888 14095h9616zM837520 823751h-5434v-23891h-9736l-18514 22935v9378h18096v9316h10154v-9316h5434v-8422zm-15290 59h-10930l10930-13558v13558z"/></g></g></svg>