<svg xmlns="http://www.w3.org/2000/svg" xml:space="preserve" width="160" height="160" style="shape-rendering:geometricPrecision;text-rendering:geometricPrecision;image-rendering:optimizeQuality;fill-rule:evenodd;clip-rule:evenodd" viewBox="0 0 555261 555261"><defs><style>.str0,.str1{stroke:#040507;stroke-width:1110.96}.str0{stroke:#0d0303}.fil1{fill:#fa3737}.fil0{fill:#fff}.fil2,.fil3,.fil4{fill:#040507;fill-rule:nonzero}.fil3,.fil4{fill:#b02828}.fil4{fill:#bcbaba}</style></defs><g id="Слой_x0020_1"><g id="_2188160320016"><path class="fil0" d="M0 0h555261v555261H0z"/><path class="fil0 str0" d="M391563 163680h75955v75958h-75955zM467518 163680h75955v75958h-75955z"/><path class="fil1 str0" d="M239653 163680h75955v75958h-75955zM315608 163680h75955v75958h-75955z"/><path class="fil0 str0" d="M391563 239639h75955v75958h-75955zM467518 239639h75955v75958h-75955z"/><path class="fil1 str0" d="M239653 239639h75955v75958h-75955zM315608 239639h75955v75958h-75955z"/><path class="fil0 str0" d="M391563 315598h75955v75958h-75955zM467518 315598h75955v75958h-75955z"/><path class="fil1 str0" d="M239653 315598h75955v75958h-75955zM315608 315598h75955v75958h-75955z"/><path class="fil0 str0" d="M391563 391556h75955v75958h-75955zM467518 391556h75955v75958h-75955z"/><path class="fil1 str0" d="M239653 391556h75955v75958h-75955zM315608 391556h75955v75958h-75955z"/><path class="fil0 str0" d="M391563 467515h75955v75958h-75955zM467518 467515h75955v75958h-75955z"/><path class="fil1 str0" d="M239653 467515h75955v75958h-75955zM315608 467515h75955v75958h-75955z"/><path class="fil0 str1" d="M11788 11787h531686v103485H11788z"/><path class="fil2" d="M213449 70610h-6570c-46 924-139 1850-509 2544-370 787-1018 1296-2221 1296-1204 0-1852-556-2222-1296-787-1527-879-5645-879-9625 0-3979 92-8098 879-9624 370-740 1018-1296 2222-1296 1203 0 1851 463 2221 1250 370 694 463 1620 509 2544h6570c-138-3146-1249-5737-2961-7357-1665-1572-3609-2359-6339-2359-3564 0-5738 1480-7219 3331-2314 2823-2453 7172-2453 13511 0 6340 139 10689 2453 13512 1481 1850 3655 3331 7219 3331 2730 0 4674-787 6339-2359 1712-1620 2823-4258 2961-7403z"/><path id="1" class="fil2" d="M231774 80002v-5923h-8606v-7727h7403v-5923h-7403v-7449h8606v-5924h-15177v32946z"/><path id="2" class="fil2" d="M253615 80002V47056h-6570v13235h-5460V47056h-6572v32946h6572V66213h5460v13789z"/><path id="3" class="fil2" d="M273976 52980v-5924h-17676v5924h5552v27022h6570V52980z"/><path id="4" class="fil2" d="M294430 80002V47056h-9394c-7172 0-9162 3749-9162 10041 0 3518 556 6663 3748 8653l-4812 14252h6848l4026-12817h2174v12817h6572zm-6572-18740h-2775c-2499 0-2638-2267-2638-4165 0-1897 139-4117 2638-4117h2775v8282z"/><path id="5" class="fil2" d="M317289 69499c0-6433-2129-10504-9255-10504h-2730v-6015h10365v-5924h-16936v32946h9301c7126 0 9255-4071 9255-10503zm-6571 0c0 2081-140 4580-2638 4580h-2776v-9162h2776c2498 0 2638 2499 2638 4582z"/><path id="6" class="fil2" d="M339037 57560c0-6431-2129-10504-9255-10504h-9301v32946h6572V68064h2729c7126 0 9255-4072 9255-10504zm-6571 0c0 2083-139 4582-2638 4582h-2775v-9162h2775c2499 0 2638 2499 2638 4580z"/><path id="7" class="fil2" d="M360786 69499c0-6433-2129-10504-9255-10504h-2730V47056h-6571v32946h9301c7126 0 9255-4071 9255-10503zm-6572 0c0 2081-92 4580-2868 4580h-2545v-9162h2545c2776 0 2868 2499 2868 4582z"/><path class="fil1 str0" d="M163698 163680h75955v75958h-75955zM11788 163680h75955v75958H11788zM87743 163680h75955v75958H87743z"/><path class="fil2" d="M55964 188979h-5186c-516 4231-3606 5261-7542 5371v4599h6143v15671h6585v-25641z"/><path class="fil1 str0" d="M163698 239639h75955v75958h-75955zM11788 239639h75955v75958H11788zM87743 239639h75955v75958H87743zM163698 315598h75955v75958h-75955zM11788 315598h75955v75958H11788zM87743 315598h75955v75958H87743zM163698 391556h75955v75958h-75955zM11788 391556h75955v75958H11788zM87743 391556h75955v75958H87743zM163698 467515h75955v75958h-75955zM11788 467515h75955v75958H11788zM87743 467515h75955v75958H87743z"/><path class="fil0 str1" d="M391563 115272h75955v48408h-75955z"/><path class="fil2" d="M417068 142060h-1347c-12 313-60 626-205 843-120 192-313 313-637 313-325 0-518-133-638-326-264-408-301-1275-301-2838 0-1565 37-2431 301-2840 120-193 313-324 638-324 324 0 517 120 637 312 145 205 193 517 205 831h1347c-24-758-253-1408-686-1805-384-361-854-554-1503-554-795 0-1312 314-1661 735-565 673-625 1612-625 3645s60 2971 625 3645c349 421 866 733 1661 733 649 0 1094-180 1479-540 433-398 686-1059 710-1830z"/><path id="1" class="fil2" d="M422055 135769h-1468l-1023 3958-1033-3958h-1468l1877 5786-193 698c-193 674-458 879-1203 879v1202c1371 0 1864-253 2250-1456l2261-7109z"/><path id="2" class="fil2" d="M426790 141724c0-1793-651-2598-2202-2598h-806v-2154h2634v-1203h-3982v8565h2154c1551 0 2202-818 2202-2610zm-1348 0c0 866-180 1396-903 1396h-757v-2780h757c723 0 903 517 903 1384z"/><path id="3" class="fil2" d="M431945 141724c0-1793-651-2598-2203-2598h-805v-2154h2634v-1203h-3982v8565h2153c1552 0 2203-818 2203-2610zm-1349 0c0 866-179 1396-902 1396h-757v-2780h757c723 0 902 517 902 1384z"/><path id="4" class="fil2" d="M437026 140052c0-2033-47-2972-626-3645-349-421-865-735-1659-735-795 0-1312 314-1660 735-566 685-626 1612-626 3645s60 2959 626 3645c348 421 865 733 1660 733 794 0 1310-312 1659-733 579-674 626-1612 626-3645zm-1347 0c0 1563-35 2430-289 2838-120 193-325 326-649 326-325 0-518-133-637-326-253-408-302-1275-302-2838 0-1565 49-2431 302-2840 119-193 312-324 637-324 324 0 529 131 649 324 254 409 289 1275 289 2840z"/><path id="5" class="fil2" d="M441484 136984v-1215h-4222v1215h1431v7350h1347v-7350z"/><path id="6" class="fil2" d="m446423 144334-2081-8565h-1311l-2105 8565h1419l337-1696h1984l349 1696h1408zm-2009-2911h-1467l733-3585 734 3585z"/><path class="fil0 str1" d="M467518 115272h75955v48408h-75955z"/><path class="fil2" d="M483002 141880c0-793-97-1311-493-1721-121-119-289-228-470-312 181-72 325-181 445-300 397-409 493-879 493-1493 0-926-145-1359-541-1756-349-361-867-529-1660-529h-2142v8565h2130c805 0 1323-181 1684-541 409-421 554-903 554-1913zm-1349-95c0 998-300 1335-1021 1335h-650v-2672h650c721 0 1021 386 1021 1337zm-23-3647c0 819-277 1168-975 1168h-673v-2322h673c698 0 975 312 975 1154z"/><path id="1" class="fil2" d="M488264 140052c0-2033-47-2972-626-3645-349-421-865-735-1659-735-795 0-1312 314-1660 735-566 685-626 1612-626 3645s60 2959 626 3645c348 421 865 733 1660 733 794 0 1310-312 1659-733 579-674 626-1612 626-3645zm-1347 0c0 1563-35 2430-289 2838-120 193-325 326-649 326-325 0-518-133-637-326-253-408-302-1275-302-2838 0-1565 49-2431 302-2840 119-193 312-324 637-324 324 0 529 131 649 324 254 409 289 1275 289 2840z"/><path id="2" class="fil2" d="M493335 142060h-1347c-12 313-61 626-205 843-121 192-313 313-637 313-326 0-518-133-638-326-265-408-301-1275-301-2838 0-1565 36-2431 301-2840 120-193 312-324 638-324 324 0 516 120 637 312 144 205 193 517 205 831h1347c-24-758-253-1408-686-1805-384-361-854-554-1503-554-795 0-1312 314-1661 735-565 673-626 1612-626 3645s61 2971 626 3645c349 421 866 733 1661 733 649 0 1094-180 1479-540 433-398 686-1059 710-1830z"/><path id="3" class="fil2" d="m498996 144334-2189-4523 1961-4042h-1421l-1924 4102 2082 4463h1491zm-3598 0v-8565h-1347v8565h1347z"/><path id="4" class="fil2" d="M503754 138380c0-1793-650-2611-2202-2611h-2153v8565h1348v-3356h805c1552 0 2202-807 2202-2598zm-1348 0c0 865-180 1383-902 1383h-757v-2779h757c722 0 902 529 902 1396z"/><path id="5" class="fil2" d="M508055 144334v-1214h-2249v-2491h1936v-1215h-1936v-2430h2249v-1215h-3597v8565z"/><path id="6" class="fil2" d="M513078 142060h-1347c-12 313-61 626-205 843-121 192-314 313-637 313-326 0-519-133-638-326-265-408-302-1275-302-2838 0-1565 37-2431 302-2840 119-193 312-324 638-324 323 0 516 120 637 312 144 205 193 517 205 831h1347c-24-758-253-1408-686-1805-385-361-854-554-1503-554-795 0-1312 314-1661 735-565 673-626 1612-626 3645s61 2971 626 3645c349 421 866 733 1661 733 649 0 1093-180 1479-540 433-398 686-1059 710-1830z"/><path id="7" class="fil2" d="M517403 144334v-1214h-2249v-2491h1936v-1215h-1936v-2430h2249v-1215h-3597v8565z"/><path id="8" class="fil2" d="M522546 144334v-8565h-1348v3609h-1671v-3609h-1348v8565h1348v-3740h1671v3740z"/><path id="9" class="fil2" d="M527954 141724c0-1793-650-2598-2202-2598h-805v-3357h-1349v8565h2154c1552 0 2202-818 2202-2610zm-1348 0c0 866-180 1396-902 1396h-757v-2780h757c722 0 902 517 902 1384z"/><path id="10" class="fil2" d="M532316 144334v-1214h-2250v-2491h1936v-1215h-1936v-2430h2250v-1215h-3598v8565z"/><path class="fil1 str1" d="M239653 115272h75955v48408h-75955z"/><path class="fil2" d="M265747 144334v-8565h-1349v4402c-277 37-480 61-757 61-578 0-855-217-855-1010v-3453h-1347v3585c0 1515 590 2082 1985 2082 313 0 638-13 987-61v2959h1336z"/><path id="1" class="fil2" d="M270396 144334v-1214h-2249v-2491h1936v-1215h-1936v-2430h2249v-1215h-3598v8565z"/><path id="2" class="fil2" d="M274925 136984v-1215h-4222v1215h1431v7350h1347v-7350z"/><path id="3" class="fil2" d="M279877 141880c0-793-97-1311-493-1721-121-119-289-228-470-312 181-72 325-181 445-300 397-409 493-879 493-1493 0-926-144-1359-540-1756-349-361-867-529-1661-529h-2142v8565h2130c806 0 1324-181 1684-541 410-421 554-903 554-1913zm-1348-95c0 998-301 1335-1022 1335h-650v-2672h650c721 0 1022 386 1022 1337zm-24-3647c0 819-277 1168-975 1168h-673v-2322h673c698 0 975 312 975 1154z"/><path id="4" class="fil2" d="M284394 144334v-1214h-2249v-2491h1936v-1215h-1936v-2430h2249v-1215h-3598v8565z"/><path id="5" class="fil2" d="M289525 138380c0-1793-650-2611-2202-2611h-2154v8565h1349v-3356h805c1552 0 2202-807 2202-2598zm-1348 0c0 865-180 1383-902 1383h-757v-2779h757c722 0 902 529 902 1396z"/><path id="6" class="fil2" d="M293766 136984v-1215h-3538v8565h1349v-7350z"/><path class="fil1 str1" d="M315608 115272h75955v48408h-75955z"/><path class="fil2" d="M339618 144334v-8565h-4379v8565h1347v-7350h1684v7350z"/><path id="1" class="fil2" d="m341742 144334 1119-3512h756v3512h1349v-8565h-2166c-1565 0-2190 757-2190 2527 0 1058 218 1816 999 2237l-1275 3801h1408zm216-6038c0-710 108-1312 830-1312h829v2622h-829c-722 0-830-601-830-1310z"/><path id="2" class="fil2" d="M349772 136984v-1215h-4223v1215h1431v7350h1348v-7350z"/><path id="3" class="fil2" d="M354723 144334v-8565h-1348v3609h-1671v-3609h-1349v8565h1349v-3740h1671v3740z"/><path id="4" class="fil2" d="m356966 144334 1926-5245v5245h1347v-8565h-1203l-1913 5246v-5246h-1348v8565z"/><path id="5" class="fil2" d="M366368 146055v-2935h-722v-7351h-1348v7351h-1659v-7351h-1349v8565h3803v1721z"/><path id="6" class="fil2" d="m371835 144334-2080-8565h-1312l-2105 8565h1419l337-1696h1984l349 1696h1408zm-2008-2911h-1468l733-3585 735 3585z"/><path class="fil1 str1" d="M163698 115272h75955v48408h-75955z"/><path class="fil2" d="M193336 142060h-1347c-12 313-60 626-205 843-120 192-313 313-637 313-325 0-518-133-638-326-265-408-301-1275-301-2838 0-1565 36-2431 301-2840 120-193 313-324 638-324 324 0 517 120 637 312 145 205 193 517 205 831h1347c-24-758-253-1408-686-1805-384-361-854-554-1503-554-795 0-1312 314-1661 735-565 673-625 1612-625 3645s60 2971 625 3645c349 421 866 733 1661 733 649 0 1094-180 1479-540 433-398 686-1059 710-1830z"/><path id="1" class="fil2" d="M198420 138380c0-1793-651-2611-2202-2611h-2154v8565h1348v-3356h806c1551 0 2202-807 2202-2598zm-1348 0c0 865-180 1383-903 1383h-757v-2779h757c723 0 903 529 903 1396z"/><path id="2" class="fil2" d="M202721 144334v-1214h-2250v-2491h1936v-1215h-1936v-2430h2250v-1215h-3598v8565z"/><path id="3" class="fil2" d="M208946 145958v-2838h-710v-7351h-4042v3199c0 1698-264 3020-710 4152h-553v2838h1275v-1624h3465v1624h1275zm-2057-2838h-2033c396-1072 626-2275 626-3814v-2334h1407v6148z"/><path id="4" class="fil2" d="m214426 144334-2080-8565h-1312l-2105 8565h1419l337-1696h1985l349 1696h1407zm-2008-2911h-1468l733-3585 735 3585z"/><path class="fil1 str1" d="M11788 115272h75955v48408H11788z"/><path class="fil2" d="M25288 144334v-8565h-4379v8565h1347v-7350h1684v7350z"/><path id="1" class="fil2" d="M30683 140052c0-2033-47-2972-625-3645-349-421-866-735-1660-735s-1311 314-1660 735c-565 685-626 1612-626 3645s61 2959 626 3645c349 421 866 733 1660 733s1311-312 1660-733c578-674 625-1612 625-3645zm-1347 0c0 1563-35 2430-288 2838-121 193-326 326-650 326-325 0-518-133-637-326-253-408-302-1275-302-2838 0-1565 49-2431 302-2840 119-193 312-324 637-324 324 0 529 131 650 324 253 409 288 1275 288 2840z"/><path id="2" class="fil2" d="M35875 144334v-8565h-1349v3609h-1671v-3609h-1348v8565h1348v-3740h1671v3740z"/><path id="3" class="fil2" d="M40524 144334v-1214h-2249v-2491h1936v-1215h-1936v-2430h2249v-1215h-3597v8565z"/><path id="4" class="fil2" d="M46750 145958v-2838h-710v-7351h-4043v3199c0 1698-263 3020-709 4152h-554v2838h1275v-1624h3466v1624h1275zm-2057-2838h-2033c396-1072 625-2275 625-3814v-2334h1408v6148z"/><path id="5" class="fil2" d="M50991 144334v-1214h-2249v-2491h1936v-1215h-1936v-2430h2249v-1215h-3597v8565z"/><path id="6" class="fil2" d="M56483 144334v-8565h-4007v4751c0 2431-540 2600-1154 2600h-121v1214h398c1202 0 2177-360 2177-3656v-3694h1359v7350h1348z"/><path id="7" class="fil2" d="M61891 141724c0-1793-650-2598-2202-2598h-805v-3357h-1349v8565h2154c1552 0 2202-818 2202-2610zm-1348 0c0 866-180 1396-903 1396h-756v-2780h756c723 0 903 517 903 1384z"/><path id="8" class="fil2" d="M67022 144334v-8565h-1348v3609h-1671v-3609h-1348v8565h1348v-3740h1671v3740z"/><path id="9" class="fil2" d="m69265 144334 1926-5245v5245h1347v-8565h-1203l-1912 5246v-5246h-1349v8565z"/><path id="10" class="fil2" d="m78523 144334-2189-4523 1961-4042h-1421l-1924 4102 2081 4463h1492zm-3598 0v-8565h-1347v8565h1347z"/><path class="fil1 str1" d="M87743 115272h75955v48408H87743z"/><path class="fil2" d="M112300 141880c0-793-97-1311-493-1721-121-119-289-228-470-312 181-72 326-181 445-300 397-409 493-879 493-1493 0-926-144-1359-540-1756-349-361-867-529-1661-529h-2142v8565h2131c805 0 1323-181 1684-541 409-421 553-903 553-1913zm-1348-95c0 998-301 1335-1022 1335h-649v-2672h649c721 0 1022 386 1022 1337zm-24-3647c0 819-277 1168-974 1168h-673v-2322h673c697 0 974 312 974 1154z"/><path id="1" class="fil2" d="M116853 136984v-1215h-4222v1215h1431v7350h1347v-7350z"/><path id="2" class="fil2" d="M121659 140052c0-2033-47-2972-626-3645-349-421-866-735-1659-735-795 0-1312 314-1661 735-565 685-625 1612-625 3645s60 2959 625 3645c349 421 866 733 1661 733 793 0 1310-312 1659-733 579-674 626-1612 626-3645zm-1347 0c0 1563-36 2430-289 2838-121 193-325 326-649 326-325 0-518-133-638-326-253-408-301-1275-301-2838 0-1565 48-2431 301-2840 120-193 313-324 638-324 324 0 528 131 649 324 253 409 289 1275 289 2840z"/><path id="3" class="fil2" d="M126838 138380c0-1793-650-2611-2202-2611h-2154v8565h1349v-3356h805c1552 0 2202-807 2202-2598zm-1348 0c0 865-180 1383-902 1383h-757v-2779h757c722 0 902 529 902 1396z"/><path id="4" class="fil2" d="M131909 144334v-8565h-1348v3609h-1671v-3609h-1349v8565h1349v-3740h1671v3740z"/><path id="5" class="fil2" d="m134152 144334 1926-5245v5245h1347v-8565h-1203l-1912 5246v-5246h-1349v8565z"/><path id="6" class="fil2" d="m143410 144334-2189-4523 1960-4042h-1420l-1924 4102 2081 4463h1492zm-3598 0v-8565h-1347v8565h1347z"/><path class="fil2" d="M198180 197851c73-2465 1398-3753 3863-3753 2169 0 3604 1105 3604 2797 0 1324-919 2280-2464 2501-589 73-1546 147-2245 147-404 0-551 0-993-37v4195c1362-37 1509-37 1876-37 2613 0 4158 1213 4158 3237 0 2059-1582 3311-4121 3311-3237 0-4194-1619-4304-4415h-5960v662c0 6254 4820 9014 10449 9014 5186 0 10410-2576 10410-8462 0-2943-1655-5004-4488-5740 2207-550 3605-2427 3605-4929 0-4377-3715-7173-9527-7173-5850 0-9786 3311-9786 8682h5923zM136315 209623h-12030c1508-1509 2612-2023 4967-3531 3604-2281 6768-4121 6768-8830 0-4966-3678-8093-9454-8093-7064 0-10191 4193-10191 10521h5924c0-2538 736-5150 3973-5150 2134 0 3457 1250 3457 3201 0 2134-1802 3200-3384 4266-6070 4048-10520 5887-10520 12913v74h20490v-5371zM288446 204068h-3347v-14715h-5997l-11404 14126v5776h11147v5739h6254v-5739h3347v-5187zm-9418 37h-6732l6732-8352v8352zM362782 189499h-16187l-2501 14349h5701c958-1362 2281-1951 3937-1951 2576 0 4194 1655 4194 4268 0 2538-1692 4157-4305 4157-2428 0-4046-1215-4230-3201h-6143c368 5665 4341 8240 10226 8240 6586 0 10706-3604 10706-9417 0-5113-3237-8350-8388-8350-1986 0-3200 404-5187 1692l772-4526h11405v-5261zM439988 196122c-810-4452-4085-6953-9087-6953-7064 0-11073 5039-11073 13833 0 6657 2980 12397 10337 12397 5628 0 10153-3312 10153-9271 0-5077-3532-8608-8535-8608-2574 0-4266 773-5922 2685 404-2906 1214-6401 4856-6401 1802 0 2795 663 3384 2318h5887zm-9750 5960c2428 0 4120 1729 4120 4157s-1692 4193-4046 4193c-2318 0-3973-1765-3973-4193 0-2391 1655-4157 3899-4157zM515208 189499h-18652v5593h12288c-5114 5922-8131 12323-8535 19902h6731c221-8020 2650-14532 8168-20380v-5115zM44929 276527c-2907 846-4930 2722-4930 6144 0 4855 4009 7835 10595 7835 6474 0 10447-3053 10447-7947 0-3164-1655-5186-4892-6032 2538-773 3863-2613 3863-5335 0-5187-4966-6953-9381-6953-4342 0-9565 1950-9565 7100 0 2760 1509 4342 3863 5188zm5555-7836c2538 0 4009 1103 4009 2980 0 1913-1508 3126-3899 3126s-3973-1213-3973-3052c0-1841 1545-3054 3863-3054zm-37 10005c2722 0 4414 1399 4414 3606 0 2208-1619 3569-4304 3569-2649 0-4378-1398-4378-3606 0-2170 1692-3569 4268-3569zM194909 264797h-5187c-515 4231-3605 5261-7541 5371v4599h6143v15671h6585v-25641z"/><path id="1" class="fil2" d="M211052 264613c-7688 0-10557 6364-10557 13170 0 8130 3825 13022 10190 13022 6621 0 10484-4782 10484-13022 0-8204-3826-13170-10117-13170zm-183 5040c3863 0 4267 4562 4267 7873 0 2979-147 8277-4267 8277-4157 0-4342-4929-4342-7983 0-5591 1325-8167 4342-8167z"/><path class="fil2" d="M115641 283890c589 4377 4083 6990 9234 6990 6990 0 10963-5004 10926-13832 0-7836-3900-12435-10522-12435-5849 0-9969 3863-9969 9308 0 5149 3384 8608 8460 8608 2650 0 4158-699 5924-2723-294 2796-1251 6476-4709 6476-1729 0-2980-699-3459-2392h-5885zm9638-14237c2318 0 4046 1766 4046 4158 0 2391-1728 4119-4046 4119s-3973-1728-3973-4156c0-2391 1655-4121 3973-4121zM273532 264797h-5186c-515 4231-3605 5261-7542 5371v4599h6144v15671h6584v-25641z"/><path id="1" class="fil2" d="M294458 264797h-5186c-515 4231-3606 5261-7542 5371v4599h6144v15671h6584v-25641z"/><path class="fil2" d="M346911 264797h-5186c-516 4231-3606 5261-7542 5371v4599h6144v15671h6584v-25641z"/><path id="1" class="fil2" d="M372988 285067h-12031c1509-1508 2613-2023 4968-3531 3604-2281 6768-4121 6768-8830 0-4966-3678-8093-9455-8093-7063 0-10190 4194-10190 10521h5924c0-2538 735-5150 3972-5150 2135 0 3458 1250 3458 3201 0 2134-1802 3200-3384 4267-6070 4047-10521 5886-10521 12913v73h20491v-5371z"/><path class="fil2" d="M422774 264797h-5187c-515 4231-3605 5261-7541 5371v4599h6143v15671h6585v-25641z"/><path id="1" class="fil2" d="M434761 273295c73-2465 1398-3753 3863-3753 2169 0 3604 1105 3604 2797 0 1325-919 2281-2465 2501-589 74-1545 147-2244 147-404 0-551 0-993-37v4195c1362-37 1509-37 1876-37 2613 0 4158 1214 4158 3237 0 2060-1582 3311-4121 3311-3237 0-4194-1619-4304-4415h-5960v662c0 6254 4820 9014 10449 9014 5186 0 10410-2576 10410-8461 0-2944-1655-5004-4488-5740 2207-551 3605-2428 3605-4929 0-4377-3716-7174-9527-7174-5850 0-9787 3311-9787 8682h5924z"/><path class="fil2" d="M498711 264797h-5186c-515 4231-3606 5261-7542 5371v4599h6144v15671h6584v-25641z"/><path id="1" class="fil2" d="M525008 279512h-3347v-14715h-5997l-11403 14126v5777h11146v5738h6254v-5738h3347v-5188zm-9417 37h-6733l6733-8351v8351z"/><path class="fil2" d="M43090 340383h-5186c-516 4231-3606 5261-7542 5371v4599h6144v15671h6584v-25641z"/><path id="1" class="fil2" d="M67769 340530H51582l-2502 14348h5702c958-1362 2281-1951 3936-1951 2576 0 4195 1656 4195 4269 0 2538-1692 4156-4305 4156-2428 0-4046-1214-4230-3200h-6144c369 5665 4342 8239 10227 8239 6586 0 10706-3604 10706-9417 0-5113-3237-8350-8388-8350-1986 0-3201 404-5188 1692l773-4525h11405v-5261z"/><path class="fil2" d="M195443 340757h-5187c-515 4231-3605 5261-7542 5371v4599h6144v15671h6585v-25641z"/><path id="1" class="fil2" d="M220637 340904h-18652v5592h12287c-5114 5923-8130 12323-8534 19902h6731c220-8019 2649-14532 8168-20380v-5114z"/><path class="fil2" d="M118954 340757h-5186c-516 4231-3606 5261-7542 5371v4599h6144v15671h6584v-25641z"/><path id="1" class="fil2" d="M144884 347526c-809-4452-4084-6953-9087-6953-7063 0-11073 5039-11073 13833 0 6658 2980 12397 10337 12397 5628 0 10154-3312 10154-9270 0-5078-3533-8609-8535-8609-2575 0-4267 773-5922 2685 404-2906 1213-6401 4855-6401 1802 0 2795 663 3384 2318h5887zm-9749 5960c2427 0 4119 1729 4119 4157s-1692 4193-4046 4193c-2318 0-3973-1765-3973-4193 0-2391 1655-4157 3900-4157z"/><path class="fil2" d="M270773 340757h-5186c-516 4231-3606 5261-7542 5371v4599h6143v15671h6585v-25641z"/><path id="1" class="fil2" d="M281105 352861c-2907 846-4931 2721-4931 6143 0 4856 4010 7836 10596 7836 6474 0 10447-3053 10447-7947 0-3164-1656-5186-4893-6032 2538-773 3863-2613 3863-5335 0-5187-4966-6953-9381-6953-4341 0-9564 1949-9564 7100 0 2760 1508 4342 3863 5188zm5554-7836c2538 0 4010 1103 4010 2980 0 1912-1508 3126-3899 3126-2392 0-3973-1214-3973-3053 0-1840 1545-3053 3862-3053zm-36 10005c2721 0 4413 1398 4413 3606 0 2207-1618 3569-4303 3569-2650 0-4378-1399-4378-3606 0-2171 1692-3569 4268-3569z"/><path class="fil2" d="M346929 340757h-5186c-515 4231-3606 5261-7542 5371v4599h6144v15671h6584v-25641z"/><path id="1" class="fil2" d="M352773 359850c589 4377 4083 6990 9234 6990 6989 0 10962-5004 10926-13833 0-7835-3900-12434-10522-12434-5849 0-9969 3863-9969 9308 0 5149 3384 8608 8460 8608 2650 0 4158-699 5924-2723-294 2796-1252 6475-4709 6475-1729 0-2980-699-3459-2391h-5885zm9638-14238c2317 0 4046 1767 4046 4158s-1729 4120-4046 4120c-2318 0-3973-1729-3973-4156 0-2392 1655-4122 3973-4122z"/><path class="fil2" d="M429231 361027h-12030c1508-1509 2612-2023 4967-3531 3604-2281 6768-4121 6768-8830 0-4966-3678-8093-9455-8093-7063 0-10190 4193-10190 10521h5924c0-2538 736-5150 3973-5150 2134 0 3457 1250 3457 3201 0 2134-1802 3200-3384 4266-6070 4048-10521 5887-10521 12914v73h20491v-5371z"/><path id="1" class="fil2" d="M440224 340573c-7689 0-10558 6364-10558 13170 0 8130 3825 13022 10191 13022 6621 0 10483-4782 10483-13022 0-8204-3826-13170-10116-13170zm-184 5039c3863 0 4267 4562 4267 7874 0 2979-147 8277-4267 8277-4156 0-4341-4929-4341-7983 0-5591 1324-8168 4341-8168z"/><path class="fil2" d="M507853 361027h-12030c1508-1509 2613-2023 4967-3531 3605-2281 6768-4121 6768-8830 0-4966-3678-8093-9454-8093-7063 0-10190 4193-10190 10521h5923c0-2538 736-5150 3973-5150 2134 0 3458 1250 3458 3201 0 2134-1803 3200-3384 4266-6071 4048-10521 5887-10521 12914v73h20490v-5371z"/><path id="1" class="fil2" d="M523628 340757h-5186c-515 4231-3605 5261-7542 5371v4599h6144v15671h6584v-25641z"/><path class="fil2" d="M49547 436612H37517c1508-1509 2613-2023 4967-3531 3604-2281 6768-4122 6768-8830 0-4966-3678-8093-9454-8093-7063 0-10190 4193-10190 10520h5923c0-2538 736-5149 3973-5149 2134 0 3458 1250 3458 3200 0 2134-1803 3201-3385 4267-6070 4048-10520 5887-10520 12913v74h20490v-5371z"/><path id="1" class="fil2" d="M70473 436612H58443c1508-1509 2613-2023 4967-3531 3604-2281 6768-4122 6768-8830 0-4966-3678-8093-9454-8093-7063 0-10190 4193-10190 10520h5923c0-2538 736-5149 3973-5149 2134 0 3457 1250 3457 3200 0 2134-1802 3201-3384 4267-6070 4048-10520 5887-10520 12913v74h20490v-5371z"/><path class="fil2" d="M201348 436985h-12031c1509-1508 2613-2022 4967-3531 3605-2281 6768-4121 6768-8830 0-4965-3677-8092-9454-8092-7063 0-10190 4193-10190 10520h5923c0-2538 736-5149 3973-5149 2134 0 3458 1250 3458 3200 0 2134-1802 3201-3384 4267-6071 4048-10521 5887-10521 12913v74h20491v-5372z"/><path id="1" class="fil2" d="M222494 431431h-3347v-14716h-5997l-11404 14127v5776h11147v5739h6254v-5739h3347v-5187zm-9418 36h-6732l6732-8351v8351z"/><path class="fil2" d="M125411 436985h-12030c1508-1508 2613-2022 4967-3531 3605-2281 6768-4121 6768-8830 0-4965-3678-8092-9454-8092-7063 0-10190 4193-10190 10520h5923c0-2538 736-5149 3973-5149 2134 0 3458 1250 3458 3200 0 2134-1803 3201-3384 4267-6071 4048-10521 5887-10521 12913v74h20490v-5372z"/><path id="1" class="fil2" d="M132248 425213c73-2464 1398-3752 3862-3752 2170 0 3605 1104 3605 2796 0 1325-920 2281-2465 2501-589 74-1545 147-2244 147-404 0-551 0-993-36v4194c1362-36 1508-36 1876-36 2613 0 4158 1213 4158 3237 0 2059-1582 3310-4122 3310-3237 0-4193-1618-4303-4415h-5960v663c0 6254 4820 9013 10448 9013 5187 0 10411-2576 10411-8461 0-2943-1655-5004-4489-5740 2208-551 3606-2428 3606-4929 0-4377-3716-7173-9528-7173-5850 0-9786 3310-9786 8681h5924z"/><path class="fil2" d="M277414 436985h-12031c1509-1508 2613-2022 4967-3531 3605-2281 6768-4121 6768-8830 0-4965-3677-8092-9454-8092-7063 0-10190 4193-10190 10520h5923c0-2538 736-5149 3973-5149 2134 0 3458 1250 3458 3200 0 2134-1802 3201-3384 4267-6070 4048-10521 5887-10521 12913v74h20491v-5372z"/><path id="1" class="fil2" d="M296941 416862h-16187l-2501 14348h5702c957-1361 2281-1950 3936-1950 2576 0 4195 1655 4195 4268 0 2538-1692 4156-4305 4156-2428 0-4047-1214-4230-3200h-6144c369 5665 4342 8240 10227 8240 6586 0 10706-3605 10706-9418 0-5113-3238-8350-8388-8350-1986 0-3201 404-5188 1692l773-4525h11404v-5261z"/><path class="fil2" d="M353276 436874h-12030c1508-1509 2613-2023 4967-3531 3605-2281 6768-4121 6768-8830 0-4966-3678-8093-9454-8093-7063 0-10190 4193-10190 10521h5923c0-2538 736-5150 3973-5150 2134 0 3458 1250 3458 3201 0 2134-1803 3200-3384 4266-6071 4048-10521 5887-10521 12914v73h20490v-5371z"/><path id="1" class="fil2" d="M374055 423373c-809-4452-4084-6953-9087-6953-7063 0-11073 5039-11073 13833 0 6658 2981 12397 10338 12397 5628 0 10153-3312 10153-9270 0-5078-3532-8609-8535-8609-2575 0-4267 773-5922 2685 404-2906 1213-6401 4856-6401 1802 0 2795 663 3384 2318h5886zm-9749 5960c2428 0 4120 1729 4120 4157s-1692 4193-4047 4193c-2317 0-3973-1765-3973-4193 0-2391 1656-4157 3900-4157z"/><path class="fil2" d="M429763 436985h-12030c1508-1508 2613-2022 4967-3531 3605-2281 6768-4121 6768-8830 0-4965-3678-8092-9454-8092-7063 0-10190 4193-10190 10520h5923c0-2538 736-5149 3973-5149 2134 0 3458 1250 3458 3200 0 2134-1802 3201-3384 4267-6071 4048-10521 5887-10521 12913v74h20490v-5372z"/><path id="1" class="fil2" d="M449807 416862h-18652v5593h12288c-5115 5922-8131 12323-8535 19902h6731c220-8020 2650-14532 8168-20381v-5114z"/><path class="fil2" d="M505095 436985h-12030c1508-1508 2612-2022 4967-3531 3604-2281 6768-4121 6768-8830 0-4965-3678-8092-9454-8092-7064 0-10191 4193-10191 10520h5924c0-2538 736-5149 3973-5149 2134 0 3457 1250 3457 3200 0 2134-1802 3201-3384 4267-6070 4048-10520 5887-10520 12913v74h20490v-5372z"/><path id="1" class="fil2" d="M510276 428819c-2907 846-4930 2722-4930 6144 0 4856 4009 7836 10595 7836 6474 0 10447-3054 10447-7948 0-3163-1655-5186-4892-6032 2538-772 3863-2613 3863-5334 0-5188-4966-6953-9381-6953-4342 0-9565 1949-9565 7100 0 2759 1509 4341 3863 5187zm5555-7836c2538 0 4009 1103 4009 2980 0 1913-1508 3126-3899 3126s-3973-1213-3973-3052c0-1840 1545-3054 3863-3054zm-37 10006c2722 0 4414 1398 4414 3605 0 2208-1619 3569-4304 3569-2649 0-4378-1398-4378-3605 0-2171 1692-3569 4268-3569z"/><path class="fil2" d="M49566 512570H37535c1509-1508 2613-2023 4967-3531 3605-2281 6769-4121 6769-8830 0-4966-3678-8093-9455-8093-7063 0-10190 4194-10190 10521h5923c0-2538 736-5150 3973-5150 2134 0 3458 1250 3458 3201 0 2134-1802 3200-3384 4267-6070 4047-10521 5886-10521 12913v73h20491v-5371z"/><path id="1" class="fil2" d="M50258 511394c589 4376 4083 6989 9234 6989 6990 0 10963-5004 10926-13832 0-7836-3899-12435-10522-12435-5848 0-9968 3863-9968 9308 0 5149 3384 8608 8460 8608 2649 0 4158-699 5923-2723-294 2796-1251 6476-4709 6476-1728 0-2980-699-3458-2391h-5886zm9638-14238c2318 0 4047 1766 4047 4158 0 2391-1729 4119-4047 4119s-3973-1728-3973-4156c0-2391 1655-4121 3973-4121z"/><path class="fil2" d="M190036 501172c73-2465 1398-3753 3863-3753 2169 0 3604 1105 3604 2797 0 1324-919 2281-2464 2501-589 73-1546 147-2245 147-404 0-551 0-993-37v4195c1362-37 1509-37 1876-37 2613 0 4158 1213 4158 3237 0 2059-1582 3311-4121 3311-3237 0-4194-1619-4304-4415h-5960v662c0 6254 4820 9014 10449 9014 5186 0 10410-2576 10410-8462 0-2943-1655-5004-4488-5739 2207-551 3606-2428 3606-4930 0-4376-3716-7173-9528-7173-5850 0-9786 3311-9786 8682h5923z"/><path id="1" class="fil2" d="M219901 492674h-5187c-515 4231-3605 5261-7541 5371v4599h6143v15671h6585v-25641z"/><path class="fil2" d="M111413 501172c74-2465 1399-3753 3863-3753 2170 0 3605 1105 3605 2797 0 1324-920 2281-2465 2501-589 73-1545 147-2244 147-404 0-551 0-993-37v4195c1361-37 1508-37 1876-37 2612 0 4158 1213 4158 3237 0 2059-1582 3311-4122 3311-3237 0-4193-1619-4303-4415h-5960v662c0 6254 4820 9014 10448 9014 5187 0 10411-2576 10411-8462 0-2943-1656-5004-4489-5739 2208-551 3606-2428 3606-4930 0-4376-3716-7173-9528-7173-5850 0-9786 3311-9786 8682h5923z"/><path id="1" class="fil2" d="M136496 492490c-7689 0-10557 6364-10557 13170 0 8130 3824 13022 10190 13022 6621 0 10484-4782 10484-13022 0-8204-3826-13170-10117-13170zm-184 5039c3863 0 4267 4562 4267 7874 0 2979-147 8277-4267 8277-4156 0-4341-4929-4341-7983 0-5591 1325-8168 4341-8168z"/><path class="fil3" d="M282634 492674h-5186c-516 4231-3606 5261-7542 5371v4599h6143v15671h6585v-25641zM363739 512944h-12030c1508-1509 2613-2023 4967-3531 3605-2281 6768-4121 6768-8830 0-4966-3678-8093-9454-8093-7063 0-10190 4193-10190 10521h5923c0-2538 736-5150 3973-5150 2134 0 3458 1250 3458 3201 0 2134-1803 3200-3384 4266-6071 4048-10521 5887-10521 12914v73h20490v-5371z"/><path class="fil4" d="M425604 501172c74-2465 1398-3753 3863-3753 2169 0 3604 1105 3604 2797 0 1324-919 2281-2464 2501-589 73-1545 147-2244 147-404 0-551 0-993-37v4195c1361-37 1508-37 1875-37 2613 0 4158 1213 4158 3237 0 2059-1582 3311-4121 3311-3237 0-4193-1619-4303-4415h-5961v662c0 6254 4821 9014 10449 9014 5186 0 10411-2576 10411-8462 0-2943-1656-5004-4489-5739 2208-551 3606-2428 3606-4930 0-4376-3716-7173-9528-7173-5850 0-9786 3311-9786 8682h5923zM515870 507389h-3347v-14715h-5997l-11403 14126v5777h11146v5738h6254v-5738h3347v-5188zm-9417 37h-6733l6733-8351v8351z"/></g></g></svg>