<svg xmlns="http://www.w3.org/2000/svg" xml:space="preserve" width="160" height="160" style="shape-rendering:geometricPrecision;text-rendering:geometricPrecision;image-rendering:optimizeQuality;fill-rule:evenodd;clip-rule:evenodd" viewBox="0 0 439871 439871"><defs><style>.str0,.str1{stroke:#040507;stroke-width:880.088}.str0{stroke:#0d0303}.fil1{fill:#fff}.fil2,.fil3{fill:#040507;fill-rule:nonzero}.fil3{fill:#bcbaba}</style></defs><g id="Слой_x0020_1"><g id="_2187874995568"><path style="fill:#fa3737" d="M0 0h439871v439871H0z"/><path class="fil1 str0" d="M310191 129665h60171v60173h-60171zM370362 129665h60171v60173h-60171zM189850 129665h60171v60173h-60171z"/><path class="fil1 str0" d="M250020 129665h60171v60173h-60171zM310191 189839h60171v60173h-60171zM370362 189839h60171v60173h-60171zM189850 189839h60171v60173h-60171z"/><path class="fil1 str0" d="M250020 189839h60171v60173h-60171zM310191 250012h60171v60173h-60171zM370362 250012h60171v60173h-60171zM189850 250012h60171v60173h-60171z"/><path class="fil1 str0" d="M250020 250012h60171v60173h-60171zM310191 310186h60171v60173h-60171zM370362 310186h60171v60173h-60171zM189850 310186h60171v60173h-60171z"/><path class="fil1 str0" d="M250020 310186h60171v60173h-60171zM310191 370359h60171v60173h-60171zM370362 370359h60171v60173h-60171zM189850 370359h60171v60173h-60171z"/><path class="fil1 str0" d="M250020 370359h60171v60173h-60171z"/><path class="fil1 str1" d="M9338 9338h421194v81979H9338z"/><path class="fil2" d="M169091 55936h-5204c-37 733-111 1466-404 2016-293 623-806 1026-1759 1026-954 0-1467-440-1760-1026-623-1210-696-4472-696-7625 0-3152 73-6415 696-7625 293-586 806-1026 1760-1026 953 0 1466 367 1759 990 293 550 367 1283 404 2016h5204c-109-2493-989-4545-2345-5828-1320-1246-2859-1870-5022-1870-2823 0-4546 1174-5719 2640-1833 2236-1943 5681-1943 10703s110 8467 1943 10704c1173 1466 2896 2639 5719 2639 2163 0 3702-624 5022-1870 1356-1283 2236-3372 2345-5864z"/><path id="1" class="fil2" d="M183608 63377v-4693h-6817v-6121h5864v-4692h-5864v-5901h6817v-4692h-12023v26099z"/><path id="2" class="fil2" d="M200911 63377V37278h-5205v10484h-4326V37278h-5206v26099h5206V52453h4326v10924z"/><path id="3" class="fil2" d="M217040 41970v-4692h-14003v4692h4399v21407h5205V41970z"/><path id="4" class="fil2" d="M233243 63377V37278h-7442c-5681 0-7258 2969-7258 7954 0 2786 441 5278 2970 6854l-3812 11291h5425l3189-10154h1722v10154h5206zm-5206-14846h-2198c-1980 0-2090-1796-2090-3299s110-3262 2090-3262h2198v6561z"/><path id="5" class="fil2" d="M251352 55056c0-5096-1686-8321-7332-8321h-2162v-4765h8211v-4692h-13417v26099h7368c5646 0 7332-3226 7332-8321zm-5206 0c0 1649-110 3628-2089 3628h-2199v-7258h2199c1979 0 2089 1980 2089 3630z"/><path id="6" class="fil2" d="M268581 45598c0-5094-1687-8320-7332-8320h-7368v26099h5206v-9458h2162c5645 0 7332-3225 7332-8321zm-5206 0c0 1650-110 3630-2090 3630h-2198v-7258h2198c1980 0 2090 1979 2090 3628z"/><path id="7" class="fil2" d="M285809 55056c0-5096-1686-8321-7331-8321h-2163v-9457h-5205v26099h7368c5645 0 7331-3226 7331-8321zm-5205 0c0 1649-73 3628-2273 3628h-2016v-7258h2016c2200 0 2273 1980 2273 3630z"/><path class="fil1 str0" d="M129679 129665h60171v60173h-60171zM9338 129665h60171v60173H9338z"/><path class="fil1 str0" d="M69509 129665h60171v60173H69509z"/><path class="fil2" d="M44334 149706h-4109c-408 3352-2856 4168-5974 4255v3643h4867v12415h5216v-20313z"/><path class="fil1 str0" d="M129679 189839h60171v60173h-60171zM9338 189839h60171v60173H9338z"/><path class="fil1 str0" d="M69509 189839h60171v60173H69509zM129679 250012h60171v60173h-60171zM9338 250012h60171v60173H9338z"/><path class="fil1 str0" d="M69509 250012h60171v60173H69509zM129679 310186h60171v60173h-60171zM9338 310186h60171v60173H9338z"/><path class="fil1 str0" d="M69509 310186h60171v60173H69509zM129679 370359h60171v60173h-60171zM9338 370359h60171v60173H9338z"/><path class="fil1 str0" d="M69509 370359h60171v60173H69509z"/><path class="fil1 str1" d="M310191 91317h60171v38348h-60171z"/><path class="fil2" d="M330396 112538h-1067c-10 248-48 496-163 668-95 152-248 247-505 247s-410-105-504-257c-210-323-239-1010-239-2249s29-1925 239-2249c94-153 247-257 504-257s410 95 505 247c115 162 153 410 163 658h1067c-19-601-201-1115-544-1430-304-285-676-438-1191-438-629 0-1039 248-1315 582-448 533-496 1277-496 2887 0 1611 48 2354 496 2888 276 333 686 581 1315 581 515 0 867-143 1173-428 342-315 543-839 562-1450z"/><path id="1" class="fil2" d="M334346 107555h-1162l-811 3135-819-3135h-1162l1486 4583-152 553c-153 534-363 696-953 696v953c1086 0 1476-201 1782-1154l1791-5631z"/><path id="2" class="fil2" d="M338097 112272c0-1420-515-2058-1744-2058h-638v-1707h2086v-952h-3154v6785h1706c1229 0 1744-649 1744-2068zm-1068 0c0 686-142 1106-715 1106h-599v-2202h599c573 0 715 409 715 1096z"/><path id="3" class="fil2" d="M342181 112272c0-1420-516-2058-1745-2058h-638v-1707h2087v-952h-3155v6785h1706c1229 0 1745-649 1745-2068zm-1068 0c0 686-143 1106-715 1106h-600v-2202h600c572 0 715 409 715 1096z"/><path id="4" class="fil2" d="M346206 110947c0-1610-37-2354-496-2887-276-334-685-582-1314-582-630 0-1039 248-1315 582-448 542-496 1277-496 2887 0 1611 48 2344 496 2888 276 333 685 581 1315 581 629 0 1038-248 1314-581 459-534 496-1277 496-2888zm-1067 0c0 1239-28 1926-229 2249-95 152-257 257-514 257-258 0-410-105-505-257-200-323-239-1010-239-2249s39-1925 239-2249c95-153 247-257 505-257 257 0 419 104 514 257 201 324 229 1010 229 2249z"/><path id="5" class="fil2" d="M349738 108517v-962h-3345v962h1134v5823h1067v-5823z"/><path id="6" class="fil2" d="m353650 114340-1648-6785h-1039l-1668 6785h1125l267-1344h1572l276 1344h1115zm-1591-2307h-1163l581-2840 582 2840z"/><path class="fil1 str1" d="M370362 91317h60171v38348h-60171z"/><path class="fil2" d="M382627 112396c0-629-76-1039-390-1364-96-94-229-180-372-247 143-57 257-143 352-238 315-324 391-696 391-1182 0-734-115-1077-428-1392-277-285-687-418-1316-418h-1697v6785h1688c638 0 1048-144 1334-429 324-334 438-715 438-1515zm-1068-76c0 791-238 1058-809 1058h-515v-2117h515c571 0 809 305 809 1059zm-18-2889c0 649-220 925-772 925h-534v-1839h534c552 0 772 247 772 914z"/><path id="1" class="fil2" d="M386796 110947c0-1610-37-2354-495-2887-277-334-686-582-1315-582-630 0-1039 248-1315 582-448 542-496 1277-496 2887 0 1611 48 2344 496 2888 276 333 685 581 1315 581 629 0 1038-248 1315-581 458-534 495-1277 495-2888zm-1067 0c0 1239-28 1926-229 2249-95 152-257 257-514 257-258 0-410-105-505-257-200-323-239-1010-239-2249s39-1925 239-2249c95-153 247-257 505-257 257 0 419 104 514 257 201 324 229 1010 229 2249z"/><path id="2" class="fil2" d="M390813 112538h-1067c-9 248-48 496-162 668-96 152-248 247-505 247-258 0-410-105-505-257-210-323-239-1010-239-2249s29-1925 239-2249c95-153 247-257 505-257 257 0 409 95 505 247 114 162 153 410 162 658h1067c-19-601-200-1115-543-1430-305-285-677-438-1191-438-630 0-1039 248-1315 582-448 533-496 1277-496 2887 0 1611 48 2354 496 2888 276 333 685 581 1315 581 514 0 867-143 1172-428 343-315 543-839 562-1450z"/><path id="3" class="fil2" d="m395298 114340-1734-3584 1553-3201h-1125l-1525 3249 1649 3536h1182zm-2850 0v-6785h-1067v6785h1067z"/><path id="4" class="fil2" d="M399068 109622c0-1420-516-2067-1745-2067h-1706v6785h1068v-2659h638c1229 0 1745-639 1745-2059zm-1069 0c0 686-142 1097-715 1097h-599v-2202h599c573 0 715 419 715 1105z"/><path id="5" class="fil2" d="M402475 114340v-962h-1782v-1974h1533v-962h-1533v-1925h1782v-962h-2851v6785z"/><path id="6" class="fil2" d="M406453 112538h-1067c-9 248-48 496-162 668-96 152-248 247-505 247-258 0-410-105-505-257-210-323-239-1010-239-2249s29-1925 239-2249c95-153 247-257 505-257 257 0 409 95 505 247 114 162 153 410 162 658h1067c-19-601-200-1115-543-1430-305-285-677-438-1191-438-630 0-1039 248-1315 582-448 533-496 1277-496 2887 0 1611 48 2354 496 2888 276 333 685 581 1315 581 514 0 867-143 1172-428 343-315 543-839 562-1450z"/><path id="7" class="fil2" d="M409880 114340v-962h-1782v-1974h1534v-962h-1534v-1925h1782v-962h-2850v6785z"/><path id="8" class="fil2" d="M413954 114340v-6785h-1068v2858h-1324v-2858h-1068v6785h1068v-2964h1324v2964z"/><path id="9" class="fil2" d="M418238 112272c0-1420-515-2058-1744-2058h-638v-2659h-1068v6785h1706c1229 0 1744-649 1744-2068zm-1068 0c0 686-142 1106-715 1106h-599v-2202h599c573 0 715 409 715 1096z"/><path id="10" class="fil2" d="M421693 114340v-962h-1782v-1974h1534v-962h-1534v-1925h1782v-962h-2850v6785z"/><path class="fil1 str1" d="M189850 91317h60171v38348h-60171z"/><path class="fil2" d="M210521 114340v-6785h-1068v3487c-220 29-381 48-600 48-458 0-677-172-677-801v-2734h-1067v2839c0 1201 467 1649 1572 1649 248 0 506-10 782-47v2344h1058z"/><path id="1" class="fil2" d="M214204 114340v-962h-1782v-1974h1534v-962h-1534v-1925h1782v-962h-2850v6785z"/><path id="2" class="fil2" d="M217792 108517v-962h-3345v962h1134v5823h1067v-5823z"/><path id="3" class="fil2" d="M221715 112396c0-629-77-1039-391-1364-96-94-229-180-372-247 143-57 258-143 352-238 315-324 391-696 391-1182 0-734-114-1077-428-1392-277-285-687-418-1316-418h-1696v6785h1687c638 0 1048-144 1334-429 324-334 439-715 439-1515zm-1068-76c0 791-238 1058-810 1058h-514v-2117h514c572 0 810 305 810 1059zm-19-2889c0 649-219 925-772 925h-533v-1839h533c553 0 772 247 772 914z"/><path id="4" class="fil2" d="M225293 114340v-962h-1782v-1974h1534v-962h-1534v-1925h1782v-962h-2850v6785z"/><path id="5" class="fil2" d="M229358 109622c0-1420-515-2067-1745-2067h-1706v6785h1068v-2659h638c1230 0 1745-639 1745-2059zm-1068 0c0 686-142 1097-715 1097h-600v-2202h600c573 0 715 419 715 1105z"/><path id="6" class="fil2" d="M232717 108517v-962h-2802v6785h1068v-5823z"/><path class="fil1 str1" d="M250020 91317h60171v38348h-60171z"/><path class="fil2" d="M269041 114340v-6785h-3469v6785h1067v-5823h1334v5823z"/><path id="1" class="fil2" d="m270723 114340 887-2783h599v2783h1068v-6785h-1715c-1240 0-1735 599-1735 2001 0 838 172 1439 791 1773l-1010 3011h1115zm172-4784c0-562 85-1039 657-1039h657v2077h-657c-572 0-657-476-657-1038z"/><path id="2" class="fil2" d="M277084 108517v-962h-3344v962h1133v5823h1067v-5823z"/><path id="3" class="fil2" d="M281007 114340v-6785h-1068v2858h-1324v-2858h-1068v6785h1068v-2964h1324v2964z"/><path id="4" class="fil2" d="m282784 114340 1525-4155v4155h1067v-6785h-953l-1515 4155v-4155h-1068v6785z"/><path id="5" class="fil2" d="M290232 115703v-2325h-572v-5823h-1068v5823h-1314v-5823h-1069v6785h3013v1363z"/><path id="6" class="fil2" d="m294562 114340-1647-6785h-1040l-1667 6785h1124l267-1344h1572l277 1344h1114zm-1590-2307h-1163l581-2840 582 2840z"/><path class="fil1 str1" d="M129679 91317h60171v38348h-60171z"/><path class="fil2" d="M153158 112538h-1067c-9 248-48 496-162 668-96 152-248 247-505 247-258 0-410-105-505-257-210-323-239-1010-239-2249s29-1925 239-2249c95-153 247-257 505-257 257 0 409 95 505 247 114 162 153 410 162 658h1067c-19-601-200-1115-543-1430-305-285-677-438-1191-438-630 0-1039 248-1315 582-448 533-496 1277-496 2887 0 1611 48 2354 496 2888 276 333 685 581 1315 581 514 0 867-143 1172-428 343-315 543-839 562-1450z"/><path id="1" class="fil2" d="M157186 109622c0-1420-516-2067-1745-2067h-1706v6785h1068v-2659h638c1229 0 1745-639 1745-2059zm-1069 0c0 686-142 1097-714 1097h-600v-2202h600c572 0 714 419 714 1105z"/><path id="2" class="fil2" d="M160593 114340v-962h-1782v-1974h1533v-962h-1533v-1925h1782v-962h-2850v6785z"/><path id="3" class="fil2" d="M165524 115626v-2248h-562v-5823h-3202v2534c0 1344-209 2392-563 3289h-438v2248h1010v-1286h2745v1286h1010zm-1629-2248h-1611c314-849 496-1802 496-3022v-1849h1115v4871z"/><path id="4" class="fil2" d="m169865 114340-1648-6785h-1039l-1667 6785h1124l267-1344h1572l276 1344h1115zm-1590-2307h-1163l581-2840 582 2840z"/><path class="fil1 str1" d="M9338 91317h60171v38348H9338z"/><path class="fil2" d="M20033 114340v-6785h-3469v6785h1067v-5823h1334v5823z"/><path id="1" class="fil2" d="M24307 110947c0-1610-38-2354-496-2887-276-334-686-582-1314-582-630 0-1039 248-1316 582-447 542-495 1277-495 2887 0 1611 48 2344 495 2888 277 333 686 581 1316 581 628 0 1038-248 1314-581 458-534 496-1277 496-2888zm-1067 0c0 1239-28 1926-229 2249-95 152-258 257-514 257-258 0-411-105-505-257-201-323-239-1010-239-2249s38-1925 239-2249c94-153 247-257 505-257 256 0 419 104 514 257 201 324 229 1010 229 2249z"/><path id="2" class="fil2" d="M28419 114340v-6785h-1068v2858h-1323v-2858h-1069v6785h1069v-2964h1323v2964z"/><path id="3" class="fil2" d="M32103 114340v-962h-1782v-1974h1534v-962h-1534v-1925h1782v-962h-2850v6785z"/><path id="4" class="fil2" d="M37034 115626v-2248h-562v-5823h-3202v2534c0 1344-209 2392-562 3289h-439v2248h1010v-1286h2745v1286h1010zm-1629-2248h-1610c313-849 495-1802 495-3022v-1849h1115v4871z"/><path id="5" class="fil2" d="M40395 114340v-962h-1782v-1974h1533v-962h-1533v-1925h1782v-962h-2850v6785z"/><path id="6" class="fil2" d="M44745 114340v-6785h-3174v3763c0 1926-428 2060-914 2060h-96v962h315c953 0 1725-286 1725-2897v-2926h1076v5823h1068z"/><path id="7" class="fil2" d="M49029 112272c0-1420-515-2058-1744-2058h-638v-2659h-1068v6785h1706c1229 0 1744-649 1744-2068zm-1068 0c0 686-142 1106-715 1106h-599v-2202h599c573 0 715 409 715 1096z"/><path id="8" class="fil2" d="M53094 114340v-6785h-1068v2858h-1324v-2858h-1068v6785h1068v-2964h1324v2964z"/><path id="9" class="fil2" d="m54871 114340 1525-4155v4155h1067v-6785h-952l-1515 4155v-4155h-1069v6785z"/><path id="10" class="fil2" d="m62205 114340-1735-3584 1554-3201h-1125l-1525 3249 1649 3536h1182zm-2850 0v-6785h-1068v6785h1068z"/><path class="fil1 str1" d="M69509 91317h60171v38348H69509z"/><path class="fil2" d="M88963 112396c0-629-77-1039-391-1364-96-94-229-180-372-247 143-57 258-143 352-238 315-324 391-696 391-1182 0-734-114-1077-428-1392-277-285-687-418-1316-418h-1696v6785h1687c638 0 1048-144 1334-429 324-334 439-715 439-1515zm-1068-76c0 791-238 1058-810 1058h-514v-2117h514c572 0 810 305 810 1059zm-19-2889c0 649-219 925-772 925h-533v-1839h533c553 0 772 247 772 914z"/><path id="1" class="fil2" d="M92569 108517v-962h-3344v962h1133v5823h1067v-5823z"/><path id="2" class="fil2" d="M96376 110947c0-1610-37-2354-495-2887-277-334-686-582-1315-582s-1039 248-1315 582c-448 542-496 1277-496 2887 0 1611 48 2344 496 2888 276 333 686 581 1315 581s1038-248 1315-581c458-534 495-1277 495-2888zm-1067 0c0 1239-28 1926-228 2249-96 152-258 257-515 257s-410-105-505-257c-200-323-239-1010-239-2249s39-1925 239-2249c95-153 248-257 505-257s419 104 515 257c200 324 228 1010 228 2249z"/><path id="3" class="fil2" d="M100480 109622c0-1420-516-2067-1745-2067h-1706v6785h1068v-2659h638c1229 0 1745-639 1745-2059zm-1068 0c0 686-143 1097-715 1097h-600v-2202h600c572 0 715 419 715 1105z"/><path id="4" class="fil2" d="M104497 114340v-6785h-1068v2858h-1324v-2858h-1068v6785h1068v-2964h1324v2964z"/><path id="5" class="fil2" d="m106274 114340 1525-4155v4155h1067v-6785h-953l-1515 4155v-4155h-1068v6785z"/><path id="6" class="fil2" d="m113607 114340-1734-3584 1553-3201h-1125l-1524 3249 1649 3536h1181zm-2850 0v-6785h-1067v6785h1067z"/><path class="fil2" d="M156995 156735c59-1953 1108-2973 3061-2973 1718 0 2855 875 2855 2215 0 1050-729 1807-1953 1982-466 58-1224 116-1777 116-320 0-437 0-787-29v3323c1079-29 1195-29 1486-29 2070 0 3294 961 3294 2564 0 1632-1253 2623-3265 2623-2564 0-3322-1282-3409-3498h-4722v525c0 4954 3819 7140 8278 7140 4108 0 8247-2040 8247-6703 0-2331-1312-3964-3556-4546 1749-437 2856-1924 2856-3905 0-3468-2943-5683-7547-5683-4635 0-7753 2623-7753 6878h4692zM107987 166060h-9530c1195-1195 2069-1602 3935-2797 2855-1807 5361-3265 5361-6995 0-3934-2913-6411-7489-6411-5596 0-8073 3322-8073 8334h4692c0-2010 583-4079 3148-4079 1690 0 2739 990 2739 2535 0 1691-1428 2536-2681 3380-4809 3207-8334 4664-8334 10230v58h16232v-4255zM228503 161660h-2652v-11657h-4750l-9034 11190v4576h8830v4546h4954v-4546h2652v-4109zm-7461 29h-5333l5333-6616v6616zM287391 150119h-12823l-1982 11366h4517c759-1078 1807-1545 3118-1545 2041 0 3323 1311 3323 3381 0 2011-1340 3293-3410 3293-1923 0-3205-962-3351-2535h-4867c292 4487 3439 6527 8102 6527 5217 0 8481-2855 8481-7460 0-4051-2565-6615-6645-6615-1573 0-2536 320-4110 1340l612-3584h9035v-4168zM348552 155365c-641-3526-3235-5508-7198-5508-5596 0-8772 3992-8772 10958 0 5274 2361 9821 8189 9821 4458 0 8043-2623 8043-7344 0-4022-2798-6819-6761-6819-2040 0-3380 612-4691 2127 320-2303 961-5071 3846-5071 1428 0 2214 525 2681 1836h4663zm-7723 4722c1923 0 3264 1369 3264 3292 0 1924-1341 3322-3206 3322-1836 0-3147-1398-3147-3322 0-1894 1311-3292 3089-3292zM408141 150119h-14776v4431h9734c-4051 4691-6441 9762-6761 15765h5332c175-6353 2099-11512 6471-16145v-4051zM35592 219061c-2302 670-3906 2156-3906 4867 0 3847 3177 6207 8394 6207 5129 0 8276-2419 8276-6295 0-2507-1311-4109-3876-4779 2011-612 3060-2070 3060-4226 0-4109-3934-5508-7431-5508-3439 0-7577 1544-7577 5624 0 2187 1195 3440 3060 4110zm4401-6207c2010 0 3176 873 3176 2360 0 1515-1195 2476-3089 2476s-3147-961-3147-2418 1224-2418 3060-2418zm-30 7926c2157 0 3497 1107 3497 2856s-1282 2827-3409 2827c-2099 0-3469-1107-3469-2856 0-1720 1341-2827 3381-2827zM154404 209769h-4108c-409 3352-2857 4167-5975 4255v3642h4867v12415h5216v-20312z"/><path id="1" class="fil2" d="M167193 209623c-6091 0-8364 5042-8364 10433 0 6440 3030 10316 8073 10316 5245 0 8305-3788 8305-10316 0-6499-3031-10433-8014-10433zm-146 3992c3060 0 3380 3614 3380 6238 0 2359-116 6556-3380 6556-3292 0-3439-3905-3439-6324 0-4429 1050-6470 3439-6470z"/><path class="fil2" d="M91609 224894c467 3468 3235 5537 7315 5537 5537 0 8685-3964 8656-10958 0-6207-3090-9850-8336-9850-4633 0-7897 3060-7897 7373 0 4080 2681 6820 6702 6820 2099 0 3294-554 4693-2157-233 2215-992 5129-3731 5129-1369 0-2360-553-2740-1894h-4662zm7635-11279c1836 0 3206 1400 3206 3294s-1370 3264-3206 3264-3147-1370-3147-3293c0-1894 1311-3265 3147-3265zM216689 209769h-4109c-408 3352-2856 4167-5974 4255v3642h4867v12415h5216v-20312z"/><path id="1" class="fil2" d="M233266 209769h-4109c-408 3352-2856 4167-5974 4255v3642h4867v12415h5216v-20312z"/><path class="fil2" d="M274818 209769h-4108c-409 3352-2857 4167-5975 4255v3642h4867v12415h5216v-20312z"/><path id="1" class="fil2" d="M295476 225826h-9530c1194-1195 2069-1602 3934-2797 2856-1807 5362-3265 5362-6995 0-3934-2913-6411-7490-6411-5595 0-8072 3322-8072 8334h4692c0-2010 583-4079 3148-4079 1690 0 2739 990 2739 2535 0 1691-1428 2536-2681 3380-4809 3207-8334 4664-8334 10230v58h16232v-4255z"/><path class="fil2" d="M334916 209769h-4109c-408 3352-2856 4167-5974 4255v3642h4867v12415h5216v-20312z"/><path id="1" class="fil2" d="M344412 216501c58-1953 1107-2973 3060-2973 1718 0 2855 875 2855 2215 0 1050-728 1807-1952 1982-467 58-1224 116-1778 116-320 0-437 0-787-29v3323c1079-29 1195-29 1486-29 2070 0 3294 961 3294 2564 0 1632-1253 2623-3265 2623-2564 0-3322-1282-3409-3498h-4722v525c0 4954 3819 7140 8278 7140 4108 0 8247-2040 8247-6703 0-2331-1312-3964-3556-4546 1749-437 2856-1924 2856-3905 0-3468-2943-5683-7547-5683-4635 0-7753 2623-7753 6878h4693z"/><path class="fil2" d="M395072 209769h-4108c-409 3352-2857 4167-5975 4255v3642h4867v12415h5216v-20312z"/><path id="1" class="fil2" d="M415905 221426h-2652v-11657h-4751l-9033 11190v4576h8830v4546h4954v-4546h2652v-4109zm-7461 29h-5333l5333-6616v6616z"/><path class="fil2" d="M34135 269647h-4108c-408 3352-2856 4167-5975 4255v3643h4867v12414h5216v-20312z"/><path id="1" class="fil2" d="M53685 269763H40862l-1981 11366h4517c758-1078 1807-1545 3118-1545 2041 0 3323 1312 3323 3381 0 2011-1341 3293-3410 3293-1924 0-3206-962-3351-2535h-4867c292 4488 3439 6527 8101 6527 5217 0 8481-2855 8481-7460 0-4050-2564-6615-6645-6615-1573 0-2535 320-4109 1341l612-3585h9034v-4168z"/><path class="fil2" d="M154827 269943h-4109c-408 3352-2856 4168-5974 4255v3643h4867v12415h5216v-20313z"/><path id="1" class="fil2" d="M174785 270059h-14775v4431h9734c-4052 4691-6441 9762-6761 15766h5332c175-6353 2099-11512 6470-16145v-4052z"/><path class="fil2" d="M94234 269943h-4109c-408 3352-2856 4168-5974 4255v3643h4867v12415h5216v-20313z"/><path id="1" class="fil2" d="M114775 275305c-641-3526-3236-5508-7199-5508-5595 0-8771 3993-8771 10958 0 5275 2360 9822 8189 9822 4458 0 8043-2624 8043-7344 0-4023-2798-6820-6761-6820-2040 0-3380 612-4692 2127 320-2302 962-5071 3847-5071 1428 0 2214 525 2681 1836h4663zm-7723 4722c1923 0 3263 1369 3263 3293 0 1923-1340 3322-3205 3322-1836 0-3147-1399-3147-3322 0-1894 1311-3293 3089-3293z"/><path class="fil2" d="M214503 269943h-4109c-408 3352-2856 4168-5975 4255v3643h4867v12415h5217v-20313z"/><path id="1" class="fil2" d="M222687 279531c-2302 671-3906 2156-3906 4867 0 3847 3177 6208 8394 6208 5129 0 8276-2419 8276-6296 0-2506-1311-4108-3876-4779 2011-612 3060-2069 3060-4226 0-4109-3933-5508-7431-5508-3439 0-7577 1544-7577 5625 0 2186 1195 3439 3060 4109zm4401-6207c2010 0 3176 874 3176 2361 0 1515-1195 2476-3089 2476s-3147-961-3147-2418c0-1458 1224-2419 3060-2419zm-29 7926c2156 0 3496 1108 3496 2856 0 1749-1282 2828-3409 2828-2099 0-3469-1108-3469-2857 0-1719 1341-2827 3382-2827z"/><path class="fil2" d="M274833 269943h-4109c-408 3352-2856 4168-5974 4255v3643h4867v12415h5216v-20313z"/><path id="1" class="fil2" d="M279462 285069c466 3467 3234 5537 7315 5537 5537 0 8684-3964 8655-10958 0-6208-3089-9851-8335-9851-4633 0-7897 3060-7897 7374 0 4079 2681 6819 6702 6819 2099 0 3294-554 4692-2157-232 2215-991 5130-3730 5130-1369 0-2361-554-2740-1894h-4662zm7635-11279c1836 0 3205 1399 3205 3293 0 1895-1369 3264-3205 3264s-3148-1369-3148-3293c0-1894 1312-3264 3148-3264z"/><path class="fil2" d="M340031 286001h-9530c1195-1195 2069-1603 3935-2798 2855-1807 5361-3264 5361-6995 0-3933-2913-6411-7489-6411-5596 0-8073 3322-8073 8335h4692c0-2011 583-4080 3148-4080 1690 0 2739 991 2739 2536 0 1690-1428 2535-2681 3380-4809 3206-8334 4663-8334 10229v59h16232v-4255z"/><path id="1" class="fil2" d="M348739 269797c-6091 0-8363 5042-8363 10434 0 6440 3030 10316 8072 10316 5246 0 8306-3789 8306-10316 0-6500-3031-10434-8015-10434zm-145 3993c3060 0 3380 3613 3380 6237 0 2360-116 6557-3380 6557-3293 0-3439-3905-3439-6324 0-4430 1049-6470 3439-6470z"/><path class="fil2" d="M402315 286001h-9531c1195-1195 2070-1603 3935-2798 2856-1807 5362-3264 5362-6995 0-3933-2914-6411-7490-6411-5595 0-8072 3322-8072 8335h4692c0-2011 583-4080 3147-4080 1691 0 2739 991 2739 2536 0 1690-1427 2535-2680 3380-4809 3206-8335 4663-8335 10229v59h16233v-4255z"/><path id="1" class="fil2" d="M414811 269943h-4108c-408 3352-2856 4168-5975 4255v3643h4867v12415h5216v-20313z"/><path class="fil2" d="M39251 345878h-9531c1195-1195 2070-1602 3935-2797 2856-1807 5362-3265 5362-6995 0-3934-2914-6411-7490-6411-5595 0-8072 3321-8072 8334h4692c0-2011 583-4079 3148-4079 1690 0 2739 990 2739 2535 0 1690-1428 2535-2681 3380-4809 3207-8335 4663-8335 10230v58h16233v-4255z"/><path id="1" class="fil2" d="M55828 345878h-9530c1195-1195 2069-1602 3935-2797 2855-1807 5361-3265 5361-6995 0-3934-2913-6411-7489-6411-5596 0-8073 3321-8073 8334h4692c0-2011 583-4079 3148-4079 1690 0 2739 990 2739 2535 0 1690-1428 2535-2681 3380-4809 3207-8334 4663-8334 10230v58h16232v-4255z"/><path class="fil2" d="M159505 346174h-9530c1194-1195 2069-1602 3934-2797 2856-1807 5362-3265 5362-6995 0-3934-2914-6411-7490-6411-5595 0-8072 3322-8072 8334h4692c0-2011 583-4079 3148-4079 1690 0 2739 990 2739 2535 0 1691-1428 2535-2681 3380-4809 3207-8334 4663-8334 10230v58h16232v-4255z"/><path id="1" class="fil2" d="M176257 341773h-2652v-11657h-4751l-9033 11191v4576h8830v4546h4954v-4546h2652v-4110zm-7461 30h-5333l5333-6616v6616z"/><path class="fil2" d="M99349 346174h-9530c1195-1195 2070-1602 3935-2797 2855-1807 5361-3265 5361-6995 0-3934-2913-6411-7489-6411-5596 0-8073 3322-8073 8334h4693c0-2011 583-4079 3147-4079 1691 0 2739 990 2739 2535 0 1691-1428 2535-2681 3380-4809 3207-8334 4663-8334 10230v58h16232v-4255z"/><path id="1" class="fil2" d="M104765 336848c58-1952 1107-2972 3060-2972 1718 0 2855 874 2855 2215 0 1049-728 1807-1952 1981-467 58-1224 117-1778 117-320 0-436 0-787-29v3323c1079-30 1195-30 1486-30 2070 0 3294 962 3294 2565 0 1631-1253 2622-3265 2622-2564 0-3322-1282-3409-3497h-4721v525c0 4954 3818 7140 8277 7140 4108 0 8247-2041 8247-6703 0-2332-1311-3964-3556-4547 1749-436 2857-1923 2857-3905 0-3467-2944-5682-7548-5682-4634 0-7753 2622-7753 6877h4693z"/><path class="fil2" d="M219763 346174h-9530c1195-1195 2070-1602 3935-2797 2855-1807 5362-3265 5362-6995 0-3934-2914-6411-7490-6411-5595 0-8073 3322-8073 8334h4693c0-2011 583-4079 3147-4079 1691 0 2739 990 2739 2535 0 1691-1428 2535-2681 3380-4808 3207-8334 4663-8334 10230v58h16232v-4255z"/><path id="1" class="fil2" d="M235233 330233h-12823l-1982 11366h4517c759-1079 1807-1545 3118-1545 2041 0 3323 1311 3323 3381 0 2011-1340 3293-3410 3293-1923 0-3205-962-3351-2536h-4867c292 4488 3439 6528 8102 6528 5217 0 8481-2856 8481-7461 0-4050-2565-6614-6645-6614-1573 0-2536 320-4110 1340l612-3585h9035v-4167z"/><path class="fil2" d="M279861 346086h-9531c1195-1195 2070-1603 3935-2798 2856-1807 5362-3264 5362-6995 0-3933-2914-6411-7490-6411-5595 0-8072 3322-8072 8335h4692c0-2011 583-4080 3148-4080 1690 0 2739 991 2739 2536 0 1690-1428 2535-2681 3380-4809 3206-8335 4663-8335 10229v59h16233v-4255z"/><path id="1" class="fil2" d="M296322 335390c-641-3526-3236-5508-7199-5508-5595 0-8772 3992-8772 10958 0 5275 2361 9822 8189 9822 4459 0 8043-2624 8043-7344 0-4023-2798-6820-6761-6820-2039 0-3380 612-4691 2127 320-2302 961-5071 3847-5071 1427 0 2214 525 2680 1836h4664zm-7724 4722c1924 0 3264 1369 3264 3293 0 1923-1340 3322-3206 3322-1836 0-3147-1399-3147-3322 0-1894 1311-3293 3089-3293z"/><path class="fil2" d="M340453 346174h-9531c1195-1195 2070-1602 3935-2797 2856-1807 5362-3265 5362-6995 0-3934-2914-6411-7490-6411-5595 0-8072 3322-8072 8334h4692c0-2011 583-4079 3148-4079 1690 0 2739 990 2739 2535 0 1691-1428 2535-2681 3380-4809 3207-8334 4663-8334 10230v58h16232v-4255z"/><path id="1" class="fil2" d="M356331 330233h-14776v4430h9734c-4051 4692-6441 9762-6761 15766h5332c175-6353 2099-11512 6471-16145v-4051z"/><path class="fil2" d="M400129 346174h-9530c1195-1195 2070-1602 3935-2797 2855-1807 5362-3265 5362-6995 0-3934-2914-6411-7490-6411-5595 0-8072 3322-8072 8334h4692c0-2011 583-4079 3147-4079 1691 0 2739 990 2739 2535 0 1691-1427 2535-2681 3380-4808 3207-8334 4663-8334 10230v58h16232v-4255z"/><path id="1" class="fil2" d="M404234 339705c-2303 670-3906 2156-3906 4867 0 3846 3176 6207 8393 6207 5129 0 8277-2419 8277-6296 0-2506-1312-4108-3876-4778 2010-612 3060-2070 3060-4226 0-4110-3934-5508-7431-5508-3440 0-7577 1544-7577 5624 0 2186 1195 3439 3060 4110zm4400-6208c2011 0 3177 874 3177 2361 0 1515-1195 2476-3090 2476-1894 0-3147-961-3147-2418 0-1458 1224-2419 3060-2419zm-29 7926c2156 0 3497 1108 3497 2857 0 1748-1283 2827-3410 2827-2099 0-3468-1108-3468-2856 0-1720 1340-2828 3381-2828z"/><path class="fil2" d="M39265 406051h-9530c1195-1195 2070-1602 3935-2797 2855-1807 5361-3265 5361-6995 0-3934-2913-6411-7489-6411-5596 0-8073 3322-8073 8334h4693c0-2010 583-4079 3147-4079 1691 0 2739 990 2739 2535 0 1691-1428 2535-2681 3380-4808 3207-8334 4664-8334 10230v58h16232v-4255z"/><path id="1" class="fil2" d="M39814 405119c466 3467 3234 5537 7315 5537 5537 0 8684-3964 8655-10958 0-6207-3089-9850-8335-9850-4633 0-7897 3060-7897 7373 0 4079 2681 6819 6702 6819 2099 0 3294-553 4692-2157-232 2216-991 5130-3730 5130-1369 0-2361-554-2740-1894h-4662zm7635-11279c1836 0 3205 1400 3205 3294s-1369 3264-3205 3264-3147-1370-3147-3293c0-1895 1311-3265 3147-3265z"/><path class="fil2" d="M150544 397022c58-1953 1108-2973 3060-2973 1719 0 2855 875 2855 2215 0 1050-728 1807-1952 1982-467 58-1224 116-1778 116-320 0-436 0-787-29v3323c1079-29 1195-29 1486-29 2070 0 3294 961 3294 2564 0 1631-1253 2623-3265 2623-2564 0-3321-1282-3409-3498h-4721v525c0 4954 3818 7140 8277 7140 4108 0 8247-2040 8247-6703 0-2331-1311-3964-3556-4547 1749-436 2857-1923 2857-3904 0-3468-2944-5683-7548-5683-4634 0-7753 2623-7753 6878h4693z"/><path id="1" class="fil2" d="M174202 390289h-4108c-408 3353-2856 4168-5975 4255v3643h4867v12415h5216v-20313z"/><path class="fil2" d="M88260 397022c58-1953 1108-2973 3060-2973 1719 0 2856 875 2856 2215 0 1050-729 1807-1953 1982-466 58-1224 116-1778 116-320 0-436 0-786-29v3323c1078-29 1195-29 1486-29 2070 0 3294 961 3294 2564 0 1631-1254 2623-3265 2623-2565 0-3322-1282-3409-3498h-4722v525c0 4954 3819 7140 8277 7140 4109 0 8247-2040 8247-6703 0-2331-1311-3964-3555-4547 1748-436 2856-1923 2856-3904 0-3468-2944-5683-7548-5683-4634 0-7752 2623-7752 6878h4692z"/><path id="1" class="fil2" d="M108130 390144c-6091 0-8363 5042-8363 10433 0 6440 3030 10316 8072 10316 5246 0 8306-3788 8306-10316 0-6499-3031-10433-8015-10433zm-145 3992c3060 0 3380 3614 3380 6238 0 2359-116 6556-3380 6556-3293 0-3439-3905-3439-6324 0-4429 1049-6470 3439-6470z"/><path class="fil3" d="M223899 390289h-4109c-408 3353-2856 4168-5974 4255v3643h4867v12415h5216v-20313zM288149 406347h-9530c1195-1195 2070-1602 3935-2797 2855-1807 5362-3265 5362-6995 0-3934-2914-6411-7490-6411-5595 0-8072 3322-8072 8334h4692c0-2010 583-4079 3147-4079 1691 0 2739 990 2739 2535 0 1691-1427 2536-2681 3380-4808 3207-8334 4664-8334 10230v58h16232v-4255zM337158 397022c58-1953 1108-2973 3060-2973 1719 0 2855 875 2855 2215 0 1050-728 1807-1952 1982-467 58-1224 116-1778 116-320 0-436 0-786-29v3323c1078-29 1194-29 1485-29 2070 0 3294 961 3294 2564 0 1631-1253 2623-3265 2623-2564 0-3321-1282-3409-3498h-4721v525c0 4954 3818 7140 8277 7140 4108 0 8247-2040 8247-6703 0-2331-1311-3964-3556-4547 1749-436 2857-1923 2857-3904 0-3468-2944-5683-7548-5683-4634 0-7752 2623-7752 6878h4692zM408665 401947h-2651v-11658h-4751l-9034 11191v4576h8830v4546h4955v-4546h2651v-4109zm-7460 29h-5334l5334-6616v6616z"/></g></g></svg>