<svg xmlns="http://www.w3.org/2000/svg" xml:space="preserve" width="160" height="160" style="shape-rendering:geometricPrecision;text-rendering:geometricPrecision;image-rendering:optimizeQuality;fill-rule:evenodd;clip-rule:evenodd" viewBox="0 0 820411 820411"><defs><style>.str0,.str1{stroke:#040507;stroke-width:1641.47}.str0{stroke:#0d0303}.fil1{fill:#fa3737}.fil0{fill:#fff}.fil2,.fil3,.fil4{fill:#040507;fill-rule:nonzero}.fil3,.fil4{fill:#b02828}.fil3{fill:#bcbaba}</style></defs><g id="Слой_x0020_1"><g id="_2187931174320"><path class="fil0" d="M0 0h820411v820411H0z"/><path class="fil1 str0" d="M578543 241841h112225v112230H578543zM690768 241841h112225v112230H690768z"/><path class="fil0 str0" d="M354092 241841h112225v112230H354092zM466318 241841h112225v112230H466318z"/><path class="fil1 str0" d="M578543 354072h112225v112230H578543zM690768 354072h112225v112230H690768z"/><path class="fil0 str0" d="M354092 354072h112225v112230H354092zM466318 354072h112225v112230H466318z"/><path class="fil1 str0" d="M578543 466302h112225v112230H578543zM690768 466302h112225v112230H690768z"/><path class="fil0 str0" d="M354092 466302h112225v112230H354092zM466318 466302h112225v112230H466318z"/><path class="fil1 str0" d="M578543 578533h112225v112230H578543zM690768 578533h112225v112230H690768z"/><path class="fil0 str0" d="M354092 578533h112225v112230H354092zM466318 578533h112225v112230H466318z"/><path class="fil1 str0" d="M578543 690763h112225v112230H578543zM690768 690763h112225v112230H690768z"/><path class="fil0 str0" d="M354092 690763h112225v112230H354092zM466318 690763h112225v112230H466318z"/><path class="fil0 str1" d="M17416 17416h785577v152901H17416z"/><path class="fil2" d="M315375 104327h-9707c-68 1367-206 2735-752 3760-547 1163-1504 1915-3281 1915-1779 0-2737-822-3283-1915-1163-2256-1299-8341-1299-14221s136-11965 1299-14221c546-1093 1504-1915 3283-1915 1777 0 2734 685 3281 1847 546 1026 684 2394 752 3760h9707c-203-4649-1845-8477-4374-10870-2461-2324-5333-3487-9366-3487-5266 0-8479 2188-10667 4923-3418 4170-3624 10597-3624 19963s206 15793 3624 19963c2188 2735 5401 4923 10667 4923 4033 0 6905-1163 9366-3487 2529-2393 4171-6290 4374-10938z"/><path id="1" class="fil2" d="M342451 118205v-8752h-12715V98037h10938v-8752h-10938V78279h12715v-8752h-22425v48678z"/><path id="2" class="fil2" d="M374722 118205V69527h-9707v19554h-8068V69527h-9710v48678h9710V97831h8068v20374z"/><path id="3" class="fil2" d="M404805 78279v-8752h-26116v8752h8203v39926h9708V78279z"/><path id="4" class="fil2" d="M435026 118205V69527h-13880c-10597 0-13537 5539-13537 14835 0 5198 822 9845 5539 12785l-7110 21058h10118l5948-18938h3213v18938h9709zm-9709-27690h-4101c-3692 0-3897-3349-3897-6153 0-2802 205-6083 3897-6083h4101v12236z"/><path id="5" class="fil2" d="M468801 102686c0-9504-3145-15520-13674-15520h-4033v-8887h15314v-8752h-25023v48678h13742c10529 0 13674-6015 13674-15519zm-9709 0c0 3075-206 6767-3897 6767h-4101V95916h4101c3691 0 3897 3692 3897 6770z"/><path id="6" class="fil2" d="M500935 85046c0-9502-3146-15519-13675-15519h-13742v48678h9709v-17639h4033c10529 0 13675-6016 13675-15520zm-9710 0c0 3078-205 6770-3897 6770h-4101V78279h4101c3692 0 3897 3692 3897 6767z"/><path id="7" class="fil2" d="M533068 102686c0-9504-3145-15520-13674-15520h-4033V69527h-9709v48678h13742c10529 0 13674-6015 13674-15519zm-9709 0c0 3075-136 6767-4238 6767h-3760V95916h3760c4102 0 4238 3692 4238 6770z"/><path class="fil0 str0" d="M241867 241841h112225v112230H241867zM17416 241841h112225v112230H17416zM129642 241841h112225v112230H129642z"/><path class="fil2" d="M82688 279220h-7663c-762 6252-5328 7773-11143 7936v6795h9077v23155h9729v-37886z"/><path class="fil0 str0" d="M241867 354072h112225v112230H241867zM17416 354072h112225v112230H17416zM129642 354072h112225v112230H129642zM241867 466302h112225v112230H241867zM17416 466302h112225v112230H17416zM129642 466302h112225v112230H129642zM241867 578533h112225v112230H241867zM17416 578533h112225v112230H17416zM129642 578533h112225v112230H129642zM241867 690763h112225v112230H241867zM17416 690763h112225v112230H17416zM129642 690763h112225v112230H129642z"/><path class="fil1 str1" d="M578543 170317h112225v71524H578543z"/><path class="fil2" d="M616227 209897h-1990c-18 463-89 924-303 1246-178 283-463 461-941 461-481 0-766-196-942-481-392-602-446-1883-446-4193 0-2312 54-3591 446-4196 176-285 461-479 942-479 478 0 763 177 941 462 214 302 285 763 303 1226h1990c-35-1120-374-2079-1013-2666-568-533-1262-818-2221-818-1175 0-1938 463-2454 1085-835 994-924 2382-924 5386s89 4389 924 5385c516 622 1279 1084 2454 1084 959 0 1616-266 2186-799 639-587 1013-1564 1048-2703z"/><path id="1" class="fil2" d="M623595 200602h-2168l-1512 5847-1527-5847h-2169l2774 8549-285 1031c-285 996-677 1298-1777 1298v1777c2025 0 2753-374 3323-2151l3341-10504z"/><path id="2" class="fil2" d="M630591 209401c0-2650-961-3840-3253-3840h-1190v-3182h3891v-1777h-5884v12655h3183c2292 0 3253-1209 3253-3856zm-1992 0c0 1279-265 2062-1333 2062h-1118v-4107h1118c1068 0 1333 764 1333 2045z"/><path id="3" class="fil2" d="M638208 209401c0-2650-962-3840-3254-3840h-1190v-3182h3891v-1777h-5883v12655h3182c2292 0 3254-1209 3254-3856zm-1993 0c0 1279-265 2062-1333 2062h-1118v-4107h1118c1068 0 1333 764 1333 2045z"/><path id="4" class="fil2" d="M645715 206930c0-3004-69-4392-924-5386-516-622-1279-1085-2452-1085-1174 0-1938 463-2453 1085-835 1012-924 2382-924 5386s89 4372 924 5385c515 622 1279 1084 2453 1084 1173 0 1936-462 2452-1084 855-996 924-2381 924-5385zm-1990 0c0 2310-52 3591-426 4193-179 285-481 481-960 481-480 0-765-196-941-481-374-602-446-1883-446-4193 0-2312 72-3591 446-4196 176-285 461-479 941-479 479 0 781 194 960 479 374 605 426 1884 426 4196z"/><path id="5" class="fil2" d="M652303 202397v-1795h-6239v1795h2115v10860h1990v-10860z"/><path id="6" class="fil2" d="m659599 213257-3074-12655h-1938l-3110 12655h2097l498-2506h2932l516 2506h2079zm-2967-4302h-2169l1084-5297 1085 5297z"/><path class="fil1 str1" d="M690768 170317h112225v71524H690768z"/><path class="fil2" d="M713645 209631c0-1172-143-1938-728-2542-179-177-427-338-694-462 267-106 481-267 657-443 587-605 729-1299 729-2206 0-1368-214-2008-799-2595-515-533-1281-781-2453-781h-3165v12655h3147c1190 0 1956-267 2489-800 604-622 817-1334 817-2826zm-1992-141c0 1475-444 1973-1510 1973h-959v-3948h959c1066 0 1510 570 1510 1975zm-35-5388c0 1209-409 1725-1440 1725h-994v-3430h994c1031 0 1440 461 1440 1705z"/><path id="1" class="fil2" d="M721421 206930c0-3004-70-4392-925-5386-515-622-1279-1085-2451-1085-1175 0-1938 463-2454 1085-835 1012-924 2382-924 5386s89 4372 924 5385c516 622 1279 1084 2454 1084 1172 0 1936-462 2451-1084 855-996 925-2381 925-5385zm-1991 0c0 2310-52 3591-426 4193-178 285-481 481-959 481-481 0-766-196-942-481-374-602-446-1883-446-4193 0-2312 72-3591 446-4196 176-285 461-479 942-479 478 0 781 194 959 479 374 605 426 1884 426 4196z"/><path id="2" class="fil2" d="M728913 209897h-1990c-18 463-90 924-303 1246-178 283-463 461-942 461-480 0-765-196-942-481-391-602-445-1883-445-4193 0-2312 54-3591 445-4196 177-285 462-479 942-479 479 0 764 177 942 462 213 302 285 763 303 1226h1990c-35-1120-374-2079-1014-2666-568-533-1261-818-2221-818-1174 0-1938 463-2453 1085-835 994-925 2382-925 5386s90 4389 925 5385c515 622 1279 1084 2453 1084 960 0 1617-266 2186-799 640-587 1014-1564 1049-2703z"/><path id="3" class="fil2" d="m737277 213257-3234-6684 2897-5971h-2099l-2843 6060 3076 6595h2203zm-5316 0v-12655h-1990v12655h1990z"/><path id="4" class="fil2" d="M744308 204459c0-2649-961-3857-3254-3857h-3182v12655h1992v-4959h1190c2293 0 3254-1192 3254-3839zm-1992 0c0 1279-266 2044-1333 2044h-1119v-4106h1119c1067 0 1333 781 1333 2062z"/><path id="5" class="fil2" d="M750663 213257v-1794h-3324v-3681h2861v-1794h-2861v-3591h3324v-1795h-5316v12655z"/><path id="6" class="fil2" d="M758083 209897h-1990c-17 463-89 924-302 1246-179 283-464 461-942 461-481 0-766-196-942-481-392-602-446-1883-446-4193 0-2312 54-3591 446-4196 176-285 461-479 942-479 478 0 763 177 942 462 213 302 285 763 302 1226h1990c-35-1120-374-2079-1013-2666-568-533-1262-818-2221-818-1175 0-1938 463-2454 1085-835 994-924 2382-924 5386s89 4389 924 5385c516 622 1279 1084 2454 1084 959 0 1616-266 2186-799 639-587 1013-1564 1048-2703z"/><path id="7" class="fil2" d="M764475 213257v-1794h-3324v-3681h2861v-1794h-2861v-3591h3324v-1795h-5316v12655z"/><path id="8" class="fil2" d="M772074 213257v-12655h-1993v5332h-2469v-5332h-1992v12655h1992v-5527h2469v5527z"/><path id="9" class="fil2" d="M780064 209401c0-2650-961-3840-3254-3840h-1190v-4959h-1992v12655h3182c2293 0 3254-1209 3254-3856zm-1992 0c0 1279-266 2062-1334 2062h-1118v-4107h1118c1068 0 1334 764 1334 2045z"/><path id="10" class="fil2" d="M786508 213257v-1794h-3324v-3681h2860v-1794h-2860v-3591h3324v-1795h-5316v12655z"/><path class="fil0 str1" d="M354092 170317h112225v71524H354092z"/><path class="fil2" d="M392646 213257v-12655h-1992v6504c-409 54-709 89-1118 89-855 0-1264-320-1264-1492v-5101h-1990v5297c0 2238 872 3075 2932 3075 463 0 944-19 1459-89v4372h1973z"/><path id="1" class="fil2" d="M399516 213257v-1794h-3323v-3681h2860v-1794h-2860v-3591h3323v-1795h-5315v12655z"/><path id="2" class="fil2" d="M406208 202397v-1795h-6238v1795h2114v10860h1991v-10860z"/><path id="3" class="fil2" d="M413524 209631c0-1172-143-1938-729-2542-178-177-426-338-693-462 267-106 480-267 657-443 587-605 728-1299 728-2206 0-1368-213-2008-798-2595-516-533-1281-781-2454-781h-3164v12655h3147c1190 0 1955-267 2488-800 605-622 818-1334 818-2826zm-1992-141c0 1475-444 1973-1510 1973h-959v-3948h959c1066 0 1510 570 1510 1975zm-35-5388c0 1209-409 1725-1440 1725h-994v-3430h994c1031 0 1440 461 1440 1705z"/><path id="4" class="fil2" d="M420199 213257v-1794h-3324v-3681h2860v-1794h-2860v-3591h3324v-1795h-5316v12655z"/><path id="5" class="fil2" d="M427780 204459c0-2649-961-3857-3254-3857h-3182v12655h1992v-4959h1190c2293 0 3254-1192 3254-3839zm-1992 0c0 1279-266 2044-1334 2044h-1118v-4106h1118c1068 0 1334 781 1334 2062z"/><path id="6" class="fil2" d="M434045 202397v-1795h-5226v12655h1992v-10860z"/><path class="fil0 str1" d="M466318 170317h112225v71524H466318z"/><path class="fil2" d="M501793 213257v-12655h-6471v12655h1991v-10860h2488v10860z"/><path id="1" class="fil2" d="m504931 213257 1653-5190h1118v5190h1992v-12655h-3199c-2312 0-3237 1118-3237 3733 0 1564 322 2684 1477 3306l-1884 5616h2080zm320-8922c0-1049 159-1938 1226-1938h1225v3874h-1225c-1067 0-1226-888-1226-1936z"/><path id="2" class="fil2" d="M516795 202397v-1795h-6238v1795h2114v10860h1990v-10860z"/><path id="3" class="fil2" d="M524111 213257v-12655h-1992v5332h-2469v-5332h-1992v12655h1992v-5527h2469v5527z"/><path id="4" class="fil2" d="m527425 213257 2845-7750v7750h1990v-12655h-1777l-2825 7750v-7750h-1993v12655z"/><path id="5" class="fil2" d="M541316 215800v-4337h-1065v-10861h-1993v10861h-2451v-10861h-1993v12655h5619v2543z"/><path id="6" class="fil2" d="m549394 213257-3074-12655h-1938l-3110 12655h2097l498-2506h2932l515 2506h2080zm-2967-4302h-2169l1084-5297 1085 5297z"/><path class="fil0 str1" d="M241867 170317h112225v71524H241867z"/><path class="fil2" d="M285658 209897h-1990c-18 463-89 924-302 1246-179 283-464 461-942 461-481 0-766-196-942-481-392-602-446-1883-446-4193 0-2312 54-3591 446-4196 176-285 461-479 942-479 478 0 763 177 942 462 213 302 284 763 302 1226h1990c-35-1120-374-2079-1013-2666-568-533-1262-818-2221-818-1175 0-1938 463-2454 1085-835 994-924 2382-924 5386s89 4389 924 5385c516 622 1279 1084 2454 1084 959 0 1616-266 2186-799 639-587 1013-1564 1048-2703z"/><path id="1" class="fil2" d="M293170 204459c0-2649-961-3857-3254-3857h-3182v12655h1992v-4959h1190c2293 0 3254-1192 3254-3839zm-1992 0c0 1279-266 2044-1334 2044h-1118v-4106h1118c1068 0 1334 781 1334 2062z"/><path id="2" class="fil2" d="M299524 213257v-1794h-3323v-3681h2860v-1794h-2860v-3591h3323v-1795h-5315v12655z"/><path id="3" class="fil2" d="M308722 215656v-4193h-1048v-10861h-5973v4727c0 2508-390 4461-1049 6134h-818v4193h1884v-2399h5120v2399h1884zm-3039-4193h-3004c586-1584 925-3361 925-5636v-3448h2079v9084z"/><path id="4" class="fil2" d="m316819 213257-3074-12655h-1938l-3110 12655h2097l498-2506h2932l515 2506h2080zm-2967-4302h-2169l1084-5297 1085 5297z"/><path class="fil0 str1" d="M17416 170317h112225v71524H17416z"/><path class="fil2" d="M37364 213257v-12655h-6471v12655h1991v-10860h2488v10860z"/><path id="1" class="fil2" d="M45335 206930c0-3004-70-4392-924-5386-516-622-1279-1085-2452-1085-1174 0-1938 463-2453 1085-836 1012-925 2382-925 5386s89 4372 925 5385c515 622 1279 1084 2453 1084 1173 0 1936-462 2452-1084 854-996 924-2381 924-5385zm-1990 0c0 2310-52 3591-427 4193-178 285-480 481-959 481-480 0-765-196-942-481-374-602-445-1883-445-4193 0-2312 71-3591 445-4196 177-285 462-479 942-479 479 0 781 194 959 479 375 605 427 1884 427 4196z"/><path id="2" class="fil2" d="M53006 213257v-12655h-1993v5332h-2469v-5332h-1992v12655h1992v-5527h2469v5527z"/><path id="3" class="fil2" d="M59876 213257v-1794h-3324v-3681h2861v-1794h-2861v-3591h3324v-1795h-5316v12655z"/><path id="4" class="fil2" d="M69073 215656v-4193h-1048v-10861h-5973v4727c0 2508-389 4461-1048 6134h-818v4193h1884v-2399h5120v2399h1883zm-3038-4193h-3004c585-1584 924-3361 924-5636v-3448h2080v9084z"/><path id="5" class="fil2" d="M75341 213257v-1794h-3324v-3681h2861v-1794h-2861v-3591h3324v-1795h-5316v12655z"/><path id="6" class="fil2" d="M83455 213257v-12655h-5920v7020c0 3591-799 3841-1706 3841h-178v1794h587c1777 0 3217-533 3217-5403v-5457h2008v10860h1992z"/><path id="7" class="fil2" d="M91445 209401c0-2650-961-3840-3253-3840h-1190v-4959h-1993v12655h3183c2292 0 3253-1209 3253-3856zm-1992 0c0 1279-265 2062-1333 2062h-1118v-4107h1118c1068 0 1333 764 1333 2045z"/><path id="8" class="fil2" d="M99027 213257v-12655h-1992v5332h-2469v-5332h-1993v12655h1993v-5527h2469v5527z"/><path id="9" class="fil2" d="m102341 213257 2845-7750v7750h1990v-12655h-1777l-2826 7750v-7750h-1992v12655z"/><path id="10" class="fil2" d="m116019 213257-3234-6684 2897-5971h-2099l-2843 6060 3076 6595h2203zm-5316 0v-12655h-1990v12655h1990z"/><path class="fil0 str1" d="M129642 170317h112225v71524H129642z"/><path class="fil2" d="M165926 209631c0-1172-143-1938-729-2542-178-177-426-338-694-462 268-106 481-267 657-443 588-605 729-1299 729-2206 0-1368-213-2008-798-2595-516-533-1281-781-2454-781h-3165v12655h3148c1190 0 1955-267 2488-800 605-622 818-1334 818-2826zm-1992-141c0 1475-444 1973-1510 1973h-959v-3948h959c1066 0 1510 570 1510 1975zm-35-5388c0 1209-409 1725-1440 1725h-994v-3430h994c1031 0 1440 461 1440 1705z"/><path id="1" class="fil2" d="M172653 202397v-1795h-6239v1795h2115v10860h1990v-10860z"/><path id="2" class="fil2" d="M179753 206930c0-3004-69-4392-924-5386-516-622-1279-1085-2452-1085-1174 0-1938 463-2453 1085-835 1012-924 2382-924 5386s89 4372 924 5385c515 622 1279 1084 2453 1084 1173 0 1936-462 2452-1084 855-996 924-2381 924-5385zm-1990 0c0 2310-52 3591-426 4193-179 285-481 481-960 481-480 0-765-196-941-481-374-602-446-1883-446-4193 0-2312 72-3591 446-4196 176-285 461-479 941-479 479 0 781 194 960 479 374 605 426 1884 426 4196z"/><path id="3" class="fil2" d="M187406 204459c0-2649-961-3857-3253-3857h-3183v12655h1993v-4959h1190c2292 0 3253-1192 3253-3839zm-1992 0c0 1279-265 2044-1333 2044h-1118v-4106h1118c1068 0 1333 781 1333 2062z"/><path id="4" class="fil2" d="M194899 213257v-12655h-1993v5332h-2469v-5332h-1992v12655h1992v-5527h2469v5527z"/><path id="5" class="fil2" d="m198213 213257 2845-7750v7750h1990v-12655h-1777l-2826 7750v-7750h-1992v12655z"/><path id="6" class="fil2" d="m211891 213257-3235-6684 2898-5971h-2099l-2843 6060 3075 6595h2204zm-5316 0v-12655h-1990v12655h1990z"/><path class="fil2" d="M292815 292329c109-3642 2066-5545 5707-5545 3206 0 5326 1632 5326 4132 0 1957-1358 3370-3641 3696-871 108-2283 217-3316 217-597 0-814 0-1467-55v6198c2011-54 2228-54 2771-54 3860 0 6143 1792 6143 4783 0 3042-2337 4891-6089 4891-4783 0-6196-2391-6358-6523h-8806v979c0 9240 7122 13317 15437 13317 7663 0 15382-3806 15382-12501 0-4349-2446-7394-6632-8481 3262-814 5328-3587 5328-7283 0-6467-5490-10599-14078-10599-8643 0-14459 4892-14459 12828h8752zM201408 309722h-17775c2229-2229 3861-2988 7339-5217 5326-3370 10000-6089 10000-13046 0-7338-5434-11958-13969-11958-10436 0-15056 6196-15056 15545h8752c0-3750 1087-7609 5870-7609 3153 0 5109 1847 5109 4729 0 3153-2663 4729-5000 6304-8969 5981-15545 8698-15545 19080v108h30275v-7936zM426185 301515h-4946v-21742h-8860l-16849 20872v8534h16469v8479h9240v-8479h4946v-7664zm-13915 54h-9947l9947-12339v12339zM536018 279990h-23917l-3695 21199h8424c1415-2011 3370-2882 5816-2882 3806 0 6198 2446 6198 6307 0 3750-2500 6141-6361 6141-3587 0-5979-1795-6250-4729h-9077c544 8370 6414 12175 15110 12175 9731 0 15818-5326 15818-13915 0-7554-4783-12337-12394-12337-2934 0-4728 597-7664 2500l1141-6686h16851v-7773zM650091 289774c-1195-6577-6035-10273-13426-10273-10436 0-16360 7446-16360 20438 0 9837 4403 18318 15273 18318 8316 0 15002-4893 15002-13698 0-7502-5219-12719-12611-12719-3804 0-6304 1142-8750 3967 597-4294 1793-9457 7175-9457 2662 0 4130 979 5000 3424h8697zm-14405 8807c3588 0 6088 2554 6088 6141s-2500 6196-5979 6196c-3425 0-5870-2609-5870-6196 0-3533 2445-6141 5761-6141zM761231 279990h-27559v8263h18155c-7556 8750-12013 18207-12610 29405h9946c325-11849 3914-21471 12068-30112v-7556zM66384 408575c-4295 1250-7285 4021-7285 9077 0 7174 5924 11577 15655 11577 9566 0 15436-4511 15436-11742 0-4674-2446-7662-7229-8912 3750-1142 5707-3861 5707-7882 0-7665-7337-10273-13860-10273-6415 0-14132 2879-14132 10490 0 4077 2229 6415 5708 7665zm8207-11578c3750 0 5924 1630 5924 4403 0 2826-2228 4618-5761 4618s-5870-1792-5870-4509c0-2719 2282-4512 5707-4512zm-54 14783c4021 0 6521 2066 6521 5327 0 3262-2392 5274-6359 5274-3914 0-6469-2066-6469-5328 0-3207 2500-5273 6307-5273zM287982 391243h-7663c-762 6252-5327 7773-11143 7936v6795h9077v23155h9729v-37886z"/><path id="1" class="fil2" d="M311834 390972c-11360 0-15598 9403-15598 19459 0 12012 5651 19240 15056 19240 9783 0 15490-7066 15490-19240 0-12122-5653-19459-14948-19459zm-271 7446c5707 0 6304 6740 6304 11633 0 4401-217 12229-6304 12229-6141 0-6415-7283-6415-11795 0-8261 1958-12067 6415-12067z"/><path class="fil2" d="M170862 419454c870 6467 6033 10328 13643 10328 10328 0 16198-7394 16144-20438 0-11578-5762-18372-15547-18372-8641 0-14728 5707-14728 13752 0 7608 5000 12719 12500 12719 3914 0 6143-1033 8751-4024-434 4132-1848 9568-6957 9568-2554 0-4403-1033-5110-3533h-8696zm14240-21036c3425 0 5979 2610 5979 6143s-2554 6087-5979 6087c-3424 0-5870-2554-5870-6141 0-3533 2446-6089 5870-6089zM404150 391243h-7663c-761 6252-5327 7773-11143 7936v6795h9077v23155h9729v-37886z"/><path id="1" class="fil2" d="M435069 391243h-7663c-762 6252-5328 7773-11144 7936v6795h9078v23155h9729v-37886z"/><path class="fil2" d="M512568 391243h-7662c-762 6252-5328 7773-11144 7936v6795h9078v23155h9728v-37886z"/><path id="1" class="fil2" d="M551097 421193h-17775c2229-2229 3861-2989 7339-5217 5326-3370 10000-6089 10000-13047 0-7337-5434-11957-13969-11957-10436 0-15056 6196-15056 15544h8752c0-3750 1087-7608 5870-7608 3153 0 5109 1847 5109 4729 0 3153-2663 4728-5000 6304-8969 5980-15545 8697-15545 19079v109h30275v-7936z"/><path class="fil2" d="M624657 391243h-7662c-762 6252-5328 7773-11144 7936v6795h9078v23155h9728v-37886z"/><path id="1" class="fil2" d="M642368 403799c109-3641 2066-5544 5708-5544 3205 0 5325 1632 5325 4132 0 1957-1358 3370-3641 3695-870 109-2283 217-3316 217-597 0-814 0-1467-54v6198c2012-55 2229-55 2771-55 3861 0 6144 1793 6144 4783 0 3043-2338 4892-6089 4892-4783 0-6196-2392-6359-6523h-8806v978c0 9241 7122 13318 15438 13318 7663 0 15382-3806 15382-12502 0-4349-2446-7393-6632-8480 3261-814 5327-3588 5327-7283 0-6467-5490-10599-14077-10599-8644 0-14459 4891-14459 12827h8751z"/><path class="fil2" d="M736857 391243h-7663c-762 6252-5328 7773-11144 7936v6795h9078v23155h9729v-37886z"/><path id="1" class="fil2" d="M775711 412985h-4946v-21742h-8860l-16849 20872v8535h16469v8479h9240v-8479h4946v-7665zm-13915 55h-9947l9947-12339v12339z"/><path class="fil2" d="M63666 502923h-7662c-762 6252-5328 7773-11144 7936v6795h9078v23155h9728v-37886z"/><path id="1" class="fil2" d="M100130 503140H76213l-3696 21200h8425c1414-2012 3370-2882 5816-2882 3806 0 6197 2446 6197 6306 0 3750-2500 6142-6360 6142-3587 0-5979-1795-6250-4729h-9078c545 8370 6415 12174 15111 12174 9730 0 15817-5325 15817-13914 0-7555-4782-12338-12393-12338-2934 0-4729 597-7665 2500l1142-6686h16851v-7773z"/><path class="fil2" d="M288771 503475h-7663c-762 6252-5328 7774-11144 7936v6795h9078v23155h9729v-37886z"/><path id="1" class="fil2" d="M325995 503692h-27558v8264h18155c-7556 8750-12013 18207-12610 29405h9945c326-11849 3915-21471 12068-30112v-7557z"/><path class="fil2" d="M175757 503475h-7662c-762 6252-5328 7774-11144 7936v6795h9078v23155h9728v-37886z"/><path id="1" class="fil2" d="M214069 513477c-1196-6577-6035-10273-13426-10273-10436 0-16361 7446-16361 20438 0 9837 4404 18318 15274 18318 8316 0 15002-4894 15002-13698 0-7502-5219-12719-12611-12719-3804 0-6304 1142-8750 3967 597-4294 1793-9457 7175-9457 2662 0 4129 979 5000 3424h8697zm-14405 8807c3587 0 6087 2554 6087 6141s-2500 6196-5978 6196c-3425 0-5870-2609-5870-6196 0-3533 2445-6141 5761-6141z"/><path class="fil2" d="M400073 503475h-7663c-762 6252-5328 7774-11144 7936v6795h9078v23155h9729v-37886z"/><path id="1" class="fil2" d="M415338 521359c-4295 1250-7285 4021-7285 9078 0 7174 5925 11577 15655 11577 9566 0 15436-4512 15436-11742 0-4675-2446-7663-7228-8913 3750-1141 5707-3860 5707-7882 0-7664-7337-10273-13861-10273-6414 0-14131 2880-14131 10490 0 4078 2228 6415 5707 7665zm8207-11577c3750 0 5925 1629 5925 4403 0 2825-2229 4618-5762 4618s-5870-1793-5870-4510c0-2719 2283-4511 5707-4511zm-54 14783c4021 0 6521 2065 6521 5327s-2391 5273-6358 5273c-3915 0-6469-2066-6469-5327 0-3208 2500-5273 6306-5273z"/><path class="fil2" d="M512596 503475h-7663c-762 6252-5328 7774-11144 7936v6795h9078v23155h9729v-37886z"/><path id="1" class="fil2" d="M521229 531687c870 6467 6033 10327 13644 10327 10327 0 16197-7393 16143-20438 0-11577-5762-18372-15546-18372-8642 0-14729 5707-14729 13752 0 7609 5000 12719 12500 12719 3915 0 6143-1033 8752-4023-434 4131-1849 9568-6958 9568-2554 0-4403-1033-5110-3533h-8696zm14241-21037c3424 0 5978 2610 5978 6143s-2554 6087-5978 6087c-3425 0-5871-2554-5871-6141 0-3533 2446-6089 5871-6089z"/><path class="fil2" d="M634198 533425h-17775c2228-2229 3860-2988 7339-5217 5325-3370 10000-6089 10000-13047 0-7337-5434-11957-13969-11957-10436 0-15056 6196-15056 15545h8752c0-3750 1087-7609 5870-7609 3153 0 5108 1847 5108 4729 0 3153-2662 4728-5000 6304-8969 5981-15544 8698-15544 19079v109h30275v-7936z"/><path id="1" class="fil2" d="M650440 503204c-11360 0-15599 9403-15599 19459 0 12012 5652 19241 15057 19241 9782 0 15490-7066 15490-19241 0-12122-5653-19459-14948-19459zm-271 7446c5707 0 6304 6740 6304 11634 0 4401-217 12228-6304 12228-6142 0-6415-7283-6415-11794 0-8262 1957-12068 6415-12068z"/><path class="fil2" d="M750364 533425h-17775c2229-2229 3861-2988 7339-5217 5326-3370 10000-6089 10000-13047 0-7337-5434-11957-13969-11957-10436 0-15056 6196-15056 15545h8752c0-3750 1087-7609 5870-7609 3153 0 5109 1847 5109 4729 0 3153-2663 4728-5000 6304-8969 5981-15545 8698-15545 19079v109h30275v-7936z"/><path id="1" class="fil2" d="M773672 503475h-7662c-762 6252-5328 7774-11144 7936v6795h9078v23155h9728v-37886z"/><path class="fil2" d="M73207 645103H55432c2229-2229 3860-2988 7339-5217 5326-3370 10000-6089 10000-13047 0-7337-5434-11957-13969-11957-10436 0-15056 6196-15056 15545h8752c0-3750 1087-7609 5870-7609 3153 0 5109 1847 5109 4729 0 3153-2663 4728-5000 6304-8969 5981-15545 8698-15545 19079v109h30275v-7936z"/><path id="1" class="fil2" d="M104126 645103H86351c2228-2229 3860-2988 7339-5217 5325-3370 10000-6089 10000-13047 0-7337-5434-11957-13969-11957-10436 0-15056 6196-15056 15545h8751c0-3750 1088-7609 5871-7609 3153 0 5108 1847 5108 4729 0 3153-2663 4728-5000 6304-8969 5981-15544 8698-15544 19079v109h30275v-7936z"/><path class="fil2" d="M297495 645655h-17775c2229-2228 3861-2988 7339-5217 5326-3370 10000-6089 10000-13046 0-7337-5434-11958-13969-11958-10436 0-15056 6196-15056 15545h8752c0-3750 1087-7609 5870-7609 3153 0 5109 1847 5109 4729 0 3153-2663 4729-5000 6304-8969 5981-15545 8698-15545 19080v108h30275v-7936z"/><path id="1" class="fil2" d="M328739 637448h-4945v-21742h-8861l-16849 20872v8535h16469v8478h9241v-8478h4945v-7665zm-13914 54h-9948l9948-12339v12339z"/><path class="fil2" d="M185298 645655h-17775c2228-2228 3860-2988 7339-5217 5326-3370 10000-6089 10000-13046 0-7337-5434-11958-13969-11958-10436 0-15056 6196-15056 15545h8752c0-3750 1087-7609 5870-7609 3153 0 5108 1847 5108 4729 0 3153-2662 4729-5000 6304-8969 5981-15544 8698-15544 19080v108h30275v-7936z"/><path id="1" class="fil2" d="M195399 628262c108-3642 2066-5545 5707-5545 3205 0 5326 1632 5326 4132 0 1957-1359 3370-3642 3696-870 108-2283 217-3316 217-597 0-814 0-1467-54v6197c2012-54 2229-54 2772-54 3860 0 6143 1793 6143 4783 0 3043-2337 4891-6089 4891-4783 0-6196-2391-6359-6523h-8806v979c0 9240 7122 13318 15438 13318 7663 0 15382-3807 15382-12502 0-4349-2446-7394-6632-8481 3262-814 5328-3587 5328-7283 0-6467-5491-10599-14078-10599-8643 0-14459 4892-14459 12828h8752z"/><path class="fil2" d="M409885 645655h-17776c2229-2228 3861-2988 7340-5217 5325-3370 10000-6089 10000-13046 0-7337-5435-11958-13969-11958-10436 0-15057 6196-15057 15545h8752c0-3750 1088-7609 5870-7609 3154 0 5109 1847 5109 4729 0 3153-2663 4729-5000 6304-8969 5981-15545 8698-15545 19080v108h30276v-7936z"/><path id="1" class="fil2" d="M438737 615923h-23916l-3696 21199h8424c1415-2011 3370-2881 5816-2881 3806 0 6198 2445 6198 6306 0 3750-2500 6141-6361 6141-3587 0-5978-1794-6250-4728h-9077c544 8370 6415 12174 15110 12174 9731 0 15818-5326 15818-13915 0-7554-4783-12337-12393-12337-2934 0-4729 597-7665 2500l1141-6686h16851v-7773z"/><path class="fil2" d="M521973 645491h-17775c2229-2229 3861-2989 7339-5217 5326-3371 10000-6090 10000-13047 0-7337-5434-11957-13969-11957-10436 0-15056 6195-15056 15544h8752c0-3750 1087-7608 5870-7608 3153 0 5109 1847 5109 4728 0 3153-2663 4729-5000 6305-8969 5980-15545 8697-15545 19079v109h30275v-7936z"/><path id="1" class="fil2" d="M552675 625543c-1196-6578-6035-10273-13426-10273-10436 0-16361 7445-16361 20438 0 9837 4403 18317 15273 18317 8316 0 15002-4893 15002-13697 0-7502-5219-12719-12610-12719-3804 0-6304 1141-8750 3967 597-4295 1793-9457 7174-9457 2663 0 4130 978 5000 3424h8698zm-14405 8806c3587 0 6087 2554 6087 6142 0 3587-2500 6195-5979 6195-3424 0-5870-2608-5870-6195 0-3533 2446-6142 5762-6142z"/><path class="fil2" d="M634985 645655h-17775c2228-2228 3860-2988 7339-5217 5325-3370 10000-6089 10000-13046 0-7337-5434-11958-13969-11958-10436 0-15056 6196-15056 15545h8752c0-3750 1087-7609 5870-7609 3153 0 5108 1847 5108 4729 0 3153-2663 4729-5000 6304-8969 5981-15544 8698-15544 19080v108h30275v-7936z"/><path id="1" class="fil2" d="M664599 615923h-27558v8263h18155c-7556 8750-12014 18208-12610 29405h9945c326-11848 3915-21471 12068-30112v-7556z"/><path class="fil2" d="M746289 645655h-17775c2228-2228 3860-2988 7339-5217 5325-3370 10000-6089 10000-13046 0-7337-5434-11958-13969-11958-10436 0-15056 6196-15056 15545h8751c0-3750 1088-7609 5871-7609 3153 0 5108 1847 5108 4729 0 3153-2663 4729-5000 6304-8969 5981-15544 8698-15544 19080v108h30275v-7936z"/><path id="1" class="fil2" d="M753944 633589c-4295 1250-7285 4022-7285 9078 0 7174 5924 11577 15655 11577 9566 0 15436-4511 15436-11742 0-4674-2446-7663-7229-8913 3750-1141 5708-3860 5708-7881 0-7665-7338-10274-13861-10274-6415 0-14132 2880-14132 10491 0 4077 2229 6414 5708 7664zm8207-11577c3750 0 5925 1630 5925 4403 0 2826-2229 4618-5762 4618s-5870-1792-5870-4509c0-2719 2283-4512 5707-4512zm-54 14783c4021 0 6521 2066 6521 5327 0 3262-2391 5274-6358 5274-3915 0-6469-2066-6469-5328 0-3207 2500-5273 6306-5273z"/><path class="fil2" d="M73234 757333H55459c2229-2228 3861-2988 7339-5217 5326-3370 10000-6089 10000-13046 0-7337-5434-11958-13969-11958-10436 0-15056 6196-15056 15545h8752c0-3750 1087-7609 5870-7609 3153 0 5109 1847 5109 4729 0 3153-2663 4729-5000 6304-8969 5981-15545 8698-15545 19080v108h30275v-7936z"/><path id="1" class="fil2" d="M74258 755595c870 6467 6032 10327 13643 10327 10327 0 16198-7393 16143-20438 0-11577-5761-18372-15546-18372-8642 0-14729 5708-14729 13752 0 7609 5000 12719 12500 12719 3915 0 6144-1033 8752-4023-434 4132-1849 9568-6957 9568-2555 0-4403-1033-5111-3533h-8695zm14240-21037c3424 0 5978 2611 5978 6144 0 3532-2554 6087-5978 6087-3425 0-5870-2555-5870-6142 0-3533 2445-6089 5870-6089z"/><path class="fil2" d="M280782 740492c109-3641 2066-5544 5708-5544 3205 0 5325 1631 5325 4131 0 1958-1358 3371-3641 3696-870 109-2283 217-3316 217-597 0-814 0-1467-54v6198c2011-55 2228-55 2771-55 3860 0 6143 1793 6143 4783 0 3043-2337 4892-6089 4892-4783 0-6195-2392-6358-6523h-8806v978c0 9240 7122 13318 15438 13318 7662 0 15381-3806 15381-12502 0-4349-2445-7393-6631-8481 3261-813 5327-3587 5327-7282 0-6467-5490-10599-14077-10599-8644 0-14460 4891-14460 12827h8752z"/><path id="1" class="fil2" d="M324908 727936h-7663c-761 6252-5327 7773-11143 7936v6795h9077v23155h9729v-37886z"/><path class="fil2" d="M164616 740492c108-3641 2066-5544 5707-5544 3206 0 5326 1631 5326 4131 0 1958-1359 3371-3642 3696-870 109-2283 217-3316 217-596 0-814 0-1467-54v6198c2012-55 2229-55 2772-55 3860 0 6143 1793 6143 4783 0 3043-2337 4892-6089 4892-4783 0-6196-2392-6359-6523h-8806v978c0 9240 7122 13318 15438 13318 7663 0 15382-3806 15382-12502 0-4349-2446-7393-6632-8481 3262-813 5328-3587 5328-7282 0-6467-5491-10599-14078-10599-8643 0-14459 4891-14459 12827h8752z"/><path id="1" class="fil2" d="M201676 727665c-11361 0-15599 9403-15599 19459 0 12012 5651 19240 15056 19240 9783 0 15490-7066 15490-19240 0-12122-5653-19459-14947-19459zm-271 7445c5707 0 6304 6741 6304 11634 0 4401-217 12229-6304 12229-6142 0-6415-7283-6415-11795 0-8261 1957-12068 6415-12068z"/><path class="fil3" d="M417598 727936h-7663c-762 6252-5328 7773-11143 7936v6795h9077v23155h9729v-37886zM537433 757886h-17775c2228-2229 3860-2989 7339-5217 5325-3371 10000-6090 10000-13047 0-7337-5434-11957-13969-11957-10436 0-15056 6195-15056 15544h8751c0-3750 1088-7608 5871-7608 3153 0 5108 1847 5108 4728 0 3154-2663 4729-5000 6305-8969 5980-15544 8697-15544 19079v109h30275v-7936z"/><path class="fil4" d="M628839 740492c109-3641 2066-5544 5708-5544 3205 0 5325 1631 5325 4131 0 1958-1358 3371-3641 3696-870 109-2283 217-3316 217-597 0-814 0-1467-54v6198c2012-55 2229-55 2771-55 3861 0 6144 1793 6144 4783 0 3043-2338 4892-6089 4892-4783 0-6196-2392-6359-6523h-8806v978c0 9240 7122 13318 15438 13318 7663 0 15382-3806 15382-12502 0-4349-2446-7393-6632-8481 3261-813 5327-3587 5327-7282 0-6467-5490-10599-14077-10599-8644 0-14459 4891-14459 12827h8751zM762209 749678h-4945v-21742h-8861l-16849 20872v8535h16469v8479h9241v-8479h4945v-7665zm-13914 55h-9948l9948-12340v12340z"/></g></g></svg>