<svg xmlns="http://www.w3.org/2000/svg" xml:space="preserve" width="160" height="160" style="shape-rendering:geometricPrecision;text-rendering:geometricPrecision;image-rendering:optimizeQuality;fill-rule:evenodd;clip-rule:evenodd" viewBox="0 0 1896644 1896644"><defs><style>.str0,.str1{stroke:#040507;stroke-width:3794.78}.str0{stroke:#0d0303}.fil2{fill:#fa3737}.fil0{fill:#fff}.fil1,.fil3{fill:#040507;fill-rule:nonzero}.fil3{fill:#bcbaba}</style></defs><g id="Слой_x0020_1"><g id="_2188115537424"><path class="fil0" d="M1-1h1896644v1896644H1z"/><path class="fil0 str0" d="M1337489 559093h259445v259455h-259445zM1596934 559093h259445v259455h-259445zM818599 559093h259445v259455H818599zM1078044 559093h259445v259455h-259445zM1337489 818551h259445v259455h-259445zM1596934 818551h259445v259455h-259445zM818599 818551h259445v259455H818599zM1078044 818551h259445v259455h-259445zM1337489 1078008h259445v259455h-259445zM1596934 1078008h259445v259455h-259445zM818599 1078008h259445v259455H818599zM1078044 1078008h259445v259455h-259445zM1337489 1337465h259445v259455h-259445zM1596934 1337465h259445v259455h-259445zM818599 1337465h259445v259455H818599zM1078044 1337465h259445v259455h-259445zM1337489 1596922h259445v259455h-259445zM1596934 1596922h259445v259455h-259445zM818599 1596922h259445v259455H818599zM1078044 1596922h259445v259455h-259445z"/><path class="fil0 str1" d="M40264 40262h1816115v353480H40264z"/><path class="fil1" d="M729091 241186h-22441c-157 3159-475 6322-1739 8692-1263 2688-3476 4426-7585 4426-4113 0-6326-1899-7589-4426-2688-5215-3002-19283-3002-32876 0-13594 314-27662 3002-32877 1263-2526 3476-4426 7589-4426 4109 0 6322 1581 7585 4270 1264 2370 1582 5533 1739 8691h22441c-470-10748-4265-19596-10112-25129-5690-5372-12329-8060-21653-8060-12173 0-19601 5058-24659 11379-7903 9642-8378 24498-8378 46152 0 21653 475 36509 8378 46151 5058 6321 12486 11380 24659 11380 9324 0 15963-2688 21653-8060 5847-5533 9642-14543 10112-25287z"/><path id="1" class="fil1" d="M791685 273269v-20233h-29395v-26393h25287v-20233h-25287v-25443h29395v-20233h-51841v112535z"/><path id="2" class="fil1" d="M866290 273269V160734h-22441v45206h-18652v-45206h-22446v112535h22446v-47101h18652v47101z"/><path id="3" class="fil1" d="M935838 180967v-20233h-60376v20233h18965v92302h22441v-92302z"/><path id="4" class="fil1" d="M1005703 273269V160734h-32088c-24498 0-31294 12805-31294 34296 0 12016 1899 22760 12804 29557l-16438 48682h23392l13749-43781h7429v43781h22446zm-22446-64014h-9481c-8534 0-9009-7742-9009-14225 0-6478 475-14063 9009-14063h9481v28288z"/><path id="5" class="fil1" d="M1083785 237391c0-21971-7272-35878-31613-35878h-9323v-20546h35403v-20233h-57849v112535h31769c24341 0 31613-13907 31613-35878zm-22446 0c0 7110-475 15645-9010 15645h-9480v-31294h9480c8535 0 9010 8535 9010 15649z"/><path id="6" class="fil1" d="M1158072 196612c0-21967-7271-35878-31613-35878h-31769v112535h22446v-40779h9323c24342 0 31613-13907 31613-35878zm-22446 0c0 7115-475 15649-9010 15649h-9480v-31294h9480c8535 0 9010 8535 9010 15645z"/><path id="7" class="fil1" d="M1232359 237391c0-21971-7271-35878-31612-35878h-9324v-40779h-22446v112535h31770c24341 0 31612-13907 31612-35878zm-22446 0c0 7110-313 15645-9798 15645h-8692v-31294h8692c9485 0 9798 8535 9798 15649z"/><path class="fil0 str0" d="M559154 559093h259445v259455H559154zM40264 559093h259445v259455H40264zM299709 559093h259445v259455H299709z"/><path class="fil1" d="M191159 645508h-17715c-1760 14453-12316 17970-25761 18346v15708h20986v53530h22490v-87584z"/><path class="fil0 str0" d="M559154 818551h259445v259455H559154zM40264 818551h259445v259455H40264zM299709 818551h259445v259455H299709zM559154 1078008h259445v259455H559154zM40264 1078008h259445v259455H40264zM299709 1078008h259445v259455H299709zM559154 1337465h259445v259455H559154zM40264 1337465h259445v259455H40264zM299709 1337465h259445v259455H299709zM559154 1596922h259445v259455H559154zM40264 1596922h259445v259455H40264zM299709 1596922h259445v259455H299709z"/><path class="fil2 str1" d="M1337489 393743h259445v165351h-259445z"/><path class="fil1" d="M1424608 485244h-4602c-40 1071-206 2137-699 2881-412 654-1070 1066-2177 1066-1111 0-1770-452-2177-1111-905-1393-1031-4355-1031-9695 0-5345 126-8302 1031-9700 407-659 1066-1107 2177-1107 1107 0 1765 408 2177 1067 493 699 659 1765 699 2836h4602c-81-2590-865-4808-2344-6165-1312-1232-2916-1891-5134-1891-2715 0-4480 1071-5672 2509-1931 2298-2137 5506-2137 12451 0 6944 206 10147 2137 12450 1192 1439 2957 2505 5672 2505 2218 0 3737-614 5054-1846 1478-1358 2343-3616 2424-6250z"/><path id="1" class="fil1" d="M1441642 463757h-5014l-3495 13517-3530-13517h-5013l6411 19762-659 2384c-658 2302-1563 3001-4108 3001v4109c4682 0 6366-865 7684-4973l7724-24283z"/><path id="2" class="fil1" d="M1457815 484097c0-6124-2222-8875-7522-8875h-2751v-7357h8996v-4108h-13602v29256h7357c5300 0 7522-2796 7522-8916zm-4605 0c0 2957-614 4767-3083 4767h-2585v-9494h2585c2469 0 3083 1766 3083 4727z"/><path id="3" class="fil1" d="M1475423 484097c0-6124-2223-8875-7523-8875h-2751v-7357h8997v-4108h-13602v29256h7356c5300 0 7523-2796 7523-8916zm-4606 0c0 2957-614 4767-3082 4767h-2586v-9494h2586c2468 0 3082 1766 3082 4727z"/><path id="4" class="fil1" d="M1492779 478385c0-6945-161-10153-2137-12451-1192-1438-2957-2509-5667-2509-2715 0-4481 1071-5672 2509-1931 2339-2137 5506-2137 12451 0 6944 206 10107 2137 12450 1191 1439 2957 2505 5672 2505 2710 0 4475-1066 5667-2505 1976-2303 2137-5506 2137-12450zm-4601 0c0 5340-121 8302-986 9695-412 659-1111 1111-2217 1111-1111 0-1770-452-2178-1111-864-1393-1030-4355-1030-9695 0-5345 166-8302 1030-9700 408-659 1067-1107 2178-1107 1106 0 1805 448 2217 1107 865 1398 986 4355 986 9700z"/><path id="5" class="fil1" d="M1508008 467905v-4148h-14422v4148h4888v25108h4601v-25108z"/><path id="6" class="fil1" d="m1524876 493013-7106-29256h-4480l-7191 29256h4848l1151-5793h6779l1192 5793h4807zm-6859-9946h-5014l2505-12245 2509 12245z"/><path class="fil2 str1" d="M1596934 393743h259445v165351h-259445z"/><path class="fil1" d="M1649821 484630c0-2710-331-4480-1684-5878-412-408-986-779-1604-1066 618-247 1111-619 1519-1026 1357-1398 1684-3002 1684-5099 0-3163-492-4641-1846-5999-1191-1232-2961-1805-5672-1805h-7316v29256h7276c2751 0 4521-619 5753-1851 1398-1438 1890-3082 1890-6532zm-4605-327c0 3410-1026 4561-3490 4561h-2218v-9126h2218c2464 0 3490 1317 3490 4565zm-81-12455c0 2796-945 3987-3329 3987h-2298v-7930h2298c2384 0 3329 1067 3329 3943z"/><path id="1" class="fil1" d="M1667796 478385c0-6945-161-10153-2137-12451-1192-1438-2957-2509-5667-2509-2715 0-4481 1071-5672 2509-1931 2339-2137 5506-2137 12451 0 6944 206 10107 2137 12450 1191 1439 2957 2505 5672 2505 2710 0 4475-1066 5667-2505 1976-2303 2137-5506 2137-12450zm-4601 0c0 5340-121 8302-986 9695-412 659-1111 1111-2217 1111-1111 0-1770-452-2178-1111-864-1393-1030-4355-1030-9695 0-5345 166-8302 1030-9700 408-659 1067-1107 2178-1107 1106 0 1805 448 2217 1107 865 1398 986 4355 986 9700z"/><path id="2" class="fil1" d="M1685117 485244h-4601c-41 1071-206 2137-699 2881-412 654-1071 1066-2178 1066-1111 0-1769-452-2177-1111-905-1393-1030-4355-1030-9695 0-5345 125-8302 1030-9700 408-659 1066-1107 2177-1107 1107 0 1766 408 2178 1067 493 699 658 1765 699 2836h4601c-81-2590-865-4808-2343-6165-1313-1232-2917-1891-5135-1891-2715 0-4480 1071-5672 2509-1931 2298-2137 5506-2137 12451 0 6944 206 10147 2137 12450 1192 1439 2957 2505 5672 2505 2218 0 3737-614 5054-1846 1479-1358 2343-3616 2424-6250z"/><path id="3" class="fil1" d="m1704454 493013-7478-15453 6698-13803h-4852l-6572 14009 7110 15247h5094zm-12290 0v-29256h-4601v29256h4601z"/><path id="4" class="fil1" d="M1720708 472672c0-6124-2222-8915-7522-8915h-7357v29256h4606v-11465h2751c5300 0 7522-2756 7522-8876zm-4606 0c0 2957-613 4727-3082 4727h-2585v-9494h2585c2469 0 3082 1806 3082 4767z"/><path id="5" class="fil1" d="M1735399 493013v-4149h-7684v-8508h6613v-4149h-6613v-8302h7684v-4148h-12289v29256z"/><path id="6" class="fil1" d="M1752554 485244h-4601c-41 1071-206 2137-699 2881-412 654-1071 1066-2178 1066-1111 0-1769-452-2177-1111-905-1393-1031-4355-1031-9695 0-5345 126-8302 1031-9700 408-659 1066-1107 2177-1107 1107 0 1766 408 2178 1067 493 699 658 1765 699 2836h4601c-81-2590-865-4808-2343-6165-1313-1232-2917-1891-5135-1891-2715 0-4480 1071-5672 2509-1931 2298-2137 5506-2137 12451 0 6944 206 10147 2137 12450 1192 1439 2957 2505 5672 2505 2218 0 3737-614 5054-1846 1479-1358 2343-3616 2424-6250z"/><path id="7" class="fil1" d="M1767330 493013v-4149h-7684v-8508h6613v-4149h-6613v-8302h7684v-4148h-12290v29256z"/><path id="8" class="fil1" d="M1784897 493013v-29256h-4606v12325h-5708v-12325h-4605v29256h4605v-12778h5708v12778z"/><path id="9" class="fil1" d="M1803369 484097c0-6124-2222-8875-7522-8875h-2751v-11465h-4606v29256h7357c5300 0 7522-2796 7522-8916zm-4606 0c0 2957-613 4767-3082 4767h-2585v-9494h2585c2469 0 3082 1766 3082 4727z"/><path id="10" class="fil1" d="M1818266 493013v-4149h-7684v-8508h6613v-4149h-6613v-8302h7684v-4148h-12289v29256z"/><path class="fil2 str1" d="M818599 393743h259445v165351H818599z"/><path class="fil1" d="M907728 493013v-29256h-4605v15035c-946 126-1640 206-2585 206-1976 0-2922-739-2922-3449v-11792h-4601v12244c0 5175 2016 7110 6779 7110 1071 0 2182-44 3374-206v10108h4560z"/><path id="1" class="fil1" d="M923611 493013v-4149h-7684v-8508h6613v-4149h-6613v-8302h7684v-4148h-12289v29256z"/><path id="2" class="fil1" d="M939081 467905v-4148h-14422v4148h4888v25108h4602v-25108z"/><path id="3" class="fil1" d="M955994 484630c0-2710-331-4480-1684-5878-412-408-986-779-1604-1066 618-247 1111-619 1519-1026 1357-1398 1684-3002 1684-5099 0-3163-493-4641-1846-5999-1191-1232-2961-1805-5672-1805h-7316v29256h7276c2751 0 4521-619 5753-1851 1397-1438 1890-3082 1890-6532zm-4605-327c0 3410-1026 4561-3491 4561h-2217v-9126h2217c2465 0 3491 1317 3491 4565zm-81-12455c0 2796-945 3987-3329 3987h-2298v-7930h2298c2384 0 3329 1067 3329 3943z"/><path id="4" class="fil1" d="M971424 493013v-4149h-7683v-8508h6613v-4149h-6613v-8302h7683v-4148h-12289v29256z"/><path id="5" class="fil1" d="M988951 472672c0-6124-2222-8915-7522-8915h-7357v29256h4606v-11465h2751c5300 0 7522-2756 7522-8876zm-4606 0c0 2957-613 4727-3082 4727h-2585v-9494h2585c2469 0 3082 1806 3082 4767z"/><path id="6" class="fil1" d="M1003436 467905v-4148h-12083v29256h4605v-25108z"/><path class="fil2 str1" d="M1078044 393743h259445v165351h-259445z"/><path class="fil1" d="M1160057 493013v-29256h-14960v29256h4602v-25108h5752v25108z"/><path id="1" class="fil1" d="m1167310 493013 3822-11998h2585v11998h4606v-29256h-7397c-5345 0-7482 2585-7482 8629 0 3615 744 6205 3414 7643l-4355 12984h4807zm740-20627c0-2424 367-4481 2836-4481h2831v8956h-2831c-2469 0-2836-2052-2836-4475z"/><path id="2" class="fil1" d="M1194739 467905v-4148h-14422v4148h4888v25108h4601v-25108z"/><path id="3" class="fil1" d="M1211652 493013v-29256h-4606v12325h-5708v-12325h-4606v29256h4606v-12778h5708v12778z"/><path id="4" class="fil1" d="m1219313 493013 6577-17917v17917h4601v-29256h-4108l-6532 17916v-17916h-4606v29256z"/><path id="5" class="fil1" d="M1251427 498891v-10027h-2464v-25107h-4605v25107h-5668v-25107h-4606v29256h12989v5878z"/><path id="6" class="fil1" d="m1270101 493013-7106-29256h-4480l-7191 29256h4848l1151-5793h6779l1192 5793h4807zm-6859-9946h-5014l2505-12245 2509 12245z"/><path class="fil2 str1" d="M559154 393743h259445v165351H559154z"/><path class="fil1" d="M660391 485244h-4601c-41 1071-206 2137-699 2881-412 654-1071 1066-2178 1066-1111 0-1769-452-2177-1111-905-1393-1030-4355-1030-9695 0-5345 125-8302 1030-9700 408-659 1066-1107 2177-1107 1107 0 1766 408 2178 1067 493 699 658 1765 699 2836h4601c-81-2590-865-4808-2343-6165-1313-1232-2917-1891-5135-1891-2715 0-4480 1071-5672 2509-1931 2298-2137 5506-2137 12451 0 6944 206 10147 2137 12450 1192 1439 2957 2505 5672 2505 2218 0 3737-614 5054-1846 1479-1358 2343-3616 2424-6250z"/><path id="1" class="fil1" d="M677756 472672c0-6124-2222-8915-7522-8915h-7357v29256h4606v-11465h2751c5300 0 7522-2756 7522-8876zm-4605 0c0 2957-614 4727-3083 4727h-2585v-9494h2585c2469 0 3083 1806 3083 4767z"/><path id="2" class="fil1" d="M692447 493013v-4149h-7683v-8508h6612v-4149h-6612v-8302h7683v-4148h-12289v29256z"/><path id="3" class="fil1" d="M713711 498559v-9695h-2424v-25107h-13808v10927c0 5797-901 10314-2424 14180h-1891v9695h4355v-5546h11837v5546h4355zm-7025-9695h-6945c1353-3660 2137-7769 2137-13029v-7970h4808v20999z"/><path id="4" class="fil1" d="m732429 493013-7106-29256h-4480l-7191 29256h4848l1151-5793h6779l1192 5793h4807zm-6859-9946h-5014l2505-12245 2509 12245z"/><path class="fil2 str1" d="M40264 393743h259445v165351H40264z"/><path class="fil1" d="M86379 493013v-29256H71420v29256h4601v-25108h5753v25108z"/><path id="1" class="fil1" d="M104807 478385c0-6945-161-10153-2137-12451-1192-1438-2957-2509-5668-2509-2715 0-4480 1071-5672 2509-1931 2339-2137 5506-2137 12451 0 6944 206 10107 2137 12450 1192 1439 2957 2505 5672 2505 2711 0 4476-1066 5668-2505 1976-2303 2137-5506 2137-12450zm-4601 0c0 5340-121 8302-986 9695-412 659-1111 1111-2218 1111-1111 0-1770-452-2177-1111-865-1393-1031-4355-1031-9695 0-5345 166-8302 1031-9700 407-659 1066-1107 2177-1107 1107 0 1806 448 2218 1107 865 1398 986 4355 986 9700z"/><path id="2" class="fil1" d="M122540 493013v-29256h-4606v12325h-5708v-12325h-4606v29256h4606v-12778h5708v12778z"/><path id="3" class="fil1" d="M138422 493013v-4149h-7683v-8508h6612v-4149h-6612v-8302h7683v-4148h-12289v29256z"/><path id="4" class="fil1" d="M159686 498559v-9695h-2424v-25107h-13808v10927c0 5797-901 10314-2424 14180h-1891v9695h4355v-5546h11837v5546h4355zm-7025-9695h-6945c1353-3660 2137-7769 2137-13029v-7970h4808v20999z"/><path id="5" class="fil1" d="M174175 493013v-4149h-7684v-8508h6613v-4149h-6613v-8302h7684v-4148h-12290v29256z"/><path id="6" class="fil1" d="M192934 493013v-29256h-13688v16227c0 8302-1845 8880-3942 8880h-412v4149h1357c4109 0 7437-1232 7437-12491v-12617h4642v25108h4606z"/><path id="7" class="fil1" d="M211406 484097c0-6124-2222-8875-7523-8875h-2750v-11465h-4606v29256h7356c5301 0 7523-2796 7523-8916zm-4606 0c0 2957-614 4767-3082 4767h-2585v-9494h2585c2468 0 3082 1766 3082 4727z"/><path id="8" class="fil1" d="M228933 493013v-29256h-4606v12325h-5708v-12325h-4606v29256h4606v-12778h5708v12778z"/><path id="9" class="fil1" d="m236594 493013 6577-17917v17917h4601v-29256h-4108l-6533 17916v-17916h-4605v29256z"/><path id="10" class="fil1" d="m268215 493013-7477-15453 6698-13803h-4852l-6573 14009 7110 15247h5094zm-12289 0v-29256h-4601v29256h4601z"/><path class="fil2 str1" d="M299709 393743h259445v165351H299709z"/><path class="fil1" d="M383591 484630c0-2710-331-4480-1684-5878-412-408-986-779-1604-1066 618-247 1111-619 1519-1026 1357-1398 1684-3002 1684-5099 0-3163-493-4641-1846-5999-1191-1232-2961-1805-5672-1805h-7316v29256h7276c2751 0 4521-619 5753-1851 1397-1438 1890-3082 1890-6532zm-4605-327c0 3410-1026 4561-3491 4561h-2217v-9126h2217c2465 0 3491 1317 3491 4565zm-81-12455c0 2796-945 3987-3329 3987h-2298v-7930h2298c2384 0 3329 1067 3329 3943z"/><path id="1" class="fil1" d="M399142 467905v-4148h-14422v4148h4888v25108h4601v-25108z"/><path id="2" class="fil1" d="M415558 478385c0-6945-161-10153-2137-12451-1192-1438-2957-2509-5668-2509-2715 0-4480 1071-5672 2509-1931 2339-2137 5506-2137 12451 0 6944 206 10107 2137 12450 1192 1439 2957 2505 5672 2505 2711 0 4476-1066 5668-2505 1976-2303 2137-5506 2137-12450zm-4601 0c0 5340-121 8302-986 9695-412 659-1111 1111-2218 1111-1111 0-1769-452-2177-1111-865-1393-1031-4355-1031-9695 0-5345 166-8302 1031-9700 408-659 1066-1107 2177-1107 1107 0 1806 448 2218 1107 865 1398 986 4355 986 9700z"/><path id="3" class="fil1" d="M433251 472672c0-6124-2223-8915-7523-8915h-7356v29256h4605v-11465h2751c5300 0 7523-2756 7523-8876zm-4606 0c0 2957-614 4727-3083 4727h-2585v-9494h2585c2469 0 3083 1806 3083 4767z"/><path id="4" class="fil1" d="M450571 493013v-29256h-4605v12325h-5708v-12325h-4606v29256h4606v-12778h5708v12778z"/><path id="5" class="fil1" d="m458232 493013 6577-17917v17917h4602v-29256h-4109l-6532 17916v-17916h-4606v29256z"/><path id="6" class="fil1" d="m489854 493013-7477-15453 6698-13803h-4853l-6572 14009 7110 15247h5094zm-12289 0v-29256h-4601v29256h4601z"/><path class="fil1" d="M676937 675812c250-8418 4776-12818 13194-12818 7410 0 12312 3772 12312 9552 0 4525-3141 7791-8419 8544-2011 251-5277 502-7665 502-1380 0-1882 0-3392-126v14328c4651-125 5152-125 6407-125 8924 0 14202 4144 14202 11057 0 7034-5403 11308-14077 11308-11057 0-14323-5529-14700-15081h-20358v2263c0 21362 16465 30788 35690 30788 17715 0 35560-8799 35560-28902 0-10054-5654-17092-15332-19605 7541-1882 12317-8293 12317-16837 0-14951-12693-24503-32545-24503-19982 0-33427 11308-33427 29655h20233zM465620 716022h-41093c5153-5152 8925-6908 16967-12060 12312-7792 23118-14077 23118-30162 0-16962-12562-27643-32293-27643-24127 0-34808 14324-34808 35936h20233c0-8669 2514-17589 13571-17589 7289 0 11810 4270 11810 10932 0 7289-6156 10932-11559 14574-20735 13826-35936 20107-35936 44108v251h69990v-18347zM985264 697048h-11434v-50264h-20484l-38951 48253v19731h38073v19601h21362v-19601h11434v-17720zm-32168 126h-22998l22998-28526v28526zM1239178 647286h-55291l-8543 49010h19475c3271-4651 7791-6662 13446-6662 8799 0 14327 5654 14327 14578 0 8670-5779 14198-14704 14198-8293 0-13821-4148-14449-10931h-20985c1259 19350 14829 28145 34932 28145 22496 0 36568-12312 36568-32169 0-17464-11057-28521-28651-28521-6783 0-10932 1380-17719 5779l2638-15456h38956v-17971zM1502896 669907c-2765-15206-13952-23750-31040-23750-24126 0-37822 17213-37822 47249 0 22742 10179 42347 35309 42347 19225 0 34682-11312 34682-31666 0-17343-12066-29404-29153-29404-8795 0-14575 2639-20229 9171 1380-9928 4144-21864 16586-21864 6156 0 9548 2263 11559 7917h20108zm-33302 20358c8293 0 14072 5905 14072 14198s-5779 14324-13821 14324c-7917 0-13571-6031-13571-14324 0-8167 5654-14198 13320-14198zM1759830 647286h-63709v19104h41971c-17469 20228-27774 42092-29153 67979h22992c753-27392 9050-49637 27899-69614v-17469zM153467 944552c-9928 2889-16841 9296-16841 20985 0 16586 13696 26765 36191 26765 22115 0 35686-10430 35686-27146 0-10806-5655-17715-16712-20604 8669-2639 13195-8925 13195-18222 0-17719-16963-23749-32043-23749-14830 0-32670 6657-32670 24251 0 9427 5152 14830 13194 17720zm18974-26765c8669 0 13696 3768 13696 10179 0 6532-5152 10676-13320 10676-8167 0-13570-4144-13570-10425 0-6286 5277-10430 13194-10430zm-126 34175c9297 0 15077 4776 15077 12316 0 7541-5529 12191-14700 12191-9050 0-14955-4776-14955-12316 0-7415 5779-12191 14578-12191zM665763 904485h-17715c-1761 14453-12316 17970-25762 18346v15708h20986v53530h22491v-87584z"/><path id="1" class="fil1" d="M720906 903857c-26263 0-36062 21739-36062 44987 0 27768 13065 44480 34807 44480 22617 0 35811-16335 35811-44480 0-28024-13069-44987-34556-44987zm-627 17214c13194 0 14574 15582 14574 26895 0 10174-502 28270-14574 28270-14198 0-14830-16837-14830-27267 0-19099 4525-27898 14830-27898z"/><path class="fil1" d="M395002 969704c2012 14951 13948 23875 31542 23875 23875 0 37446-17092 37320-47249 0-26765-13320-42473-35941-42473-19977 0-34050 13195-34050 31792 0 17590 11560 29404 28898 29404 9050 0 14203-2388 20233-9301-1004 9552-4274 22119-16084 22119-5905 0-10179-2388-11815-8167h-20103zm32921-48633c7917 0 13822 6035 13822 14202 0 8168-5905 14073-13822 14073-7916 0-13570-5905-13570-14198 0-8168 5654-14077 13570-14077zM934323 904485h-17715c-1760 14453-12316 17970-25761 18346v15708h20985v53530h22491v-87584z"/><path id="1" class="fil1" d="M1005801 904485h-17715c-1760 14453-12316 17970-25761 18346v15708h20985v53530h22491v-87584z"/><path class="fil1" d="M1184967 904485h-17715c-1761 14453-12316 17970-25761 18346v15708h20985v53530h22491v-87584z"/><path id="1" class="fil1" d="M1274039 973723h-41093c5153-5153 8925-6909 16967-12061 12312-7791 23118-14077 23118-30161 0-16963-12562-27644-32294-27644-24126 0-34807 14324-34807 35937h20233c0-8670 2514-17590 13571-17590 7289 0 11810 4270 11810 10932 0 7289-6156 10932-11559 14574-20735 13826-35936 20108-35936 44108v251h69990v-18346z"/><path class="fil1" d="M1444097 904485h-17715c-1761 14453-12317 17970-25762 18346v15708h20986v53530h22491v-87584z"/><path id="1" class="fil1" d="M1485042 933512c251-8418 4776-12818 13194-12818 7411 0 12312 3773 12312 9552 0 4525-3141 7791-8418 8544-2012 251-5278 502-7666 502-1380 0-1882 0-3392-126v14328c4651-125 5153-125 6407-125 8925 0 14202 4144 14202 11057 0 7034-5403 11308-14077 11308-11057 0-14323-5528-14699-15080h-20359v2262c0 21362 16465 30789 35690 30789 17715 0 35560-8800 35560-28902 0-10054-5654-17093-15331-19606 7540-1882 12316-8293 12316-16837 0-14951-12693-24503-32545-24503-19982 0-33427 11309-33427 29655h20233z"/><path class="fil1" d="M1703482 904485h-17715c-1761 14453-12317 17970-25762 18346v15708h20986v53530h22491v-87584z"/><path id="1" class="fil1" d="M1793306 954749h-11433v-50264h-20484l-38951 48252v19731h38073v19601h21362v-19601h11433v-17719zm-32168 125h-22997l22997-28526v28526z"/><path class="fil1" d="M147186 1162669h-17715c-1761 14453-12317 17970-25762 18347v15707h20986v53531h22491v-87585z"/><path id="1" class="fil1" d="M231482 1163171h-55291l-8544 49009h19476c3270-4650 7791-6662 13445-6662 8799 0 14328 5654 14328 14579 0 8669-5780 14198-14704 14198-8293 0-13822-4149-14449-10932h-20986c1259 19350 14830 28145 34933 28145 22495 0 36568-12312 36568-32168 0-17464-11058-28522-28652-28522-6783 0-10931 1380-17719 5780l2639-15457h38956v-17970z"/><path class="fil1" d="M667586 1163946h-17715c-1760 14453-12316 17970-25761 18346v15708h20985v53530h22491v-87584z"/><path id="1" class="fil1" d="M753643 1164448h-63709v19103h41971c-17469 20229-27773 42092-29153 67979h22993c752-27392 9050-49636 27898-69614v-17468z"/><path class="fil1" d="M406320 1163946h-17715c-1761 14453-12317 17970-25762 18346v15708h20986v53530h22491v-87584z"/><path id="1" class="fil1" d="M494890 1187068c-2764-15206-13952-23749-31039-23749-24127 0-37823 17213-37823 47248 0 22742 10179 42348 35309 42348 19225 0 34682-11313 34682-31667 0-17343-12065-29404-29153-29404-8795 0-14574 2639-20228 9171 1379-9928 4144-21863 16585-21863 6156 0 9548 2262 11560 7916h20107zm-33302 20359c8293 0 14073 5905 14073 14198s-5780 14323-13822 14323c-7917 0-13571-6030-13571-14323 0-8168 5654-14198 13320-14198z"/><path class="fil1" d="M924897 1163946h-17715c-1761 14453-12316 17970-25762 18346v15708h20986v53530h22491v-87584z"/><path id="1" class="fil1" d="M960188 1205290c-9928 2889-16841 9296-16841 20985 0 16586 13696 26765 36191 26765 22115 0 35685-10430 35685-27146 0-10806-5654-17715-16711-20604 8669-2639 13194-8925 13194-18222 0-17719-16962-23749-32042-23749-14830 0-32671 6657-32671 24251 0 9427 5153 14830 13195 17720zm18974-26765c8669 0 13696 3767 13696 10179 0 6532-5152 10676-13320 10676-8167 0-13571-4144-13571-10425 0-6286 5278-10430 13195-10430zm-126 34175c9297 0 15076 4776 15076 12316 0 7541-5528 12191-14699 12191-9050 0-14955-4776-14955-12316 0-7415 5779-12191 14578-12191z"/><path class="fil1" d="M1185030 1163946h-17715c-1761 14453-12316 17970-25762 18346v15708h20986v53530h22491v-87584z"/><path id="1" class="fil1" d="M1204989 1229165c2012 14951 13948 23875 31542 23875 23875 0 37446-17092 37320-47249 0-26765-13320-42472-35941-42472-19977 0-34050 13194-34050 31791 0 17590 11560 29404 28898 29404 9050 0 14203-2388 20233-9301-1004 9552-4274 22119-16084 22119-5905 0-10179-2387-11815-8167h-20103zm32921-48633c7917 0 13822 6035 13822 14202 0 8168-5905 14073-13822 14073-7916 0-13570-5905-13570-14198 0-8168 5654-14077 13570-14077z"/><path class="fil1" d="M1466153 1233184h-41093c5152-5153 8925-6909 16967-12061 12312-7791 23118-14077 23118-30161 0-16963-12563-27643-32294-27643-24126 0-34807 14323-34807 35936h20233c0-8670 2513-17590 13571-17590 7289 0 11810 4270 11810 10932 0 7289-6156 10932-11559 14574-20735 13826-35937 20108-35937 44109v250h69991v-18346z"/><path id="1" class="fil1" d="M1503702 1163319c-26263 0-36062 21738-36062 44986 0 27769 13065 44480 34808 44480 22616 0 35810-16335 35810-44480 0-28024-13069-44986-34556-44986zm-627 17213c13194 0 14574 15582 14574 26895 0 10174-502 28270-14574 28270-14198 0-14830-16837-14830-27267 0-19099 4525-27898 14830-27898z"/><path class="fil1" d="M1734709 1233184h-41093c5152-5153 8925-6909 16967-12061 12312-7791 23118-14077 23118-30161 0-16963-12563-27643-32294-27643-24126 0-34807 14323-34807 35936h20233c0-8670 2513-17590 13571-17590 7289 0 11810 4270 11810 10932 0 7289-6156 10932-11559 14574-20735 13826-35937 20108-35937 44109v250h69991v-18346z"/><path id="1" class="fil1" d="M1788593 1163946h-17715c-1761 14453-12316 17970-25761 18346v15708h20985v53530h22491v-87584z"/><path class="fil1" d="M169242 1491363h-41093c5152-5152 8925-6908 16967-12060 12312-7792 23118-14077 23118-30162 0-16962-12563-27643-32294-27643-24126 0-34807 14324-34807 35936h20233c0-8669 2513-17589 13571-17589 7289 0 11810 4270 11810 10932 0 7289-6156 10932-11560 14574-20734 13826-35936 20107-35936 44108v251h69991v-18347z"/><path id="1" class="fil1" d="M240720 1491363h-41093c5152-5152 8925-6908 16967-12060 12312-7792 23118-14077 23118-30162 0-16962-12563-27643-32294-27643-24126 0-34807 14324-34807 35936h20233c0-8669 2513-17589 13571-17589 7289 0 11810 4270 11810 10932 0 7289-6156 10932-11559 14574-20735 13826-35937 20107-35937 44108v251h69991v-18347z"/><path class="fil1" d="M687756 1492640h-41093c5153-5152 8925-6908 16967-12061 12312-7791 23118-14077 23118-30161 0-16962-12562-27643-32293-27643-24127 0-34808 14324-34808 35936h20233c0-8669 2514-17589 13571-17589 7289 0 11810 4269 11810 10932 0 7289-6156 10931-11559 14574-20735 13826-35936 20107-35936 44108v251h69990v-18347z"/><path id="1" class="fil1" d="M759987 1473666h-11433v-50264h-20484l-38952 48253v19731h38074v19601h21362v-19601h11433v-17720zm-32168 126h-22997l22997-28526v28526z"/><path class="fil1" d="M428376 1492640h-41093c5152-5152 8925-6908 16967-12061 12312-7791 23118-14077 23118-30161 0-16962-12563-27643-32294-27643-24126 0-34807 14324-34807 35936h20233c0-8669 2513-17589 13571-17589 7289 0 11810 4269 11810 10932 0 7289-6156 10931-11560 14574-20734 13826-35936 20107-35936 44108v251h69991v-18347z"/><path id="1" class="fil1" d="M451727 1452430c251-8418 4776-12818 13195-12818 7410 0 12311 3772 12311 9552 0 4525-3140 7791-8418 8544-2012 251-5278 502-7666 502-1380 0-1882 0-3391-126v14328c4650-125 5152-125 6406-125 8925 0 14203 4144 14203 11057 0 7034-5403 11308-14077 11308-11058 0-14324-5529-14700-15081h-20358v2263c0 21362 16465 30788 35690 30788 17714 0 35559-8799 35559-28902 0-10054-5654-17092-15331-19605 7540-1882 12316-8293 12316-16837 0-14951-12692-24503-32544-24503-19982 0-33428 11308-33428 29655h20233z"/><path class="fil1" d="M947580 1492640h-41093c5153-5152 8925-6908 16967-12061 12312-7791 23118-14077 23118-30161 0-16962-12562-27643-32293-27643-24127 0-34808 14324-34808 35936h20233c0-8669 2514-17589 13571-17589 7289 0 11810 4269 11810 10932 0 7289-6156 10931-11559 14574-20735 13826-35936 20107-35936 44108v251h69990v-18347z"/><path id="1" class="fil1" d="M1014283 1423904h-55291l-8544 49010h19475c3271-4651 7792-6662 13446-6662 8799 0 14328 5654 14328 14578 0 8670-5780 14198-14705 14198-8293 0-13821-4148-14448-10932h-20986c1259 19351 14830 28146 34933 28146 22495 0 36568-12312 36568-32169 0-17464-11058-28521-28652-28521-6783 0-10932 1380-17719 5779l2639-15457h38956v-17970z"/><path class="fil1" d="M1206710 1492260h-41093c5152-5153 8925-6909 16967-12061 12311-7792 23118-14077 23118-30161 0-16963-12563-27644-32294-27644-24126 0-34807 14324-34807 35936h20233c0-8669 2513-17589 13571-17589 7289 0 11809 4270 11809 10932 0 7289-6155 10932-11559 14574-20734 13826-35936 20108-35936 44108v251h69991v-18346z"/><path id="1" class="fil1" d="M1277686 1446144c-2764-15206-13951-23750-31039-23750-24126 0-37822 17213-37822 47249 0 22742 10179 42348 35309 42348 19224 0 34681-11313 34681-31667 0-17343-12065-29404-29153-29404-8795 0-14574 2639-20228 9171 1380-9928 4144-21863 16586-21863 6156 0 9547 2262 11559 7916h20107zm-33302 20358c8293 0 14073 5905 14073 14198s-5780 14324-13822 14324c-7916 0-13570-6031-13570-14324 0-8167 5654-14198 13319-14198z"/><path class="fil1" d="M1467972 1492640h-41093c5152-5152 8925-6908 16967-12061 12312-7791 23118-14077 23118-30161 0-16962-12563-27643-32294-27643-24126 0-34807 14324-34807 35936h20233c0-8669 2513-17589 13571-17589 7289 0 11810 4269 11810 10932 0 7289-6156 10931-11559 14574-20735 13826-35937 20107-35937 44108v251h69991v-18347z"/><path id="1" class="fil1" d="M1536435 1423904h-63709v19104h41971c-17469 20228-27773 42092-29153 67979h22992c753-27392 9050-49637 27899-69614v-17469z"/><path class="fil1" d="M1725287 1492640h-41093c5152-5152 8925-6908 16967-12061 12312-7791 23118-14077 23118-30161 0-16962-12563-27643-32294-27643-24126 0-34807 14324-34807 35936h20233c0-8669 2513-17589 13571-17589 7289 0 11810 4269 11810 10932 0 7289-6156 10931-11559 14574-20735 13826-35937 20107-35937 44108v251h69991v-18347z"/><path id="1" class="fil1" d="M1742984 1464746c-9928 2890-16841 9297-16841 20986 0 16586 13696 26765 36191 26765 22115 0 35686-10430 35686-27146 0-10806-5654-17715-16712-20605 8670-2639 13195-8924 13195-18221 0-17719-16963-23750-32043-23750-14830 0-32670 6658-32670 24252 0 9426 5152 14829 13194 17719zm18974-26765c8669 0 13696 3768 13696 10179 0 6533-5152 10677-13320 10677-8167 0-13570-4144-13570-10426 0-6286 5277-10430 13194-10430zm-125 34176c9296 0 15076 4776 15076 12316s-5529 12191-14700 12191c-9050 0-14955-4776-14955-12317 0-7414 5779-12190 14579-12190z"/><path class="fil1" d="M169305 1750820h-41093c5152-5152 8924-6909 16966-12061 12312-7791 23119-14077 23119-30161 0-16962-12563-27643-32294-27643-24126 0-34807 14323-34807 35936h20233c0-8669 2513-17589 13570-17589 7290 0 11810 4269 11810 10931 0 7290-6156 10932-11559 14575-20734 13826-35936 20107-35936 44108v251h69991v-18347z"/><path id="1" class="fil1" d="M171670 1746801c2012 14951 13947 23876 31541 23876 23876 0 37446-17093 37321-47249 0-26765-13320-42473-35941-42473-19977 0-34050 13194-34050 31792 0 17589 11559 29404 28898 29404 9050 0 14202-2388 20233-9301-1004 9552-4274 22119-16084 22119-5905 0-10179-2388-11815-8168h-20103zm32921-48633c7917 0 13822 6035 13822 14202 0 8168-5905 14073-13822 14073-7916 0-13570-5905-13570-14198 0-8168 5654-14077 13570-14077z"/><path class="fil1" d="M649119 1711887c250-8419 4776-12818 13194-12818 7410 0 12312 3772 12312 9551 0 4526-3141 7792-8419 8544-2011 251-5277 502-7665 502-1380 0-1882 0-3392-125v14328c4651-126 5152-126 6407-126 8925 0 14202 4144 14202 11057 0 7034-5403 11309-14077 11309-11057 0-14323-5529-14699-15081h-20359v2263c0 21361 16465 30788 35690 30788 17715 0 35560-8799 35560-28902 0-10054-5654-17092-15332-19606 7541-1882 12317-8293 12317-16837 0-14950-12693-24502-32545-24502-19982 0-33427 11308-33427 29655h20233z"/><path id="1" class="fil1" d="M751130 1682859h-17715c-1761 14453-12316 17970-25762 18347v15707h20986v53531h22491v-87585z"/><path class="fil1" d="M380563 1711887c251-8419 4776-12818 13194-12818 7410 0 12312 3772 12312 9551 0 4526-3141 7792-8419 8544-2011 251-5277 502-7665 502-1380 0-1882 0-3392-125v14328c4651-126 5152-126 6407-126 8925 0 14202 4144 14202 11057 0 7034-5403 11309-14077 11309-11057 0-14323-5529-14699-15081h-20359v2263c0 21361 16465 30788 35690 30788 17715 0 35560-8799 35560-28902 0-10054-5654-17092-15332-19606 7541-1882 12317-8293 12317-16837 0-14950-12693-24502-32545-24502-19982 0-33427 11308-33427 29655h20233z"/><path id="1" class="fil1" d="M466239 1682232c-26264 0-36062 21738-36062 44986 0 27769 13065 44480 34807 44480 22617 0 35811-16335 35811-44480 0-28024-13069-44986-34556-44986zm-628 17213c13195 0 14575 15582 14575 26895 0 10175-502 28270-14575 28270-14197 0-14829-16836-14829-27267 0-19099 4525-27898 14829-27898z"/><path class="fil3" d="M965412 1682859h-17715c-1761 14453-12316 17970-25762 18347v15707h20986v53531h22491v-87585zM1242449 1752097h-41093c5152-5152 8925-6909 16967-12061 12312-7791 23118-14077 23118-30161 0-16962-12563-27643-32294-27643-24126 0-34807 14323-34807 35936h20233c0-8669 2513-17590 13571-17590 7289 0 11810 4270 11810 10932 0 7290-6156 10932-11560 14575-20734 13826-35936 20107-35936 44108v251h69991v-18347zM1453765 1711887c251-8419 4776-12818 13194-12818 7411 0 12312 3772 12312 9551 0 4526-3140 7792-8418 8544-2012 251-5278 502-7666 502-1380 0-1882 0-3391-125v14328c4650-126 5152-126 6406-126 8925 0 14203 4144 14203 11057 0 7034-5403 11309-14077 11309-11058 0-14324-5529-14700-15081h-20358v2263c0 21361 16465 30788 35689 30788 17715 0 35560-8799 35560-28902 0-10054-5654-17092-15331-19606 7540-1882 12316-8293 12316-16837 0-14950-12692-24502-32545-24502-19981 0-33427 11308-33427 29655h20233zM1762092 1733123h-11433v-50264h-20484l-38951 48252v19731h38073v19602h21362v-19602h11433v-17719zm-32168 125h-22997l22997-28525v28525z"/></g></g></svg>