<svg xmlns="http://www.w3.org/2000/svg" xml:space="preserve" width="160" height="160" style="shape-rendering:geometricPrecision;text-rendering:geometricPrecision;image-rendering:optimizeQuality;fill-rule:evenodd;clip-rule:evenodd" viewBox="0 0 18247345 18247345"><defs><style>.str0,.str1{stroke:#040507;stroke-width:36509.1}.str0{stroke:#0d0303}.fil0{fill:#fff}.fil2,.fil3{fill:#040507;fill-rule:nonzero}.fil3{fill:#bcbaba}</style></defs><g id="Слой_x0020_1"><g id="_2187875010384"><path class="fil0" d="M7-7h18247345v18247346H7z"/><path class="fil0 str0" d="M12867792 5378960h2496084v2496183h-2496084zM15363877 5378960h2496084v2496183h-2496084zM7875623 5378960h2496084v2496183H7875623zM10371708 5378960h2496084v2496183h-2496084zM12867792 7875162h2496084v2496183h-2496084zM15363877 7875162h2496084v2496183h-2496084zM7875623 7875162h2496084v2496183H7875623zM10371708 7875162h2496084v2496183h-2496084zM12867792 10371363h2496084v2496183h-2496084zM15363877 10371363h2496084v2496183h-2496084z"/><path class="str0" style="fill:#fa3737" d="M7875623 10371363h2496084v2496183H7875623z"/><path class="fil0 str0" d="M10371708 10371363h2496084v2496183h-2496084zM12867792 12867565h2496084v2496183h-2496084zM15363877 12867565h2496084v2496183h-2496084zM7875623 12867565h2496084v2496183H7875623zM10371708 12867565h2496084v2496183h-2496084zM12867792 15363766h2496084v2496183h-2496084zM15363877 15363766h2496084v2496183h-2496084zM7875623 15363766h2496084v2496183H7875623zM10371708 15363766h2496084v2496183h-2496084z"/><path class="fil0 str1" d="M387370 387359h17472590v3400782H387370z"/><path class="fil2" d="M7014486 2320418h-215908c-1508 30388-4569 60819-16724 83621-12155 25863-33449 42587-72975 42587-39570 0-60863-18276-73018-42587-25863-50173-28880-185519-28880-316297 0-130777 3017-266124 28880-316297 12155-24311 33448-42587 73018-42587 39526 0 60820 15216 72975 41078 12155 22802 15216 53234 16724 83622h215908c-4526-103406-41035-188537-97285-241770-54743-51682-118623-77544-208322-77544-117114 0-188580 48664-237245 109484-76035 92760-80604 235693-80604 444014 0 208322 4569 351255 80604 444015 48665 60819 120131 109484 237245 109484 89699 0 153579-25863 208322-77544 56250-53234 92759-139916 97285-243279z"/><path id="1" class="fil2" d="M7616692 2629085v-194657h-282805v-253926h243279v-194658h-243279v-244787h282805v-194658h-498756v1082686z"/><path id="2" class="fil2" d="M8334460 2629085V1546399h-215908v434919h-179442v-434919h-215951v1082686h215951v-453152h179442v453152z"/><path id="3" class="fil2" d="M9003563 1741057v-194658h-580869v194658h182459v888028h215908v-888028z"/><path id="4" class="fil2" d="M9675727 2629085V1546399h-308711c-235692 0-301081 123191-301081 329961 0 115605 18276 218969 123191 284357l-158148 468368h225046l132286-421212h71466v421212h215951zm-215951-615870h-91208c-82113 0-86682-74483-86682-136855 0-62328 4569-135303 86682-135303h91208v272158z"/><path id="5" class="fil2" d="M10426944 2283909c0-211382-69958-345177-304142-345177h-89700v-197675h340608v-194658h-556559v1082686h305651c234184 0 304142-133794 304142-345176zm-215951 0c0 68406-4569 150519-86682 150519h-91209v-301082h91209c82113 0 86682 82113 86682 150563z"/><path id="6" class="fil2" d="M11141651 1891576c0-211339-69958-345177-304142-345177h-305650v1082686h215951v-392332h89699c234184 0 304142-133795 304142-345177zm-215951 0c0 68449-4569 150562-86682 150562h-91208v-301081h91208c82113 0 86682 82113 86682 150519z"/><path id="7" class="fil2" d="M11856359 2283909c0-211382-69958-345177-304142-345177h-89700v-392333h-215951v1082686h305651c234184 0 304142-133794 304142-345176zm-215952 0c0 68406-3017 150519-94268 150519h-83622v-301082h83622c91251 0 94268 82113 94268 150563z"/><path class="fil0 str0" d="M5379539 5378960h2496084v2496183H5379539zM387370 5378960h2496084v2496183H387370zM2883454 5378960h2496084v2496183H2883454z"/><path class="fil2" d="M1839118 6210338h-170433c-16940 139054-118493 172890-247848 176511v151123h201899v515006h216382v-842640z"/><path class="fil0 str0" d="M5379539 7875162h2496084v2496183H5379539zM387370 7875162h2496084v2496183H387370zM2883454 7875162h2496084v2496183H2883454zM5379539 10371363h2496084v2496183H5379539zM387370 10371363h2496084v2496183H387370zM2883454 10371363h2496084v2496183H2883454zM5379539 12867565h2496084v2496183H5379539zM387370 12867565h2496084v2496183H387370zM2883454 12867565h2496084v2496183H2883454zM5379539 15363766h2496084v2496183H5379539zM387370 15363766h2496084v2496183H387370zM2883454 15363766h2496084v2496183H2883454z"/><path class="fil0 str1" d="M12867792 3788148h2496084v1590821h-2496084z"/><path class="fil2" d="M13705951 4668465h-44268c-388 10302-1982 20560-6724 27716-3965 6293-10302 10258-20948 10258-10690 0-17027-4353-20949-10689-8707-13406-9914-41897-9914-93277 0-51423 1207-79872 9914-93321 3922-6336 10259-10646 20949-10646 10646 0 16983 3922 20948 10259 4742 6724 6336 16983 6724 27284h44268c-776-24914-8319-46250-22543-59311-12630-11853-28061-18190-49397-18190-26121 0-43104 10302-54570 24139-18578 22112-20561 52974-20561 119786 0 66811 1983 97630 20561 119786 11466 13836 28449 24095 54570 24095 21336 0 35948-5905 48621-17759 14224-13061 22543-34785 23319-60130z"/><path id="1" class="fil2" d="M13869833 4461738h-48234l-33621 130045-33966-130045h-48233l61682 190132-6337 22931c-6336 22156-15043 28880-39526 28880v39526c45044 0 61251-8319 73923-47845l74312-233624z"/><path id="2" class="fil2" d="M14025438 4657430c0-58923-21380-85389-72372-85389h-26465v-70777h86552v-39526h-130863v281469h70776c50992 0 72372-26897 72372-85777zm-44311 0c0 28449-5905 45863-29655 45863h-24871v-91337h24871c23750 0 29655 16983 29655 45474z"/><path id="3" class="fil2" d="M14194837 4657430c0-58923-21380-85389-72372-85389h-26466v-70777h86553v-39526h-130864v281469h70777c50992 0 72372-26897 72372-85777zm-44311 0c0 28449-5905 45863-29656 45863h-24871v-91337h24871c23751 0 29656 16983 29656 45474z"/><path id="4" class="fil2" d="M14361822 4602473c0-66812-1552-97674-20561-119786-11466-13837-28449-24139-54527-24139-26121 0-43104 10302-54569 24139-18578 22500-20561 52974-20561 119786 0 66811 1983 97242 20561 119786 11465 13836 28448 24095 54569 24095 26078 0 43061-10259 54527-24095 19009-22156 20561-52975 20561-119786zm-44268 0c0 51380-1164 79871-9483 93277-3966 6336-10690 10689-21337 10689-10689 0-17026-4353-20948-10689-8319-13406-9914-41897-9914-93277 0-51423 1595-79872 9914-93321 3922-6336 10259-10646 20948-10646 10647 0 17371 4310 21337 10646 8319 13449 9483 41898 9483 93321z"/><path id="5" class="fil2" d="M14508332 4501652v-39914h-138752v39914h47027v241555h44268v-241555z"/><path id="6" class="fil2" d="m14670619 4743207-68363-281469h-43104l-69182 281469h46638l11078-55733h65216l11466 55733h46251zm-65993-95691h-48233l24095-117803 24138 117803z"/><path class="fil0 str1" d="M15363876 3788148h2496084v1590821h-2496084z"/><path class="fil2" d="M15872703 4662560c0-26078-3190-43104-16207-56553-3966-3922-9483-7500-15431-10259 5948-2370 10689-5948 14612-9870 13060-13449 16207-28880 16207-49053 0-30431-4741-44655-17759-57716-11465-11854-28492-17371-54569-17371h-70389v281469h70001c26465 0 43492-5948 55345-17802 13449-13836 18190-29655 18190-62845zm-44311-3147c0 32802-9871 43880-33578 43880h-21336v-87803h21336c23707 0 33578 12673 33578 43923zm-776-119829c0 26897-9095 38362-32026 38362h-22112v-76294h22112c22931 0 32026 10259 32026 37932z"/><path id="1" class="fil2" d="M16045636 4602473c0-66812-1552-97674-20560-119786-11466-13837-28449-24139-54527-24139-26121 0-43104 10302-54570 24139-18577 22500-20560 52974-20560 119786 0 66811 1983 97242 20560 119786 11466 13836 28449 24095 54570 24095 26078 0 43061-10259 54527-24095 19008-22156 20560-52975 20560-119786zm-44268 0c0 51380-1163 79871-9482 93277-3966 6336-10690 10689-21337 10689-10690 0-17026-4353-20948-10689-8320-13406-9914-41897-9914-93277 0-51423 1594-79872 9914-93321 3922-6336 10258-10646 20948-10646 10647 0 17371 4310 21337 10646 8319 13449 9482 41898 9482 93321z"/><path id="2" class="fil2" d="M16212276 4668465h-44268c-387 10302-1982 20560-6724 27716-3965 6293-10302 10258-20948 10258-10690 0-17026-4353-20949-10689-8707-13406-9914-41897-9914-93277 0-51423 1207-79872 9914-93321 3923-6336 10259-10646 20949-10646 10646 0 16983 3922 20948 10259 4742 6724 6337 16983 6724 27284h44268c-776-24914-8319-46250-22543-59311-12630-11853-28061-18190-49397-18190-26121 0-43104 10302-54570 24139-18578 22112-20561 52974-20561 119786 0 66811 1983 97630 20561 119786 11466 13836 28449 24095 54570 24095 21336 0 35948-5905 48621-17759 14224-13061 22543-34785 23319-60130z"/><path id="3" class="fil2" d="m16398313 4743207-71940-148665 64440-132804h-46682l-63233 134786 68406 146683h49009zm-118234 0v-281469h-44268v281469h44268z"/><path id="4" class="fil2" d="M16554694 4547515c0-58923-21379-85777-72371-85777h-70777v281469h44311v-110303h26466c50992 0 72371-26509 72371-85389zm-44310 0c0 28449-5906 45475-29656 45475h-24871v-91338h24871c23750 0 29656 17371 29656 45863z"/><path id="5" class="fil2" d="M16696032 4743207v-39914h-73923v-81855h63622v-39914h-63622v-79872h73923v-39914h-118234v281469z"/><path id="6" class="fil2" d="M16861078 4668465h-44268c-388 10302-1983 20560-6724 27716-3966 6293-10302 10258-20949 10258-10690 0-17026-4353-20948-10689-8707-13406-9914-41897-9914-93277 0-51423 1207-79872 9914-93321 3922-6336 10258-10646 20948-10646 10647 0 16983 3922 20949 10259 4741 6724 6336 16983 6724 27284h44268c-776-24914-8319-46250-22544-59311-12629-11853-28060-18190-49397-18190-26121 0-43104 10302-54570 24139-18577 22112-20560 52974-20560 119786 0 66811 1983 97630 20560 119786 11466 13836 28449 24095 54570 24095 21337 0 35949-5905 48621-17759 14225-13061 22544-34785 23320-60130z"/><path id="7" class="fil2" d="M17003235 4743207v-39914h-73924v-81855h63622v-39914h-63622v-79872h73924v-39914h-118235v281469z"/><path id="8" class="fil2" d="M17172245 4743207v-281469h-44310v118579h-54915v-118579h-44311v281469h44311v-122932h54915v122932z"/><path id="9" class="fil2" d="M17349963 4657430c0-58923-21379-85389-72371-85389h-26466v-110303h-44311v281469h70777c50992 0 72371-26897 72371-85777zm-44311 0c0 28449-5905 45863-29655 45863h-24871v-91337h24871c23750 0 29655 16983 29655 45474z"/><path id="10" class="fil2" d="M17493284 4743207v-39914h-73923v-81855h63621v-39914h-63621v-79872h73923v-39914h-118234v281469z"/><path class="fil0 str1" d="M7875623 3788148h2496084v1590821H7875623z"/><path class="fil2" d="M8733129 4743207v-281469h-44311v144657c-9095 1207-15776 1983-24871 1983-19009 0-28104-7112-28104-33190v-113450h-44268v117803c0 49785 19397 68406 65217 68406 10302 0 20991-431 32457-1982v97242h43880z"/><path id="1" class="fil2" d="M8885933 4743207v-39914h-73924v-81855h63622v-39914h-63622v-79872h73924v-39914h-118235v281469z"/><path id="2" class="fil2" d="M9034771 4501652v-39914h-138752v39914h47026v241555h44268v-241555z"/><path id="3" class="fil2" d="M9197488 4662560c0-26078-3189-43104-16207-56553-3965-3922-9483-7500-15431-10259 5948-2370 10690-5948 14612-9870 13061-13449 16207-28880 16207-49053 0-30431-4741-44655-17759-57716-11465-11854-28491-17371-54569-17371h-70389v281469h70001c26466 0 43492-5948 55345-17802 13449-13836 18190-29655 18190-62845zm-44311-3147c0 32802-9870 43880-33578 43880h-21336v-87803h21336c23708 0 33578 12673 33578 43923zm-775-119829c0 26897-9095 38362-32027 38362h-22112v-76294h22112c22932 0 32027 10259 32027 37932z"/><path id="4" class="fil2" d="M9345938 4743207v-39914h-73923v-81855h63622v-39914h-63622v-79872h73923v-39914h-118234v281469z"/><path id="5" class="fil2" d="M9514561 4547515c0-58923-21379-85777-72371-85777h-70777v281469h44311v-110303h26466c50992 0 72371-26509 72371-85389zm-44311 0c0 28449-5905 45475-29655 45475h-24871v-91338h24871c23750 0 29655 17371 29655 45863z"/><path id="6" class="fil2" d="M9653917 4501652v-39914h-116252v281469h44311v-241555z"/><path class="fil0 str1" d="M10371708 3788148h2496084v1590821h-2496084z"/><path class="fil2" d="M11160746 4743207v-281469h-143924v281469h44268v-241555h55345v241555z"/><path id="1" class="fil2" d="m11230532 4743207 36767-115432h24871v115432h44311v-281469h-71165c-51423 0-71983 24871-71983 83018 0 34785 7155 59699 32845 73536l-41897 124915h46251zm7112-198451c0-23319 3534-43104 27285-43104h27241v86165h-27241c-23751 0-27285-19741-27285-43061z"/><path id="2" class="fil2" d="M11494414 4501652v-39914h-138752v39914h47027v241555h44268v-241555z"/><path id="3" class="fil2" d="M11657132 4743207v-281469h-44311v118579h-54915v-118579h-44310v281469h44310v-122932h54915v122932z"/><path id="4" class="fil2" d="m11730840 4743207 63276-172373v172373h44268v-281469h-39526l-62846 172373v-172373h-44311v281469z"/><path id="5" class="fil2" d="M12039809 4799760v-96467h-23707v-241555h-44311v241555h-54527v-241555h-44310v281469h124958v56553z"/><path id="6" class="fil2" d="m12219467 4743207-68363-281469h-43104l-69182 281469h46638l11078-55733h65216l11466 55733h46251zm-65993-95691h-48233l24095-117803 24138 117803z"/><path class="fil0 str1" d="M5379539 3788148h2496084v1590821H5379539z"/><path class="fil2" d="M6353530 4668465h-44268c-388 10302-1983 20560-6725 27716-3965 6293-10301 10258-20948 10258-10690 0-17026-4353-20949-10689-8707-13406-9914-41897-9914-93277 0-51423 1207-79872 9914-93321 3923-6336 10259-10646 20949-10646 10647 0 16983 3922 20948 10259 4742 6724 6337 16983 6725 27284h44268c-776-24914-8320-46250-22544-59311-12629-11853-28061-18190-49397-18190-26121 0-43104 10302-54570 24139-18578 22112-20560 52974-20560 119786 0 66811 1982 97630 20560 119786 11466 13836 28449 24095 54570 24095 21336 0 35949-5905 48621-17759 14225-13061 22544-34785 23320-60130z"/><path id="1" class="fil2" d="M6520601 4547515c0-58923-21380-85777-72372-85777h-70777v281469h44311v-110303h26466c50992 0 72372-26509 72372-85389zm-44311 0c0 28449-5906 45475-29656 45475h-24871v-91338h24871c23750 0 29656 17371 29656 45863z"/><path id="2" class="fil2" d="M6661939 4743207v-39914h-73924v-81855h63622v-39914h-63622v-79872h73924v-39914h-118235v281469z"/><path id="3" class="fil2" d="M6866510 4796570v-93277h-23319v-241555h-132847v105131c0 55776-8663 99225-23319 136424h-18190v93277h41897v-53363h113881v53363h41897zm-67587-93277h-66811c13017-35216 20561-74742 20561-125347v-76682h46250v202029z"/><path id="4" class="fil2" d="m7046599 4743207-68363-281469h-43104l-69182 281469h46638l11078-55733h65216l11466 55733h46251zm-65992-95691h-48234l24095-117803 24139 117803z"/><path class="fil0 str1" d="M387370 3788148h2496084v1590821H387370z"/><path class="fil2" d="M831045 4743207v-281469H687121v281469h44268v-241555h55345v241555z"/><path id="1" class="fil2" d="M1008332 4602473c0-66812-1552-97674-20561-119786-11465-13837-28448-24139-54526-24139-26121 0-43104 10302-54570 24139-18578 22500-20561 52974-20561 119786 0 66811 1983 97242 20561 119786 11466 13836 28449 24095 54570 24095 26078 0 43061-10259 54526-24095 19009-22156 20561-52975 20561-119786zm-44268 0c0 51380-1164 79871-9483 93277-3965 6336-10690 10689-21336 10689-10690 0-17026-4353-20949-10689-8319-13406-9914-41897-9914-93277 0-51423 1595-79872 9914-93321 3923-6336 10259-10646 20949-10646 10646 0 17371 4310 21336 10646 8319 13449 9483 41898 9483 93321z"/><path id="2" class="fil2" d="M1178937 4743207v-281469h-44310v118579h-54915v-118579h-44311v281469h44311v-122932h54915v122932z"/><path id="3" class="fil2" d="M1331741 4743207v-39914h-73923v-81855h63621v-39914h-63621v-79872h73923v-39914h-118234v281469z"/><path id="4" class="fil2" d="M1536313 4796570v-93277h-23320v-241555h-132846v105131c0 55776-8664 99225-23319 136424h-18190v93277h41897v-53363h113881v53363h41897zm-67587-93277h-66812c13018-35216 20561-74742 20561-125347v-76682h46251v202029z"/><path id="5" class="fil2" d="M1675711 4743207v-39914h-73923v-81855h63621v-39914h-63621v-79872h73923v-39914h-118234v281469z"/><path id="6" class="fil2" d="M1856188 4743207v-281469h-131683v156123c0 79871-17759 85432-37932 85432h-3965v39914h13060c39527 0 71553-11853 71553-120174v-121381h44656v241555h44311z"/><path id="7" class="fil2" d="M2033905 4657430c0-58923-21379-85389-72371-85389h-26466v-110303h-44311v281469h70777c50992 0 72371-26897 72371-85777zm-44311 0c0 28449-5905 45863-29655 45863h-24871v-91337h24871c23750 0 29655 16983 29655 45474z"/><path id="8" class="fil2" d="M2202528 4743207v-281469h-44311v118579h-54914v-118579h-44311v281469h44311v-122932h54914v122932z"/><path id="9" class="fil2" d="m2276236 4743207 63277-172373v172373h44267v-281469h-39526l-62846 172373v-172373h-44310v281469z"/><path id="10" class="fil2" d="m2580464 4743207-71941-148665 64441-132804h-46682l-63233 134786 68406 146683h49009zm-118234 0v-281469h-44268v281469h44268z"/><path class="fil0 str1" d="M2883454 3788148h2496084v1590821H2883454z"/><path class="fil2" d="M3690478 4662560c0-26078-3189-43104-16207-56553-3965-3922-9483-7500-15431-10259 5948-2370 10690-5948 14612-9870 13061-13449 16207-28880 16207-49053 0-30431-4741-44655-17759-57716-11465-11854-28491-17371-54569-17371h-70389v281469h70001c26466 0 43492-5948 55345-17802 13449-13836 18190-29655 18190-62845zm-44311-3147c0 32802-9870 43880-33578 43880h-21336v-87803h21336c23708 0 33578 12673 33578 43923zm-776-119829c0 26897-9094 38362-32026 38362h-22112v-76294h22112c22932 0 32026 10259 32026 37932z"/><path id="1" class="fil2" d="M3840092 4501652v-39914h-138752v39914h47027v241555h44268v-241555z"/><path id="2" class="fil2" d="M3998025 4602473c0-66812-1551-97674-20560-119786-11466-13837-28449-24139-54527-24139-26121 0-43104 10302-54570 24139-18577 22500-20560 52974-20560 119786 0 66811 1983 97242 20560 119786 11466 13836 28449 24095 54570 24095 26078 0 43061-10259 54527-24095 19009-22156 20560-52975 20560-119786zm-44268 0c0 51380-1163 79871-9482 93277-3966 6336-10690 10689-21337 10689-10690 0-17026-4353-20948-10689-8320-13406-9914-41897-9914-93277 0-51423 1594-79872 9914-93321 3922-6336 10258-10646 20948-10646 10647 0 17371 4310 21337 10646 8319 13449 9482 41898 9482 93321z"/><path id="3" class="fil2" d="M4168243 4547515c0-58923-21380-85777-72372-85777h-70776v281469h44310v-110303h26466c50992 0 72372-26509 72372-85389zm-44311 0c0 28449-5905 45475-29656 45475h-24871v-91338h24871c23751 0 29656 17371 29656 45863z"/><path id="4" class="fil2" d="M4334883 4743207v-281469h-44311v118579h-54914v-118579h-44311v281469h44311v-122932h54914v122932z"/><path id="5" class="fil2" d="m4408591 4743207 63277-172373v172373h44267v-281469h-39526l-62846 172373v-172373h-44311v281469z"/><path id="6" class="fil2" d="m4712819 4743207-71941-148665 64441-132804h-46682l-63233 134786 68406 146683h49009zm-118234 0v-281469h-44268v281469h44268z"/><path class="fil2" d="M6512713 6501893c2413-80992 45948-123320 126941-123320 71294 0 118450 36294 118450 91898 0 43535-30216 74958-80993 82199-19353 2414-50776 4828-73751 4828-13276 0-18103 0-32629-1207v137846c44742-1207 49569-1207 61638-1207 85863 0 136640 39872 136640 106381 0 67673-51983 108795-135433 108795-106380 0-137803-53191-141424-145088h-195865v21767c0 205520 158408 296211 343367 296211 170433 0 342116-84657 342116-278064 0-96726-54397-164442-147502-188623 72544-18104 118493-79786 118493-161985 0-143838-122113-235736-313107-235736-192244 0-321599 108795-321599 285305h194658zM4479669 6888752h-395350c49570-49570 85864-66466 163235-116036 118450-74958 222417-135433 222417-290176 0-163192-120864-265952-310694-265952-232115 0-334875 137804-334875 345737h194658c0-83406 24181-169226 130562-169226 70130 0 113622 41078 113622 105174 0 70130-59225 105174-111208 140217-199485 133019-345737 193451-345737 424359v2414h673370v-176511zM9479087 6706206h-110002v-483583h-197071l-374746 464230v189830h366297v188580h205520v-188580h110002v-170477zm-309487 1207h-221253l221253-274443v274443zM11921963 6227450h-531947l-82199 471515h187373c31466-44742 74958-64096 129355-64096 84656 0 137847 54398 137847 140261 0 83406-55604 136596-141468 136596-79785 0-132975-39914-139010-105173h-201899c12112 186166 142674 270779 336082 270779 216425 0 351815-118450 351815-309487 0-168019-106381-274400-275650-274400-65260 0-105174 13276-170477 55604l25389-148709h374789v-172890zM14459150 6445082c-26595-146295-134225-228494-298624-228494-232115 0-363884 165606-363884 454575 0 218796 97932 407419 339703 407419 184959 0 333668-108838 333668-304659 0-166856-116079-282892-280478-282892-84613 0-140217 25389-194615 88234 13276-95518 39872-210347 159571-210347 59225 0 91855 21767 111209 76164h193450zm-320392 195865c79786 0 135390 56811 135390 136597 0 79785-55604 137803-132976 137803-76165 0-130562-58018-130562-137803 0-78579 54397-136597 128148-136597zM16931079 6227450h-612939v183796h403798c-168063 194614-267202 404962-280478 654017h221210c7241-263538 87070-477549 268409-669750v-168063zM1476484 9087401c-95518 27802-162028 89440-162028 201899 0 159571 131769 257503 348195 257503 212761 0 343323-100346 343323-261167 0-103967-54397-170433-160778-198235 83406-25389 126941-85863 126941-175304 0-170477-163191-228495-308280-228495-142674 0-314314 64053-314314 233322 0 90691 49570 142675 126941 170477zm182546-257504c83406 0 131769 36251 131769 97933 0 62845-49570 102717-128148 102717-78579 0-130562-39872-130562-100303 0-60475 50776-100347 126941-100347zm-1207 328798c89441 0 145045 45949 145045 118493s-53190 117286-141424 117286c-87070 0-143881-45949-143881-118493 0-71337 55604-117286 140260-117286zM6405211 8701922h-170433c-16940 139053-118493 172890-247848 176511v151122h201899v515007h216382v-842640z"/><path id="1" class="fil2" d="M6935735 8695887c-252675 0-346944 209141-346944 432807 0 267159 125691 427937 334875 427937 217589 0 344530-157157 344530-427937 0-269615-125734-432807-332461-432807zm-6034 165606c126941 0 140217 149915 140217 258753 0 97889-4828 271986-140217 271986-136597 0-142675-161985-142675-262331 0-183752 43535-268408 142675-268408z"/><path class="fil2" d="M3800264 9329387c19354 143838 134183 229701 303452 229701 229701 0 360264-164442 359057-454575 0-257503-128149-408626-345781-408626-192200 0-327590 126941-327590 305866 0 169226 111208 282892 278021 282892 87070 0 136639-22975 194657-89484-9655 91897-41121 212804-154743 212804-56811 0-97932-22974-113665-78578h-193408zm316728-467894c76165 0 132976 58061 132976 136639 0 78579-56811 135390-132976 135390-76164 0-130562-56811-130562-136597 0-78578 54398-135432 130562-135432zM8988994 8701922h-170433c-16940 139053-118493 172890-247848 176511v151122h201899v515007h216382v-842640z"/><path id="1" class="fil2" d="M9676675 8701922h-170433c-16940 139053-118493 172890-247848 176511v151122h201899v515007h216382v-842640z"/><path class="fil2" d="M11400404 8701922h-170433c-16940 139053-118493 172890-247848 176511v151122h201899v515007h216382v-842640z"/><path id="1" class="fil2" d="M12257355 9368051h-395350c49570-49570 85863-66467 163235-116036 118450-74958 222417-135433 222417-290176 0-163192-120864-265952-310694-265952-232115 0-334875 137804-334875 345737h194658c0-83406 24181-169226 130562-169226 70130 0 113622 41078 113622 105174 0 70130-59225 105173-111208 140217-199486 133019-345738 193451-345738 424359v2414h673371v-176511z"/><path class="fil2" d="M13893454 8701922h-170434c-16940 139053-118493 172890-247848 176511v151122h201899v515007h216383v-842640z"/><path id="1" class="fil2" d="M14287381 8981192c2414-80992 45949-123320 126941-123320 71294 0 118450 36293 118450 91898 0 43535-30216 74957-80992 82199-19354 2414-50777 4828-73751 4828-13276 0-18104 0-32630-1207v137846c44742-1207 49570-1207 61639-1207 85863 0 136639 39872 136639 106381 0 67673-51983 108795-135432 108795-106381 0-137804-53191-141425-145089h-195864v21768c0 205520 158407 296211 343366 296211 170433 0 342117-84657 342117-278064 0-96726-54398-164442-147502-188623 72544-18104 118493-79786 118493-161985 0-143838-122114-235736-313108-235736-192244 0-321599 108795-321599 285305h194658z"/><path class="fil2" d="M16388960 8701922h-170434c-16939 139053-118493 172890-247848 176511v151122h201900v515007h216382v-842640z"/><path id="1" class="fil2" d="M17253152 9185505h-110002v-483583h-197071l-374746 464230v189830h366297v188580h205520v-188580h110002v-170477zm-309487 1207h-221253l221253-274443v274443z"/><path class="fil2" d="M1416053 11185876h-170434c-16939 139053-118493 172890-247848 176511v151122h201900v515007h216382v-842640z"/><path id="1" class="fil2" d="M2227054 11190703h-531946l-82199 471515h187373c31466-44742 74957-64096 129355-64096 84656 0 137846 54398 137846 140261 0 83406-55604 136596-141467 136596-79785 0-132976-39914-139010-105173h-201900c12113 186166 142675 270779 336082 270779 216426 0 351815-118450 351815-309487 0-168019-106380-274400-275650-274400-65259 0-105174 13276-170476 55604l25388-148708h374789v-172891z"/><path class="fil2" d="M6422755 11198160h-170434c-16940 139054-118493 172891-247848 176511v151123h201899v515007h216383v-842641z"/><path id="1" class="fil2" d="M7250696 11202988h-612939v183796h403799c-168063 194614-267202 404962-280478 654017h221210c7241-263538 87070-477550 268408-669750v-168063z"/><path class="fil2" d="M3909145 11198160h-170433c-16940 139054-118493 172891-247848 176511v151123h201899v515007h216382v-842641z"/><path id="1" class="fil2" d="M4761268 11420620c-26595-146295-134226-228494-298625-228494-232115 0-363884 165605-363884 454575 0 218796 97933 407419 339703 407419 184959 0 333668-108838 333668-304659 0-166856-116079-282892-280478-282892-84613 0-140217 25388-194614 88234 13276-95519 39871-210348 159571-210348 59225 0 91854 21768 111208 76165h193451zm-320392 195865c79785 0 135389 56811 135389 136596 0 79786-55604 137804-132975 137804-76165 0-130562-58018-130562-137804 0-78578 54397-136596 128148-136596z"/><path class="fil2" d="M8898303 11198160h-170433c-16940 139054-118493 172891-247848 176511v151123h201899v515007h216382v-842641z"/><path id="1" class="fil2" d="M9237834 11595924c-95519 27802-162028 89441-162028 201899 0 159571 131769 257504 348194 257504 212761 0 343323-100347 343323-261168 0-103966-54397-170433-160778-198235 83407-25388 126942-85863 126942-175304 0-170476-163192-228494-308280-228494-142674 0-314315 64052-314315 233322 0 90691 49570 142674 126942 170476zm182545-257503c83406 0 131769 36250 131769 97932 0 62846-49570 102717-128148 102717-78579 0-130562-39871-130562-100303 0-60475 50776-100346 126941-100346zm-1207 328797c89441 0 145045 45949 145045 118493s-53190 117286-141424 117286c-87070 0-143881-45949-143881-118493 0-71337 55604-117286 140260-117286z"/><path class="fil2" d="M11401008 11198160h-170433c-16940 139054-118493 172891-247848 176511v151123h201899v515007h216382v-842641z"/><path id="1" class="fil2" d="M11593036 11825625c19354 143838 134183 229702 303452 229702 229702 0 360264-164442 359057-454575 0-257503-128149-408626-345781-408626-192200 0-327590 126941-327590 305866 0 169226 111208 282891 278021 282891 87070 0 136639-22974 194657-89483-9655 91897-41121 212804-154743 212804-56811 0-97932-22974-113665-78579h-193408zm316728-467894c76165 0 132976 58062 132976 136640 0 78579-56811 135390-132976 135390-76164 0-130562-56811-130562-136597 0-78578 54398-135433 130562-135433z"/><path class="fil2" d="M14105655 11864290h-395350c49569-49570 85863-66467 163234-116036 118450-74958 222417-135433 222417-290176 0-163192-120863-265952-310694-265952-232115 0-334874 137803-334874 345737h194657c0-83406 24182-169226 130562-169226 70130 0 113622 41078 113622 105174 0 70130-59225 105173-111208 140217-199485 133019-345737 193451-345737 424359v2414h673371v-176511z"/><path id="1" class="fil2" d="M14466909 11192126c-252675 0-346944 209140-346944 432807 0 267159 125691 427937 334875 427937 217589 0 344530-157158 344530-427937 0-269615-125734-432807-332461-432807zm-6034 165605c126941 0 140217 149916 140217 258754 0 97889-4828 271986-140217 271986-136597 0-142675-161985-142675-262331 0-183752 43535-268409 142675-268409z"/><path class="fil2" d="M16689394 11864290h-395349c49569-49570 85863-66467 163234-116036 118450-74958 222417-135433 222417-290176 0-163192-120864-265952-310694-265952-232115 0-334875 137803-334875 345737h194658c0-83406 24181-169226 130562-169226 70130 0 113622 41078 113622 105174 0 70130-59225 105173-111208 140217-199485 133019-345737 193451-345737 424359v2414h673370v-176511z"/><path id="1" class="fil2" d="M17207806 11198160h-170433c-16940 139054-118493 172891-247848 176511v151123h201899v515007h216382v-842641z"/><path class="fil2" d="M1628254 14348201h-395350c49569-49570 85863-66467 163235-116036 118449-74958 222416-135433 222416-290176 0-163192-120863-265952-310693-265952-232115 0-334875 137803-334875 345737h194657c0-83406 24182-169226 130562-169226 70130 0 113622 41078 113622 105174 0 70130-59224 105173-111208 140217-199485 133019-345737 193451-345737 424359v2414h673371v-176511z"/><path id="1" class="fil2" d="M2315935 14348201h-395350c49570-49570 85863-66467 163235-116036 118450-74958 222416-135433 222416-290176 0-163192-120863-265952-310693-265952-232115 0-334875 137803-334875 345737h194657c0-83406 24182-169226 130562-169226 70131 0 113623 41078 113623 105174 0 70130-59225 105173-111209 140217-199485 133019-345737 193451-345737 424359v2414h673371v-176511z"/><path class="fil2" d="M6616809 14360485h-395350c49569-49569 85863-66466 163235-116036 118450-74957 222416-135432 222416-290176 0-163191-120863-265951-310693-265951-232115 0-334875 137803-334875 345737h194657c0-83406 24182-169227 130562-169227 70131 0 113623 41079 113623 105174 0 70130-59225 105174-111209 140218-199485 133018-345737 193450-345737 424358v2414h673371v-176511z"/><path id="1" class="fil2" d="M7311731 14177940h-110001v-483584h-197071l-374747 464230v189830h366298v188580h205520v-188580h110001v-170476zm-309486 1207h-221253l221253-274443v274443z"/><path class="fil2" d="M4121346 14360485h-395350c49570-49569 85863-66466 163235-116036 118450-74957 222416-135432 222416-290176 0-163191-120863-265951-310693-265951-232115 0-334875 137803-334875 345737h194657c0-83406 24182-169227 130562-169227 70131 0 113623 41079 113623 105174 0 70130-59225 105174-111209 140218-199485 133018-345737 193450-345737 424358v2414h673371v-176511z"/><path id="1" class="fil2" d="M4346004 13973627c2414-80992 45949-123321 126941-123321 71294 0 118450 36294 118450 91898 0 43535-30216 74958-80992 82199-19354 2414-50777 4828-73751 4828-13276 0-18104 0-32630-1207v137847c44742-1207 49569-1207 61639-1207 85863 0 136639 39871 136639 106381 0 67673-51983 108794-135433 108794-106380 0-137803-53190-141424-145088h-195864v21768c0 205519 158407 296210 343366 296210 170433 0 342117-84656 342117-278064 0-96725-54398-164441-147502-188623 72544-18103 118493-79785 118493-161985 0-143838-122114-235735-313108-235735-192244 0-321599 108794-321599 285305h194658z"/><path class="fil2" d="M9116539 14360485h-395350c49570-49569 85863-66466 163235-116036 118450-74957 222417-135432 222417-290176 0-163191-120864-265951-310694-265951-232115 0-334875 137803-334875 345737h194658c0-83406 24181-169227 130562-169227 70130 0 113622 41079 113622 105174 0 70130-59225 105174-111208 140218-199486 133018-345738 193450-345738 424358v2414h673371v-176511z"/><path id="1" class="fil2" d="M9758271 13699184h-531946l-82199 471514h187373c31466-44741 74958-64095 129355-64095 84656 0 137846 54397 137846 140260 0 83406-55604 136597-141467 136597-79785 0-132976-39914-139010-105174h-201900c12113 186166 142675 270779 336082 270779 216426 0 351815-118449 351815-309486 0-168020-106380-274400-275650-274400-65259 0-105174 13276-170476 55604l25388-148709h374789v-172890z"/><path class="fil2" d="M11609588 14356822h-395350c49570-49570 85863-66467 163235-116036 118450-74958 222417-135433 222417-290177 0-163191-120864-265951-310694-265951-232115 0-334875 137803-334875 345737h194658c0-83406 24181-169226 130562-169226 70130 0 113622 41078 113622 105173 0 70131-59225 105174-111208 140218-199486 133019-345738 193450-345738 424359v2413h673371v-176510z"/><path id="1" class="fil2" d="M12292442 13913152c-26595-146295-134226-228494-298625-228494-232115 0-363884 165605-363884 454575 0 218795 97932 407419 339703 407419 184959 0 333668-108838 333668-304660 0-166855-116079-282891-280478-282891-84613 0-140217 25388-194614 88234 13276-95519 39871-210348 159571-210348 59225 0 91854 21768 111208 76165h193451zm-320392 195865c79785 0 135389 56811 135389 136596 0 79786-55604 137804-132976 137804-76164 0-130562-58018-130562-137804 0-78578 54398-136596 128149-136596z"/><path class="fil2" d="M14123155 14360485h-395350c49569-49569 85863-66466 163235-116036 118450-74957 222416-135432 222416-290176 0-163191-120863-265951-310693-265951-232115 0-334875 137803-334875 345737h194657c0-83406 24182-169227 130562-169227 70131 0 113623 41079 113623 105174 0 70130-59225 105174-111209 140218-199485 133018-345737 193450-345737 424358v2414h673371v-176511z"/><path id="1" class="fil2" d="M14781827 13699184h-612939v183795h403798c-168062 194615-267201 404962-280477 654017h221209c7242-263538 87070-477549 268409-669750v-168062z"/><path class="fil2" d="M16598747 14360485h-395350c49569-49569 85863-66466 163235-116036 118450-74957 222416-135432 222416-290176 0-163191-120863-265951-310693-265951-232115 0-334875 137803-334875 345737h194657c0-83406 24182-169227 130562-169227 70131 0 113623 41079 113623 105174 0 70130-59225 105174-111209 140218-199485 133018-345737 193450-345737 424358v2414h673371v-176511z"/><path id="1" class="fil2" d="M16769008 14092120c-95519 27802-162028 89441-162028 201899 0 159571 131769 257503 348194 257503 212761 0 343323-100346 343323-261167 0-103967-54397-170433-160778-198235 83406-25388 126941-85863 126941-175304 0-170476-163191-228494-308279-228494-142675 0-314315 64052-314315 233322 0 90690 49570 142674 126942 170476zm182545-257503c83406 0 131769 36250 131769 97932 0 62845-49570 102717-128148 102717-78579 0-130562-39872-130562-100303 0-60475 50776-100346 126941-100346zm-1207 328797c89441 0 145045 45949 145045 118493s-53190 117286-141424 117286c-87070 0-143881-45949-143881-118493 0-71337 55604-117286 140260-117286z"/><path class="fil2" d="M1628857 16844396h-395350c49570-49569 85863-66466 163235-116036 118450-74957 222417-135432 222417-290176 0-163191-120864-265951-310694-265951-232115 0-334875 137803-334875 345737h194658c0-83406 24181-169226 130562-169226 70130 0 113622 41078 113622 105173 0 70131-59225 105174-111208 140218-199486 133019-345738 193450-345738 424359v2413h673371v-176511z"/><path id="1" class="fil2" d="M1651616 16805732c19354 143838 134183 229701 303452 229701 229701 0 360263-164441 359056-454574 0-257504-128148-408626-345780-408626-192201 0-327590 126941-327590 305866 0 169226 111208 282891 278021 282891 87070 0 136639-22974 194657-89484-9655 91898-41121 212805-154743 212805-56811 0-97932-22975-113665-78579h-193408zm316728-467894c76165 0 132976 58061 132976 136640s-56811 135390-132976 135390-130562-56811-130562-136597c0-78579 54397-135433 130562-135433z"/><path class="fil2" d="M6245080 16469823c2414-80993 45949-123321 126941-123321 71294 0 118450 36294 118450 91898 0 43535-30216 74958-80992 82199-19354 2414-50777 4828-73751 4828-13276 0-18104 0-32630-1207v137847c44742-1207 49569-1207 61639-1207 85863 0 136639 39871 136639 106380 0 67674-51983 108795-135433 108795-106380 0-137803-53191-141424-145088h-195864v21767c0 205520 158407 296211 343366 296211 170433 0 342117-84656 342117-278064 0-96725-54398-164442-147502-188623 72544-18104 118493-79786 118493-161985 0-143838-122114-235736-313108-235736-192244 0-321599 108795-321599 285306h194658z"/><path id="1" class="fil2" d="M7226515 16190552h-170433c-16940 139053-118493 172890-247848 176511v151122h201899v515007h216382v-842640z"/><path class="fil2" d="M3661340 16469823c2414-80993 45949-123321 126941-123321 71294 0 118450 36294 118450 91898 0 43535-30216 74958-80992 82199-19354 2414-50777 4828-73751 4828-13276 0-18104 0-32630-1207v137847c44742-1207 49570-1207 61639-1207 85863 0 136639 39871 136639 106380 0 67674-51983 108795-135432 108795-106381 0-137804-53191-141425-145088h-195864v21767c0 205520 158407 296211 343366 296211 170433 0 342117-84656 342117-278064 0-96725-54398-164442-147502-188623 72544-18104 118493-79786 118493-161985 0-143838-122114-235736-313108-235736-192244 0-321599 108795-321599 285306h194658z"/><path id="1" class="fil2" d="M4485618 16184517c-252676 0-346944 209141-346944 432808 0 267158 125691 427936 334875 427936 217589 0 344530-157157 344530-427936 0-269616-125735-432808-332461-432808zm-6035 165606c126941 0 140217 149916 140217 258753 0 97889-4827 271986-140217 271986-136596 0-142674-161984-142674-262331 0-183752 43535-268408 142674-268408z"/><path class="fil3" d="M9288093 16190552h-170433c-16940 139053-118493 172890-247848 176511v151122h201899v515007h216382v-842640zM11953429 16856681h-395350c49569-49570 85863-66466 163235-116036 118449-74958 222416-135433 222416-290176 0-163192-120863-265952-310693-265952-232115 0-334875 137804-334875 345738h194657c0-83407 24182-169227 130562-169227 70131 0 113623 41078 113623 105174 0 70130-59225 105174-111209 140217-199485 133019-345737 193451-345737 424359v2414h673371v-176511zM13986472 16469823c2414-80993 45949-123321 126941-123321 71294 0 118450 36294 118450 91898 0 43535-30216 74958-80992 82199-19354 2414-50777 4828-73751 4828-13276 0-18104 0-32630-1207v137847c44742-1207 49570-1207 61639-1207 85863 0 136639 39871 136639 106380 0 67674-51983 108795-135432 108795-106381 0-137804-53191-141425-145088h-195864v21767c0 205520 158407 296211 343366 296211 170433 0 342117-84656 342117-278064 0-96725-54398-164442-147502-188623 72544-18104 118493-79786 118493-161985 0-143838-122114-235736-313108-235736-192244 0-321599 108795-321599 285306h194658zM16952846 16674136h-110001v-483584h-197072l-374746 464230v189830h366298v188580h205520v-188580h110001v-170476zm-309487 1207h-221252l221252-274444v274444z"/></g></g></svg>