<svg xmlns="http://www.w3.org/2000/svg" xml:space="preserve" width="160" height="160" style="shape-rendering:geometricPrecision;text-rendering:geometricPrecision;image-rendering:optimizeQuality;fill-rule:evenodd;clip-rule:evenodd" viewBox="0 0 591245 591245"><defs><style>.str0,.str1{stroke:#040507;stroke-width:1182.96}.str0{stroke:#0d0303}.fil0{fill:#fff}.fil2,.fil3{fill:#040507;fill-rule:nonzero}.fil3{fill:#bcbaba}</style></defs><g id="Слой_x0020_1"><g id="_2187875003536"><path class="fil0" d="M0 0h591245v591245H0z"/><path class="fil0 str0" d="M416938 174287h80877v80881h-80877zM497816 174287h80877v80881h-80877zM255184 174287h80877v80881h-80877zM336061 174287h80877v80881h-80877zM416938 255169h80877v80881h-80877zM497816 255169h80877v80881h-80877zM255184 255169h80877v80881h-80877zM336061 255169h80877v80881h-80877zM416938 336050h80877v80881h-80877zM497816 336050h80877v80881h-80877zM255184 336050h80877v80881h-80877zM336061 336050h80877v80881h-80877zM416938 416931h80877v80881h-80877zM497816 416931h80877v80881h-80877zM255184 416931h80877v80881h-80877zM336061 416931h80877v80881h-80877zM416938 497812h80877v80881h-80877zM497816 497812h80877v80881h-80877zM255184 497812h80877v80881h-80877zM336061 497812h80877v80881h-80877z"/><path class="str1" style="fill:#fa3737" d="M12551 12551h566142v110191H12551z"/><path class="fil2" d="M227281 75185h-6996c-48 985-148 1971-541 2710-394 838-1084 1380-2365 1380-1282 0-1972-592-2366-1380-838-1626-936-6011-936-10249 0-4237 98-8622 936-10248 394-788 1084-1380 2366-1380 1281 0 1971 493 2365 1331 393 739 493 1725 541 2709h6996c-146-3350-1329-6108-3152-7833-1774-1675-3844-2513-6750-2513-3795 0-6110 1577-7687 3548-2464 3005-2612 7636-2612 14386s148 11382 2612 14387c1577 1971 3892 3548 7687 3548 2906 0 4976-838 6750-2513 1823-1725 3006-4533 3152-7883z"/><path id="1" class="fil2" d="M246794 85187v-6307h-9164v-8228h7883v-6307h-7883v-7932h9164v-6307h-16161v35081z"/><path id="2" class="fil2" d="M270051 85187V50106h-6996v14092h-5814V50106h-6998v35081h6998V70504h5814v14683z"/><path id="3" class="fil2" d="M291731 56413v-6307h-18821v6307h5912v28774h6995V56413z"/><path id="4" class="fil2" d="M313510 85187V50106h-10003c-7637 0-9755 3992-9755 10691 0 3746 592 7095 3991 9214l-5124 15176h7292l4286-13648h2316v13648h6997zm-6997-19955h-2956c-2660 0-2808-2414-2808-4435 0-2019 148-4384 2808-4384h2956v8819z"/><path id="5" class="fil2" d="M337851 74003c0-6850-2267-11185-9855-11185h-2906v-6405h11036v-6307h-18034v35081h9904c7588 0 9855-4335 9855-11184zm-6998 0c0 2216-148 4877-2808 4877h-2955v-9756h2955c2660 0 2808 2661 2808 4879z"/><path id="6" class="fil2" d="M361008 61290c0-6847-2266-11184-9854-11184h-9904v35081h6997V72475h2907c7588 0 9854-4336 9854-11185zm-6997 0c0 2218-148 4879-2808 4879h-2956v-9756h2956c2660 0 2808 2661 2808 4877z"/><path id="7" class="fil2" d="M384166 74003c0-6850-2267-11185-9855-11185h-2906V50106h-6997v35081h9903c7588 0 9855-4335 9855-11184zm-6997 0c0 2216-98 4877-3055 4877h-2709v-9756h2709c2957 0 3055 2661 3055 4879z"/><path class="fil0 str0" d="M174306 174287h80877v80881h-80877zM12551 174287h80877v80881H12551zM93429 174287h80877v80881H93429z"/><path class="fil2" d="M59591 201225h-5523c-549 4506-3839 5602-8030 5720v4896h6541v16687h7012v-27303z"/><path class="fil0 str0" d="M174306 255169h80877v80881h-80877zM12551 255169h80877v80881H12551zM93429 255169h80877v80881H93429zM174306 336050h80877v80881h-80877zM12551 336050h80877v80881H12551zM93429 336050h80877v80881H93429zM174306 416931h80877v80881h-80877zM12551 416931h80877v80881H12551zM93429 416931h80877v80881H93429zM174306 497812h80877v80881h-80877zM12551 497812h80877v80881H12551zM93429 497812h80877v80881H93429z"/><path class="fil0 str1" d="M416938 122742h80877v51545h-80877z"/><path class="fil2" d="M444096 151266h-1434c-13 334-65 666-218 898-129 204-334 333-679 333-346 0-552-141-679-347-282-434-321-1357-321-3022 0-1666 39-2588 321-3024 127-205 333-345 679-345 345 0 550 127 679 333 153 217 205 550 218 884h1434c-25-808-270-1499-730-1922-410-384-910-589-1601-589-846 0-1397 333-1768 782-602 716-666 1716-666 3881s64 3163 666 3881c371 449 922 781 1768 781 691 0 1165-191 1575-576 461-423 731-1127 756-1948z"/><path id="1" class="fil2" d="M449406 144568h-1563l-1089 4214-1101-4214h-1563l1999 6160-205 743c-206 718-488 936-1281 936v1281c1460 0 1985-270 2395-1550l2408-7570z"/><path id="2" class="fil2" d="M454448 150909c0-1910-693-2767-2345-2767h-858v-2293h2805v-1281h-4240v9120h2293c1652 0 2345-872 2345-2779zm-1436 0c0 921-191 1486-961 1486h-806v-2960h806c770 0 961 550 961 1474z"/><path id="3" class="fil2" d="M459937 150909c0-1910-693-2767-2345-2767h-858v-2293h2805v-1281h-4240v9120h2293c1652 0 2345-872 2345-2779zm-1436 0c0 921-191 1486-961 1486h-806v-2960h806c770 0 961 550 961 1474z"/><path id="4" class="fil2" d="M465347 149128c0-2165-50-3165-666-3881-371-449-922-782-1767-782-846 0-1396 333-1768 782-602 729-666 1716-666 3881s64 3151 666 3881c372 449 922 781 1768 781 845 0 1396-332 1767-781 616-718 666-1716 666-3881zm-1434 0c0 1665-38 2588-307 3022-129 206-347 347-692 347-346 0-551-141-678-347-270-434-322-1357-322-3022 0-1666 52-2588 322-3024 127-205 332-345 678-345 345 0 563 140 692 345 269 436 307 1358 307 3024z"/><path id="5" class="fil2" d="M470095 145861v-1293h-4496v1293h1523v7827h1435v-7827z"/><path id="6" class="fil2" d="m475353 153688-2215-9120h-1397l-2241 9120h1511l359-1806h2113l371 1806h1499zm-2138-3101h-1563l781-3817 782 3817z"/><path class="fil0 str1" d="M497816 122742h80877v51545h-80877z"/><path class="fil2" d="M514302 151075c0-845-103-1397-525-1833-128-127-307-243-500-332 193-77 347-193 474-320 423-436 525-936 525-1589 0-986-154-1447-575-1870-372-384-924-563-1769-563h-2280v9120h2268c857 0 1409-193 1793-577 436-448 589-961 589-2036zm-1435-102c0 1063-320 1422-1088 1422h-692v-2845h692c768 0 1088 410 1088 1423zm-25-3883c0 872-295 1243-1038 1243h-717v-2472h717c743 0 1038 333 1038 1229z"/><path id="1" class="fil2" d="M519906 149128c0-2165-50-3165-666-3881-372-449-922-782-1767-782-847 0-1397 333-1768 782-602 729-666 1716-666 3881s64 3151 666 3881c371 449 921 781 1768 781 845 0 1395-332 1767-781 616-718 666-1716 666-3881zm-1435 0c0 1665-37 2588-307 3022-128 206-346 347-691 347-347 0-552-141-679-347-269-434-321-1357-321-3022 0-1666 52-2588 321-3024 127-205 332-345 679-345 345 0 563 140 691 345 270 436 307 1358 307 3024z"/><path id="2" class="fil2" d="M525305 151266h-1434c-13 334-64 666-218 898-128 204-334 333-679 333-346 0-551-141-679-347-282-434-321-1357-321-3022 0-1666 39-2588 321-3024 128-205 333-345 679-345 345 0 551 127 679 333 154 217 205 550 218 884h1434c-25-808-269-1499-730-1922-409-384-909-589-1601-589-846 0-1396 333-1768 782-602 716-666 1716-666 3881s64 3163 666 3881c372 449 922 781 1768 781 692 0 1165-191 1576-576 461-423 730-1127 755-1948z"/><path id="3" class="fil2" d="m531333 153688-2331-4817 2088-4303h-1512l-2049 4367 2216 4753h1588zm-3831 0v-9120h-1434v9120h1434z"/><path id="4" class="fil2" d="M536400 147347c0-1909-693-2779-2345-2779h-2293v9120h1436v-3574h857c1652 0 2345-859 2345-2767zm-1436 0c0 922-191 1474-960 1474h-806v-2960h806c769 0 960 563 960 1486z"/><path id="5" class="fil2" d="M540980 153688v-1293h-2395v-2653h2061v-1293h-2061v-2588h2395v-1293h-3831v9120z"/><path id="6" class="fil2" d="M546327 151266h-1434c-12 334-64 666-218 898-128 204-334 333-679 333-346 0-551-141-678-347-282-434-321-1357-321-3022 0-1666 39-2588 321-3024 127-205 332-345 678-345 345 0 551 127 679 333 154 217 206 550 218 884h1434c-25-808-269-1499-730-1922-409-384-909-589-1601-589-846 0-1396 333-1768 782-602 716-666 1716-666 3881s64 3163 666 3881c372 449 922 781 1768 781 692 0 1165-191 1576-576 461-423 730-1127 755-1948z"/><path id="7" class="fil2" d="M550934 153688v-1293h-2396v-2653h2062v-1293h-2062v-2588h2396v-1293h-3831v9120z"/><path id="8" class="fil2" d="M556410 153688v-9120h-1436v3842h-1779v-3842h-1436v9120h1436v-3983h1779v3983z"/><path id="9" class="fil2" d="M562168 150909c0-1910-693-2767-2345-2767h-857v-3574h-1436v9120h2293c1652 0 2345-872 2345-2779zm-1436 0c0 921-191 1486-960 1486h-806v-2960h806c769 0 960 550 960 1474z"/><path id="10" class="fil2" d="M566812 153688v-1293h-2395v-2653h2061v-1293h-2061v-2588h2395v-1293h-3831v9120z"/><path class="fil0 str1" d="M255184 122742h80877v51545h-80877z"/><path class="fil2" d="M282968 153688v-9120h-1436v4687c-294 39-511 64-805 64-616 0-911-230-911-1075v-3676h-1434v3817c0 1613 628 2216 2113 2216 334 0 680-14 1051-64v3151h1422z"/><path id="1" class="fil2" d="M287919 153688v-1293h-2395v-2653h2061v-1293h-2061v-2588h2395v-1293h-3831v9120z"/><path id="2" class="fil2" d="M292742 145861v-1293h-4496v1293h1524v7827h1434v-7827z"/><path id="3" class="fil2" d="M298014 151075c0-845-103-1397-525-1833-128-127-307-243-500-332 193-77 346-193 474-320 423-436 525-936 525-1589 0-986-154-1447-576-1870-371-384-923-563-1768-563h-2281v9120h2269c857 0 1409-193 1793-577 436-448 589-961 589-2036zm-1436-102c0 1063-319 1422-1088 1422h-691v-2845h691c769 0 1088 410 1088 1423zm-25-3883c0 872-294 1243-1037 1243h-717v-2472h717c743 0 1037 333 1037 1229z"/><path id="4" class="fil2" d="M302824 153688v-1293h-2395v-2653h2061v-1293h-2061v-2588h2395v-1293h-3831v9120z"/><path id="5" class="fil2" d="M308288 147347c0-1909-693-2779-2345-2779h-2293v9120h1435v-3574h858c1652 0 2345-859 2345-2767zm-1436 0c0 922-191 1474-961 1474h-806v-2960h806c770 0 961 563 961 1486z"/><path id="6" class="fil2" d="M312803 145861v-1293h-3766v9120h1435v-7827z"/><path class="fil0 str1" d="M336061 122742h80877v51545h-80877z"/><path class="fil2" d="M361627 153688v-9120h-4663v9120h1434v-7827h1793v7827z"/><path id="1" class="fil2" d="m363888 153688 1192-3740h805v3740h1436v-9120h-2306c-1666 0-2332 806-2332 2690 0 1127 232 1934 1064 2382l-1357 4048h1498zm231-6430c0-756 114-1397 884-1397h882v2792h-882c-770 0-884-640-884-1395z"/><path id="2" class="fil2" d="M372439 145861v-1293h-4496v1293h1523v7827h1435v-7827z"/><path id="3" class="fil2" d="M377711 153688v-9120h-1436v3842h-1779v-3842h-1436v9120h1436v-3983h1779v3983z"/><path id="4" class="fil2" d="m380099 153688 2050-5585v5585h1435v-9120h-1281l-2036 5585v-5585h-1436v9120z"/><path id="5" class="fil2" d="M390110 155520v-3125h-768v-7827h-1436v7827h-1766v-7827h-1436v9120h4049v1832z"/><path id="6" class="fil2" d="m395931 153688-2215-9120h-1396l-2242 9120h1511l359-1806h2113l372 1806h1498zm-2138-3101h-1563l781-3817 782 3817z"/><path class="fil0 str1" d="M174306 122742h80877v51545h-80877z"/><path class="fil2" d="M205865 151266h-1434c-13 334-64 666-218 898-129 204-334 333-679 333-346 0-552-141-679-347-282-434-321-1357-321-3022 0-1666 39-2588 321-3024 127-205 333-345 679-345 345 0 550 127 679 333 154 217 205 550 218 884h1434c-25-808-269-1499-730-1922-410-384-910-589-1601-589-846 0-1397 333-1768 782-602 716-666 1716-666 3881s64 3163 666 3881c371 449 922 781 1768 781 691 0 1165-191 1576-576 460-423 730-1127 755-1948z"/><path id="1" class="fil2" d="M211279 147347c0-1909-693-2779-2345-2779h-2294v9120h1436v-3574h858c1652 0 2345-859 2345-2767zm-1436 0c0 922-192 1474-961 1474h-806v-2960h806c769 0 961 563 961 1486z"/><path id="2" class="fil2" d="M215858 153688v-1293h-2395v-2653h2061v-1293h-2061v-2588h2395v-1293h-3831v9120z"/><path id="3" class="fil2" d="M222487 155417v-3022h-756v-7827h-4304v3406c0 1808-281 3215-756 4421h-589v3022h1357v-1729h3690v1729h1358zm-2190-3022h-2165c422-1141 666-2422 666-4062v-2484h1499v6546z"/><path id="4" class="fil2" d="m228322 153688-2215-9120h-1397l-2242 9120h1512l359-1806h2113l371 1806h1499zm-2139-3101h-1562l780-3817 782 3817z"/><path class="fil0 str1" d="M12551 122742h80877v51545H12551z"/><path class="fil2" d="M26927 153688v-9120h-4663v9120h1434v-7827h1794v7827z"/><path id="1" class="fil2" d="M32672 149128c0-2165-51-3165-667-3881-371-449-921-782-1766-782-847 0-1397 333-1768 782-602 729-667 1716-667 3881s65 3151 667 3881c371 449 921 781 1768 781 845 0 1395-332 1766-781 616-718 667-1716 667-3881zm-1435 0c0 1665-37 2588-307 3022-128 206-346 347-691 347-347 0-552-141-679-347-270-434-321-1357-321-3022 0-1666 51-2588 321-3024 127-205 332-345 679-345 345 0 563 140 691 345 270 436 307 1358 307 3024z"/><path id="2" class="fil2" d="M38200 153688v-9120h-1436v3842h-1779v-3842h-1436v9120h1436v-3983h1779v3983z"/><path id="3" class="fil2" d="M43151 153688v-1293h-2396v-2653h2062v-1293h-2062v-2588h2396v-1293h-3831v9120z"/><path id="4" class="fil2" d="M49779 155417v-3022h-755v-7827h-4305v3406c0 1808-281 3215-755 4421h-590v3022h1358v-1729h3690v1729h1357zm-2190-3022h-2165c422-1141 667-2422 667-4062v-2484h1498v6546z"/><path id="5" class="fil2" d="M54296 153688v-1293h-2395v-2653h2061v-1293h-2061v-2588h2395v-1293h-3831v9120z"/><path id="6" class="fil2" d="M60144 153688v-9120h-4267v5059c0 2587-576 2768-1229 2768h-129v1293h424c1280 0 2318-384 2318-3894v-3933h1447v7827h1436z"/><path id="7" class="fil2" d="M65902 150909c0-1910-693-2767-2345-2767h-858v-3574h-1435v9120h2293c1652 0 2345-872 2345-2779zm-1436 0c0 921-191 1486-961 1486h-806v-2960h806c770 0 961 550 961 1474z"/><path id="8" class="fil2" d="M71366 153688v-9120h-1436v3842h-1779v-3842h-1436v9120h1436v-3983h1779v3983z"/><path id="9" class="fil2" d="m73754 153688 2050-5585v5585h1435v-9120h-1281l-2036 5585v-5585h-1436v9120z"/><path id="10" class="fil2" d="m83611 153688-2331-4817 2088-4303h-1512l-2049 4367 2216 4753h1588zm-3831 0v-9120h-1434v9120h1434z"/><path class="fil0 str1" d="M93429 122742h80877v51545H93429z"/><path class="fil2" d="M119578 151075c0-845-104-1397-525-1833-129-127-308-243-500-332 192-77 346-193 473-320 423-436 525-936 525-1589 0-986-153-1447-575-1870-372-384-923-563-1768-563h-2281v9120h2268c858 0 1409-193 1793-577 436-448 590-961 590-2036zm-1436-102c0 1063-320 1422-1088 1422h-691v-2845h691c768 0 1088 410 1088 1423zm-25-3883c0 872-295 1243-1038 1243h-716v-2472h716c743 0 1038 333 1038 1229z"/><path id="1" class="fil2" d="M124425 145861v-1293h-4495v1293h1523v7827h1435v-7827z"/><path id="2" class="fil2" d="M129543 149128c0-2165-50-3165-666-3881-372-449-922-782-1767-782-847 0-1397 333-1768 782-602 729-667 1716-667 3881s65 3151 667 3881c371 449 921 781 1768 781 845 0 1395-332 1767-781 616-718 666-1716 666-3881zm-1435 0c0 1665-37 2588-307 3022-128 206-346 347-691 347-347 0-552-141-679-347-269-434-321-1357-321-3022 0-1666 52-2588 321-3024 127-205 332-345 679-345 345 0 563 140 691 345 270 436 307 1358 307 3024z"/><path id="3" class="fil2" d="M135058 147347c0-1909-693-2779-2345-2779h-2293v9120h1436v-3574h857c1652 0 2345-859 2345-2767zm-1436 0c0 922-191 1474-961 1474h-805v-2960h805c770 0 961 563 961 1486z"/><path id="4" class="fil2" d="M140458 153688v-9120h-1436v3842h-1780v-3842h-1435v9120h1435v-3983h1780v3983z"/><path id="5" class="fil2" d="m142846 153688 2050-5585v5585h1434v-9120h-1280l-2037 5585v-5585h-1435v9120z"/><path id="6" class="fil2" d="m152703 153688-2331-4817 2088-4303h-1512l-2049 4367 2216 4753h1588zm-3831 0v-9120h-1434v9120h1434z"/><path class="fil2" d="M211023 210672c78-2624 1489-3995 4113-3995 2310 0 3838 1176 3838 2977 0 1411-979 2429-2624 2664-627 78-1646 156-2390 156-430 0-587 0-1057-39v4466c1450-39 1606-39 1997-39 2782 0 4427 1292 4427 3447 0 2193-1684 3525-4388 3525-3447 0-4465-1723-4582-4701h-6347v706c0 6659 5133 9597 11126 9597 5522 0 11085-2743 11085-9009 0-3135-1762-5329-4779-6112 2350-587 3839-2585 3839-5249 0-4660-3956-7638-10145-7638-6229 0-10420 3525-10420 9244h6307zM145149 223207h-12810c1606-1606 2782-2153 5289-3760 3838-2428 7207-4388 7207-9402 0-5287-3917-8617-10067-8617-7521 0-10851 4465-10851 11202h6307c0-2702 784-5483 4231-5483 2272 0 3681 1331 3681 3408 0 2272-1919 3408-3603 4543-6464 4310-11202 6268-11202 13750v78h21818v-5719zM307138 217292h-3564v-15668h-6385l-12143 15041v6151h11869v6110h6659v-6110h3564v-5524zm-10027 40h-7169l7169-8893v8893zM386292 201780h-17236l-2664 15278h6072c1019-1450 2428-2077 4191-2077 2743 0 4466 1763 4466 4545 0 2702-1801 4426-4583 4426-2586 0-4309-1294-4505-3408h-6541c392 6032 4622 8774 10889 8774 7013 0 11400-3838 11400-10028 0-5444-3447-8891-8932-8891-2114 0-3408 430-5524 1801l823-4818h12144v-5602zM468501 208832c-862-4741-4349-7404-9676-7404-7521 0-11790 5366-11790 14729 0 7089 3173 13201 11007 13201 5993 0 10811-3526 10811-9871 0-5407-3761-9167-9088-9167-2742 0-4543 823-6306 2859 430-3095 1292-6815 5171-6815 1918 0 2976 705 3603 2468h6268zm-10381 6346c2585 0 4387 1841 4387 4426s-1802 4465-4309 4465c-2468 0-4230-1880-4230-4465 0-2546 1762-4426 4152-4426zM548596 201780h-19861v5955h13084c-5445 6306-8658 13122-9088 21191h7168c234-8539 2821-15473 8697-21701v-5445zM47841 294447c-3095 901-5250 2898-5250 6542 0 5170 4269 8344 11282 8344 6894 0 11124-3252 11124-8463 0-3368-1763-5522-5210-6423 2703-822 4114-2782 4114-5680 0-5524-5288-7404-9989-7404-4623 0-10185 2076-10185 7560 0 2939 1607 4623 4114 5524zm5914-8343c2703 0 4270 1174 4270 3173 0 2036-1606 3328-4152 3328s-4231-1292-4231-3250c0-1959 1646-3251 4113-3251zm-39 10653c2898 0 4700 1489 4700 3840 0 2350-1723 3800-4582 3800-2822 0-4662-1489-4662-3840 0-2311 1801-3800 4544-3800zM207540 281957h-5523c-549 4506-3839 5602-8030 5719v4897h6542v16687h7011v-27303z"/><path id="1" class="fil2" d="M224730 281761c-8188 0-11242 6777-11242 14024 0 8657 4073 13866 10851 13866 7050 0 11163-5092 11163-13866 0-8736-4074-14024-10772-14024zm-196 5366c4113 0 4543 4858 4543 8384 0 3172-156 8813-4543 8813-4426 0-4623-5248-4623-8500 0-5954 1411-8697 4623-8697z"/><path class="fil2" d="M123135 302288c627 4661 4348 7443 9832 7443 7443 0 11674-5329 11634-14729 0-8344-4152-13241-11203-13241-6228 0-10615 4114-10615 9911 0 5483 3603 9166 9008 9166 2822 0 4428-744 6308-2899-313 2977-1333 6895-5014 6895-1841 0-3173-744-3683-2546h-6267zm10263-15161c2467 0 4308 1882 4308 4428s-1841 4387-4308 4387c-2468 0-4231-1841-4231-4426 0-2546 1763-4389 4231-4389zM291259 281957h-5523c-549 4506-3839 5602-8030 5719v4897h6542v16687h7011v-27303z"/><path id="1" class="fil2" d="M313541 281957h-5523c-549 4506-3839 5602-8030 5719v4897h6542v16687h7011v-27303z"/><path class="fil2" d="M369392 281957h-5522c-549 4506-3839 5602-8031 5719v4897h6542v16687h7011v-27303z"/><path id="1" class="fil2" d="M397159 303541h-12810c1606-1606 2782-2154 5289-3760 3838-2429 7207-4388 7207-9402 0-5288-3916-8618-10067-8618-7521 0-10851 4466-10851 11203h6308c0-2703 783-5483 4230-5483 2272 0 3682 1331 3682 3408 0 2272-1919 3407-3604 4543-6463 4310-11202 6268-11202 13750v78h21818v-5719z"/><path class="fil2" d="M450171 281957h-5522c-549 4506-3839 5602-8031 5719v4897h6542v16687h7011v-27303z"/><path id="1" class="fil2" d="M462935 291006c79-2624 1489-3996 4113-3996 2311 0 3838 1176 3838 2978 0 1410-979 2428-2624 2663-627 78-1645 157-2389 157-431 0-587 0-1058-40v4467c1450-39 1606-39 1997-39 2783 0 4428 1292 4428 3447 0 2192-1685 3525-4388 3525-3447 0-4466-1724-4583-4701h-6346v705c0 6659 5132 9598 11125 9598 5523 0 11086-2743 11086-9010 0-3134-1763-5328-4780-6112 2351-586 3840-2585 3840-5248 0-4661-3957-7639-10146-7639-6229 0-10420 3526-10420 9245h6307z"/><path class="fil2" d="M531030 281957h-5522c-549 4506-3840 5602-8031 5719v4897h6542v16687h7011v-27303z"/><path id="1" class="fil2" d="M559031 297626h-3564v-15669h-6385l-12143 15042v6151h11869v6110h6659v-6110h3564v-5524zm-10028 39h-7169l7169-8892v8892z"/><path class="fil2" d="M45883 362441h-5523c-549 4506-3839 5602-8031 5720v4896h6542v16687h7012v-27303z"/><path id="1" class="fil2" d="M72160 362598H54924l-2663 15278h6071c1020-1450 2429-2077 4192-2077 2743 0 4466 1762 4466 4545 0 2702-1802 4425-4584 4425-2585 0-4308-1293-4504-3407h-6542c393 6032 4623 8773 10890 8773 7012 0 11399-3838 11399-10028 0-5444-3447-8891-8931-8891-2115 0-3408 431-5524 1802l823-4818h12143v-5602z"/><path class="fil2" d="M208108 362839h-5522c-549 4506-3840 5602-8031 5720v4896h6542v16687h7011v-27303z"/><path id="1" class="fil2" d="M234935 362996h-19860v5955h13083c-5445 6306-8657 13122-9088 21191h7168c235-8539 2821-15473 8697-21701v-5445z"/><path class="fil2" d="M126663 362839h-5522c-549 4506-3840 5602-8031 5720v4896h6542v16687h7011v-27303z"/><path id="1" class="fil2" d="M154273 370047c-862-4740-4349-7403-9676-7403-7521 0-11790 5366-11790 14729 0 7089 3173 13201 11007 13201 5993 0 10811-3527 10811-9872 0-5406-3761-9166-9088-9166-2741 0-4543 823-6306 2859 430-3095 1292-6815 5171-6815 1919 0 2976 705 3603 2467h6268zm-10381 6347c2585 0 4387 1841 4387 4426s-1802 4465-4309 4465c-2468 0-4230-1880-4230-4465 0-2546 1762-4426 4152-4426z"/><path class="fil2" d="M288320 362839h-5522c-549 4506-3840 5602-8031 5720v4896h6542v16687h7011v-27303z"/><path id="1" class="fil2" d="M299321 375728c-3094 900-5250 2898-5250 6541 0 5171 4270 8344 11283 8344 6893 0 11124-3251 11124-8462 0-3369-1763-5523-5210-6423 2703-823 4113-2783 4113-5681 0-5523-5287-7403-9988-7403-4623 0-10185 2075-10185 7560 0 2938 1606 4623 4113 5524zm5915-8344c2703 0 4270 1175 4270 3173 0 2037-1606 3328-4152 3328-2547 0-4231-1291-4231-3250s1645-3251 4113-3251zm-39 10654c2898 0 4700 1488 4700 3839s-1724 3800-4583 3800c-2821 0-4662-1489-4662-3839 0-2312 1802-3800 4545-3800z"/><path class="fil2" d="M369412 362839h-5522c-549 4506-3840 5602-8031 5720v4896h6542v16687h7011v-27303z"/><path id="1" class="fil2" d="M375634 383170c627 4661 4348 7443 9832 7443 7443 0 11674-5328 11634-14729 0-8344-4152-13240-11203-13240-6228 0-10615 4113-10615 9910 0 5484 3603 9167 9008 9167 2822 0 4428-745 6308-2900-313 2978-1333 6895-5014 6895-1841 0-3173-744-3683-2546h-6267zm10263-15160c2467 0 4308 1881 4308 4427s-1841 4387-4308 4387c-2468 0-4231-1841-4231-4426 0-2546 1763-4388 4231-4388z"/><path class="fil2" d="M457047 384423h-12810c1606-1606 2782-2154 5289-3760 3838-2428 7207-4388 7207-9402 0-5288-3916-8617-10067-8617-7521 0-10851 4465-10851 11202h6308c0-2702 783-5483 4230-5483 2272 0 3682 1331 3682 3408 0 2272-1919 3408-3604 4543-6463 4310-11202 6268-11202 13750v78h21818v-5719z"/><path id="1" class="fil2" d="M468752 362644c-8187 0-11241 6776-11241 14024 0 8656 4072 13865 10850 13865 7051 0 11164-5092 11164-13865 0-8736-4074-14024-10773-14024zm-195 5366c4113 0 4543 4857 4543 8384 0 3172-156 8813-4543 8813-4426 0-4623-5249-4623-8500 0-5954 1411-8697 4623-8697z"/><path class="fil2" d="M540765 384423h-12810c1606-1606 2782-2154 5289-3760 3838-2428 7206-4388 7206-9402 0-5288-3916-8617-10067-8617-7520 0-10850 4465-10850 11202h6307c0-2702 784-5483 4231-5483 2272 0 3681 1331 3681 3408 0 2272-1919 3408-3603 4543-6464 4310-11203 6268-11203 13750v78h21819v-5719z"/><path id="1" class="fil2" d="M557562 362839h-5522c-549 4506-3840 5602-8031 5720v4896h6542v16687h7011v-27303z"/><path class="fil2" d="M52758 464906H39948c1606-1606 2782-2154 5289-3760 3838-2428 7207-4388 7207-9402 0-5288-3916-8617-10067-8617-7521 0-10851 4465-10851 11202h6308c0-2702 783-5483 4230-5483 2272 0 3682 1331 3682 3408 0 2272-1919 3408-3604 4543-6463 4310-11202 6268-11202 13750v78h21818v-5719z"/><path id="1" class="fil2" d="M75040 464906H62230c1606-1606 2782-2154 5289-3760 3838-2428 7207-4388 7207-9402 0-5288-3916-8617-10067-8617-7521 0-10851 4465-10851 11202h6308c0-2702 783-5483 4230-5483 2272 0 3682 1331 3682 3408 0 2272-1919 3408-3604 4543-6463 4310-11202 6268-11202 13750v78h21818v-5719z"/><path class="fil2" d="M214396 465304h-12810c1606-1606 2782-2154 5289-3760 3838-2428 7207-4388 7207-9402 0-5288-3917-8617-10067-8617-7521 0-10851 4465-10851 11202h6307c0-2702 784-5483 4231-5483 2272 0 3681 1331 3681 3408 0 2272-1919 3408-3603 4543-6464 4310-11203 6268-11203 13750v78h21819v-5719z"/><path id="1" class="fil2" d="M236912 459389h-3564v-15669h-6385l-12143 15042v6151h11869v6110h6659v-6110h3564v-5524zm-10027 39h-7169l7169-8892v8892z"/><path class="fil2" d="M133539 465304h-12810c1606-1606 2782-2154 5289-3760 3838-2428 7206-4388 7206-9402 0-5288-3916-8617-10067-8617-7521 0-10850 4465-10850 11202h6307c0-2702 784-5483 4230-5483 2273 0 3682 1331 3682 3408 0 2272-1919 3408-3603 4543-6464 4310-11203 6268-11203 13750v78h21819v-5719z"/><path id="1" class="fil2" d="M140818 452769c78-2624 1489-3996 4113-3996 2310 0 3838 1176 3838 2978 0 1411-979 2429-2624 2663-627 79-1646 157-2390 157-430 0-587 0-1057-39v4466c1449-39 1606-39 1997-39 2782 0 4427 1292 4427 3447 0 2193-1684 3525-4388 3525-3447 0-4465-1723-4582-4701h-6347v705c0 6660 5133 9598 11126 9598 5522 0 11085-2743 11085-9010 0-3134-1762-5328-4779-6111 2350-587 3839-2586 3839-5249 0-4661-3956-7638-10145-7638-6229 0-10420 3525-10420 9244h6307z"/><path class="fil2" d="M295391 465304h-12810c1606-1606 2782-2154 5289-3760 3838-2428 7207-4388 7207-9402 0-5288-3916-8617-10067-8617-7521 0-10850 4465-10850 11202h6307c0-2702 783-5483 4230-5483 2273 0 3682 1331 3682 3408 0 2272-1919 3408-3604 4543-6463 4310-11202 6268-11202 13750v78h21818v-5719z"/><path id="1" class="fil2" d="M316185 443877h-17236l-2664 15278h6071c1020-1450 2429-2077 4192-2077 2743 0 4466 1762 4466 4545 0 2702-1802 4425-4584 4425-2585 0-4308-1293-4504-3407h-6542c393 6032 4623 8773 10890 8773 7012 0 11399-3838 11399-10028 0-5444-3447-8891-8931-8891-2115 0-3408 431-5524 1802l823-4818h12144v-5602z"/><path class="fil2" d="M376170 465185h-12810c1606-1606 2782-2153 5289-3759 3838-2429 7207-4389 7207-9403 0-5287-3916-8617-10067-8617-7521 0-10850 4465-10850 11203h6307c0-2703 783-5484 4230-5484 2273 0 3682 1331 3682 3408 0 2273-1919 3408-3604 4543-6463 4310-11202 6269-11202 13750v79h21818v-5720z"/><path id="1" class="fil2" d="M398296 450810c-862-4740-4349-7404-9676-7404-7521 0-11790 5366-11790 14729 0 7089 3173 13201 11006 13201 5993 0 10812-3526 10812-9871 0-5407-3761-9166-9088-9166-2742 0-4543 822-6306 2858 430-3095 1292-6815 5170-6815 1919 0 2977 705 3604 2468h6268zm-10381 6346c2585 0 4387 1841 4387 4426s-1802 4465-4309 4465c-2468 0-4231-1880-4231-4465 0-2546 1763-4426 4153-4426z"/><path class="fil2" d="M457614 465304h-12810c1606-1606 2782-2154 5289-3760 3838-2428 7207-4388 7207-9402 0-5288-3916-8617-10067-8617-7521 0-10851 4465-10851 11202h6308c0-2702 783-5483 4230-5483 2272 0 3682 1331 3682 3408 0 2272-1919 3408-3604 4543-6463 4310-11202 6268-11202 13750v78h21818v-5719z"/><path id="1" class="fil2" d="M478956 443877h-19860v5955h13084c-5446 6306-8658 13122-9088 21191h7167c235-8539 2822-15473 8697-21701v-5445z"/><path class="fil2" d="M537828 465304h-12810c1606-1606 2782-2154 5289-3760 3838-2428 7206-4388 7206-9402 0-5288-3916-8617-10067-8617-7521 0-10850 4465-10850 11202h6307c0-2702 784-5483 4230-5483 2273 0 3682 1331 3682 3408 0 2272-1919 3408-3603 4543-6464 4310-11203 6268-11203 13750v78h21819v-5719z"/><path id="1" class="fil2" d="M543344 456609c-3095 900-5250 2898-5250 6541 0 5171 4270 8344 11282 8344 6894 0 11125-3251 11125-8462 0-3369-1763-5523-5210-6423 2703-823 4113-2783 4113-5681 0-5523-5287-7403-9989-7403-4622 0-10184 2075-10184 7560 0 2938 1606 4623 4113 5524zm5915-8344c2703 0 4270 1175 4270 3173 0 2037-1607 3328-4153 3328s-4230-1291-4230-3250 1645-3251 4113-3251zm-39 10654c2898 0 4700 1488 4700 3839s-1724 3800-4583 3800c-2821 0-4662-1489-4662-3839 0-2312 1802-3800 4545-3800z"/><path class="fil2" d="M52778 545787H39968c1606-1606 2782-2154 5289-3760 3838-2429 7206-4388 7206-9402 0-5288-3916-8617-10067-8617-7520 0-10850 4465-10850 11202h6307c0-2702 784-5483 4231-5483 2272 0 3681 1331 3681 3408 0 2272-1919 3408-3603 4543-6464 4310-11203 6268-11203 13750v78h21819v-5719z"/><path id="1" class="fil2" d="M53515 544534c627 4661 4348 7443 9833 7443 7442 0 11673-5328 11634-14729 0-8344-4153-13240-11204-13240-6228 0-10615 4113-10615 9910 0 5484 3604 9166 9009 9166 2821 0 4427-744 6307-2899-313 2978-1333 6895-5014 6895-1841 0-3173-744-3683-2546h-6267zm10263-15160c2468 0 4308 1881 4308 4427s-1840 4387-4308 4387-4231-1841-4231-4426c0-2546 1763-4388 4231-4388z"/><path class="fil2" d="M202351 533650c78-2624 1489-3996 4113-3996 2310 0 3838 1176 3838 2978 0 1411-979 2429-2624 2663-627 79-1645 157-2390 157-430 0-586 0-1057-39v4466c1450-39 1606-39 1997-39 2782 0 4428 1292 4428 3447 0 2193-1685 3525-4389 3525-3447 0-4465-1723-4582-4701h-6346v705c0 6660 5132 9598 11125 9598 5523 0 11085-2743 11085-9010 0-3134-1762-5328-4779-6111 2351-587 3839-2586 3839-5249 0-4661-3956-7638-10145-7638-6229 0-10420 3525-10420 9244h6307z"/><path id="1" class="fil2" d="M234151 524601h-5522c-549 4506-3839 5602-8031 5720v4896h6542v16687h7011v-27303z"/><path class="fil2" d="M118634 533650c78-2624 1488-3996 4113-3996 2310 0 3838 1176 3838 2978 0 1411-979 2429-2625 2663-627 79-1645 157-2389 157-430 0-587 0-1057-39v4466c1449-39 1606-39 1997-39 2782 0 4427 1292 4427 3447 0 2193-1684 3525-4388 3525-3447 0-4465-1723-4583-4701h-6346v705c0 6660 5133 9598 11126 9598 5522 0 11085-2743 11085-9010 0-3134-1763-5328-4779-6111 2350-587 3839-2586 3839-5249 0-4661-3957-7638-10145-7638-6229 0-10421 3525-10421 9244h6308z"/><path id="1" class="fil2" d="M145342 524406c-8188 0-11242 6776-11242 14023 0 8657 4073 13866 10851 13866 7050 0 11163-5092 11163-13866 0-8736-4074-14023-10772-14023zm-196 5366c4113 0 4543 4857 4543 8384 0 3172-156 8813-4543 8813-4426 0-4623-5249-4623-8500 0-5954 1411-8697 4623-8697z"/><path class="fil3" d="M300950 524601h-5522c-549 4506-3840 5602-8031 5720v4896h6542v16687h7011v-27303zM387311 546185h-12810c1606-1606 2782-2154 5289-3760 3838-2428 7207-4388 7207-9402 0-5288-3916-8617-10067-8617-7521 0-10850 4465-10850 11202h6307c0-2702 783-5483 4230-5483 2273 0 3682 1331 3682 3408 0 2272-1919 3408-3604 4543-6463 4310-11202 6268-11202 13750v78h21818v-5719zM453185 533650c79-2624 1489-3996 4114-3996 2310 0 3837 1176 3837 2978 0 1411-979 2429-2624 2663-627 79-1645 157-2389 157-431 0-587 0-1058-39v4466c1450-39 1606-39 1997-39 2783 0 4428 1292 4428 3447 0 2193-1685 3525-4388 3525-3447 0-4465-1723-4583-4701h-6346v705c0 6660 5133 9598 11126 9598 5522 0 11085-2743 11085-9010 0-3134-1763-5328-4780-6111 2351-587 3840-2586 3840-5249 0-4661-3957-7638-10145-7638-6230 0-10421 3525-10421 9244h6307zM549301 540270h-3564v-15669h-6386l-12142 15042v6151h11869v6110h6659v-6110h3564v-5524zm-10028 39h-7169l7169-8892v8892z"/></g></g></svg>