<svg xmlns="http://www.w3.org/2000/svg" xml:space="preserve" width="160" height="160" style="shape-rendering:geometricPrecision;text-rendering:geometricPrecision;image-rendering:optimizeQuality;fill-rule:evenodd;clip-rule:evenodd" viewBox="0 0 1570223 1570223"><defs><style>.str0,.str1{stroke:#040507;stroke-width:3141.69}.str0{stroke:#0d0303}.fil1{fill:#fa3737}.fil0{fill:#fff}.fil2,.fil3{fill:#040507;fill-rule:nonzero}.fil3{fill:#b02828}</style></defs><g id="Слой_x0020_1"><g id="_2188160377840"><path class="fil0" d="M1-1h1570223v1570223H1z"/><path class="fil1 str0" d="M1107301 462871h214793v214802h-214793zM1322095 462871h214793v214802h-214793zM677714 462871h214793v214802H677714zM892508 462871h214793v214802H892508zM1107301 677675h214793v214802h-214793zM1322095 677675h214793v214802h-214793zM677714 677675h214793v214802H677714zM892508 677675h214793v214802H892508zM1107301 892478h214793v214802h-214793zM1322095 892478h214793v214802h-214793zM677714 892478h214793v214802H677714zM892508 892478h214793v214802H892508zM1107301 1107282h214793v214802h-214793zM1322095 1107282h214793v214802h-214793zM677714 1107282h214793v214802H677714zM892508 1107282h214793v214802H892508zM1107301 1322085h214793v214802h-214793zM1322095 1322085h214793v214802h-214793zM677714 1322085h214793v214802H677714zM892508 1322085h214793v214802H892508z"/><path class="fil0 str1" d="M33334 33333h1503554v292645H33334z"/><path class="fil2" d="M603612 199677h-18580c-130 2615-393 5234-1439 7196-1046 2225-2878 3664-6280 3664-3405 0-5237-1572-6283-3664-2225-4318-2485-15965-2485-27218 0-11254 260-22901 2485-27218 1046-2092 2878-3665 6283-3665 3402 0 5234 1309 6280 3535 1046 1962 1309 4581 1439 7196h18580c-390-8899-3532-16224-8372-20805-4711-4448-10208-6673-17927-6673-10077 0-16227 4188-20415 9421-6543 7982-6936 20282-6936 38209 0 17926 393 30226 6936 38208 4188 5234 10338 9421 20415 9421 7719 0 13216-2225 17927-6672 4840-4581 7982-12040 8372-20935z"/><path id="1" class="fil2" d="M655433 226238v-16750h-24336v-21851h20934v-16751h-20934v-21064h24336v-16751h-42919v93167z"/><path id="2" class="fil2" d="M717198 226238v-93167h-18579v37426h-15442v-37426h-18583v93167h18583v-38994h15442v38994z"/><path id="3" class="fil2" d="M774776 149822v-16751h-49985v16751h15701v76416h18579v-76416z"/><path id="4" class="fil2" d="M832617 226238v-93167h-26565c-20282 0-25909 10601-25909 28394 0 9948 1573 18843 10601 24469l-13609 40304h19366l11383-36246h6150v36246h18583zm-18583-52996h-7849c-7066 0-7459-6410-7459-11777 0-5364 393-11643 7459-11643h7849v23420z"/><path id="5" class="fil2" d="M897261 196535c0-18190-6020-29703-26172-29703h-7719v-17010h29310v-16751h-47893v93167h26302c20152 0 26172-11513 26172-29703zm-18583 0c0 5887-393 12953-7459 12953h-7849v-25909h7849c7066 0 7459 7066 7459 12956z"/><path id="6" class="fil2" d="M958763 162774c0-18186-6020-29703-26172-29703h-26302v93167h18583v-33761h7719c20152 0 26172-11513 26172-29703zm-18583 0c0 5890-393 12956-7459 12956h-7849v-25908h7849c7066 0 7459 7066 7459 12952z"/><path id="7" class="fil2" d="M1020265 196535c0-18190-6020-29703-26172-29703h-7719v-33761h-18583v93167h26302c20152 0 26172-11513 26172-29703zm-18583 0c0 5887-260 12953-8112 12953h-7196v-25909h7196c7852 0 8112 7066 8112 12956z"/><path class="fil1 str0" d="M462921 462871h214793v214802H462921zM33334 462871h214793v214802H33334zM248127 462871h214793v214802H248127z"/><path class="fil2" d="M158260 534413h-14666c-1458 11966-10197 14877-21328 15189v13004h17374v44318h18620v-72511z"/><path class="fil1 str0" d="M462921 677675h214793v214802H462921zM33334 677675h214793v214802H33334zM248127 677675h214793v214802H248127zM462921 892478h214793v214802H462921zM33334 892478h214793v214802H33334zM248127 892478h214793v214802H248127zM462921 1107282h214793v214802H462921zM33334 1107282h214793v214802H33334zM248127 1107282h214793v214802H248127zM462921 1322085h214793v214802H462921zM33334 1322085h214793v214802H33334zM248127 1322085h214793v214802H248127z"/><path class="fil0 str1" d="M1107301 325978h214793v136894h-214793z"/><path class="fil2" d="M1179426 401731h-3809c-33 887-170 1770-578 2385-342 542-887 883-1803 883-920 0-1465-374-1803-920-749-1153-853-3605-853-8026 0-4425 104-6873 853-8031 338-545 883-916 1803-916 916 0 1461 338 1803 883 408 578 545 1461 578 2348h3809c-66-2144-715-3980-1939-5104-1087-1020-2415-1565-4251-1565-2248 0-3709 886-4696 2077-1599 1903-1769 4558-1769 10308 0 5749 170 8401 1769 10307 987 1191 2448 2074 4696 2074 1836 0 3093-508 4184-1528 1224-1124 1940-2994 2006-5175z"/><path id="1" class="fil2" d="M1193529 383942h-4151l-2893 11191-2923-11191h-4150l5307 16361-545 1974c-545 1906-1294 2485-3401 2485v3401c3876 0 5271-716 6361-4117l6395-20104z"/><path id="2" class="fil2" d="M1206919 400782c0-5071-1840-7348-6228-7348h-2277v-6091h7448v-3401h-11261v24221h6090c4388 0 6228-2314 6228-7381zm-3813 0c0 2448-508 3946-2552 3946h-2140v-7859h2140c2044 0 2552 1461 2552 3913z"/><path id="3" class="fil2" d="M1221496 400782c0-5071-1840-7348-6228-7348h-2277v-6091h7448v-3401h-11261v24221h6090c4388 0 6228-2314 6228-7381zm-3813 0c0 2448-508 3946-2552 3946h-2140v-7859h2140c2044 0 2552 1461 2552 3913z"/><path id="4" class="fil2" d="M1235866 396053c0-5750-134-8405-1770-10308-986-1191-2448-2077-4692-2077-2248 0-3709 886-4696 2077-1598 1936-1769 4558-1769 10308 0 5749 171 8368 1769 10307 987 1191 2448 2074 4696 2074 2244 0 3706-883 4692-2074 1636-1906 1770-4558 1770-10307zm-3810 0c0 4421-100 6873-816 8026-341 546-920 920-1836 920-920 0-1465-374-1803-920-715-1153-853-3605-853-8026 0-4425 138-6873 853-8031 338-545 883-916 1803-916 916 0 1495 371 1836 916 716 1158 816 3606 816 8031z"/><path id="5" class="fil2" d="M1248473 387377v-3435h-11940v3435h4047v20786h3809v-20786z"/><path id="6" class="fil2" d="m1262438 408163-5883-24221h-3709l-5953 24221h4013l954-4796h5612l986 4796h3980zm-5679-8234h-4150l2073-10137 2077 10137z"/><path class="fil0 str1" d="M1322095 325978h214793v136894h-214793z"/><path class="fil2" d="M1365880 401223c0-2244-274-3709-1395-4866-341-338-816-646-1327-883 511-204 919-512 1257-849 1124-1158 1395-2486 1395-4221 0-2619-408-3843-1529-4967-986-1020-2451-1495-4695-1495h-6057v24221h6023c2278 0 3743-512 4763-1532 1157-1190 1565-2552 1565-5408zm-3813-271c0 2823-849 3776-2889 3776h-1836v-7555h1836c2040 0 2889 1090 2889 3779zm-67-10311c0 2314-782 3301-2756 3301h-1902v-6565h1902c1974 0 2756 883 2756 3264z"/><path id="1" class="fil2" d="M1380761 396053c0-5750-133-8405-1769-10308-987-1191-2448-2077-4692-2077-2248 0-3709 886-4696 2077-1599 1936-1769 4558-1769 10308 0 5749 170 8368 1769 10307 987 1191 2448 2074 4696 2074 2244 0 3705-883 4692-2074 1636-1906 1769-4558 1769-10307zm-3809 0c0 4421-100 6873-816 8026-341 546-920 920-1836 920-920 0-1465-374-1803-920-716-1153-853-3605-853-8026 0-4425 137-6873 853-8031 338-545 883-916 1803-916 916 0 1495 371 1836 916 716 1158 816 3606 816 8031z"/><path id="2" class="fil2" d="M1395101 401731h-3809c-34 887-171 1770-579 2385-341 542-886 883-1803 883-919 0-1465-374-1802-920-749-1153-853-3605-853-8026 0-4425 104-6873 853-8031 337-545 883-916 1802-916 917 0 1462 338 1803 883 408 578 545 1461 579 2348h3809c-67-2144-716-3980-1940-5104-1087-1020-2414-1565-4251-1565-2247 0-3709 886-4695 2077-1599 1903-1770 4558-1770 10308 0 5749 171 8401 1770 10307 986 1191 2448 2074 4695 2074 1837 0 3094-508 4184-1528 1224-1124 1940-2994 2007-5175z"/><path id="3" class="fil2" d="m1411110 408163-6191-12793 5546-11428h-4017l-5442 11599 5887 12622h4217zm-10174 0v-24221h-3810v24221h3810z"/><path id="4" class="fil2" d="M1424567 391323c0-5070-1840-7381-6228-7381h-6090v24221h3813v-9492h2277c4388 0 6228-2281 6228-7348zm-3813 0c0 2448-508 3914-2552 3914h-2140v-7860h2140c2044 0 2552 1495 2552 3946z"/><path id="5" class="fil2" d="M1436729 408163v-3435h-6361v-7043h5475v-3435h-5475v-6873h6361v-3435h-10174v24221z"/><path id="6" class="fil2" d="M1450932 401731h-3809c-34 887-171 1770-579 2385-341 542-887 883-1803 883-920 0-1465-374-1802-920-750-1153-854-3605-854-8026 0-4425 104-6873 854-8031 337-545 882-916 1802-916 916 0 1462 338 1803 883 408 578 545 1461 579 2348h3809c-67-2144-716-3980-1940-5104-1087-1020-2415-1565-4251-1565-2248 0-3709 886-4696 2077-1598 1903-1769 4558-1769 10308 0 5749 171 8401 1769 10307 987 1191 2448 2074 4696 2074 1836 0 3094-508 4184-1528 1224-1124 1940-2994 2007-5175z"/><path id="7" class="fil2" d="M1463165 408163v-3435h-6361v-7043h5474v-3435h-5474v-6873h6361v-3435h-10175v24221z"/><path id="8" class="fil2" d="M1477709 408163v-24221h-3814v10204h-4725v-10204h-3813v24221h3813v-10578h4725v10578z"/><path id="9" class="fil2" d="M1493002 400782c0-5071-1840-7348-6228-7348h-2278v-9492h-3813v24221h6091c4388 0 6228-2314 6228-7381zm-3814 0c0 2448-508 3946-2551 3946h-2141v-7859h2141c2043 0 2551 1461 2551 3913z"/><path id="10" class="fil2" d="M1505335 408163v-3435h-6362v-7043h5475v-3435h-5475v-6873h6362v-3435h-10175v24221z"/><path class="fil0 str1" d="M677714 325978h214793v136894H677714z"/><path class="fil2" d="M751504 408163v-24221h-3813v12448c-782 104-1357 171-2140 171-1636 0-2418-612-2418-2856v-9763h-3810v10137c0 4284 1670 5887 5612 5887 887 0 1807-37 2794-171v8368h3775z"/><path id="1" class="fil2" d="M764654 408163v-3435h-6362v-7043h5475v-3435h-5475v-6873h6362v-3435h-10175v24221z"/><path id="2" class="fil2" d="M777461 387377v-3435h-11940v3435h4047v20786h3810v-20786z"/><path id="3" class="fil2" d="M791464 401223c0-2244-275-3709-1395-4866-341-338-816-646-1328-883 512-204 920-512 1257-849 1124-1158 1395-2486 1395-4221 0-2619-408-3843-1528-4967-987-1020-2452-1495-4696-1495h-6057v24221h6024c2277 0 3742-512 4762-1532 1158-1190 1566-2552 1566-5408zm-3813-271c0 2823-850 3776-2890 3776h-1836v-7555h1836c2040 0 2890 1090 2890 3779zm-67-10311c0 2314-783 3301-2756 3301h-1903v-6565h1903c1973 0 2756 883 2756 3264z"/><path id="4" class="fil2" d="M804238 408163v-3435h-6361v-7043h5475v-3435h-5475v-6873h6361v-3435h-10174v24221z"/><path id="5" class="fil2" d="M818748 391323c0-5070-1839-7381-6227-7381h-6091v24221h3813v-9492h2278c4388 0 6227-2281 6227-7348zm-3813 0c0 2448-508 3914-2552 3914h-2140v-7860h2140c2044 0 2552 1495 2552 3946z"/><path id="6" class="fil2" d="M830740 387377v-3435h-10003v24221h3813v-20786z"/><path class="fil0 str1" d="M892508 325978h214793v136894H892508z"/><path class="fil2" d="M960406 408163v-24221h-12385v24221h3809v-20786h4763v20786z"/><path id="1" class="fil2" d="m966411 408163 3164-9933h2140v9933h3814v-24221h-6124c-4425 0-6195 2140-6195 7144 0 2993 616 5137 2827 6328l-3606 10749h3980zm612-17077c0-2007 304-3709 2348-3709h2344v7415h-2344c-2044 0-2348-1699-2348-3706z"/><path id="2" class="fil2" d="M989119 387377v-3435h-11940v3435h4047v20786h3809v-20786z"/><path id="3" class="fil2" d="M1003121 408163v-24221h-3813v10204h-4725v-10204h-3813v24221h3813v-10578h4725v10578z"/><path id="4" class="fil2" d="m1009464 408163 5445-14833v14833h3809v-24221h-3401l-5408 14833v-14833h-3813v24221z"/><path id="5" class="fil2" d="M1036051 413030v-8302h-2040v-20786h-3813v20786h-4692v-20786h-3813v24221h10753v4867z"/><path id="6" class="fil2" d="m1051511 408163-5882-24221h-3710l-5953 24221h4013l954-4796h5612l986 4796h3980zm-5678-8234h-4151l2073-10137 2078 10137z"/><path class="fil0 str1" d="M462921 325978h214793v136894H462921z"/><path class="fil2" d="M546735 401731h-3810c-33 887-170 1770-578 2385-341 542-887 883-1803 883-920 0-1465-374-1802-920-750-1153-854-3605-854-8026 0-4425 104-6873 854-8031 337-545 882-916 1802-916 916 0 1462 338 1803 883 408 578 545 1461 578 2348h3810c-67-2144-716-3980-1940-5104-1087-1020-2415-1565-4251-1565-2248 0-3709 886-4696 2077-1598 1903-1769 4558-1769 10308 0 5749 171 8401 1769 10307 987 1191 2448 2074 4696 2074 1836 0 3094-508 4184-1528 1224-1124 1940-2994 2007-5175z"/><path id="1" class="fil2" d="M561112 391323c0-5070-1840-7381-6228-7381h-6091v24221h3813v-9492h2278c4388 0 6228-2281 6228-7348zm-3813 0c0 2448-509 3914-2552 3914h-2141v-7860h2141c2043 0 2552 1495 2552 3946z"/><path id="2" class="fil2" d="M573274 408163v-3435h-6361v-7043h5475v-3435h-5475v-6873h6361v-3435h-10174v24221z"/><path id="3" class="fil2" d="M590878 412755v-8027h-2007v-20786h-11431v9047c0 4800-746 8538-2007 11739h-1565v8027h3605v-4592h9800v4592h3605zm-5816-8027h-5749c1120-3030 1769-6431 1769-10786v-6599h3980v17385z"/><path id="4" class="fil2" d="m606375 408163-5883-24221h-3709l-5953 24221h4013l953-4796h5612l987 4796h3980zm-5679-8234h-4150l2073-10137 2077 10137z"/><path class="fil0 str1" d="M33334 325978h214793v136894H33334z"/><path class="fil2" d="M71513 408163v-24221H59128v24221h3810v-20786h4762v20786z"/><path id="1" class="fil2" d="M86769 396053c0-5750-133-8405-1769-10308-987-1191-2448-2077-4692-2077-2248 0-3709 886-4696 2077-1599 1936-1769 4558-1769 10308 0 5749 170 8368 1769 10307 987 1191 2448 2074 4696 2074 2244 0 3705-883 4692-2074 1636-1906 1769-4558 1769-10307zm-3809 0c0 4421-100 6873-816 8026-341 546-920 920-1836 920-920 0-1465-374-1803-920-716-1153-853-3605-853-8026 0-4425 137-6873 853-8031 338-545 883-916 1803-916 916 0 1495 371 1836 916 716 1158 816 3606 816 8031z"/><path id="2" class="fil2" d="M101450 408163v-24221h-3813v10204h-4725v-10204h-3814v24221h3814v-10578h4725v10578z"/><path id="3" class="fil2" d="M114599 408163v-3435h-6361v-7043h5475v-3435h-5475v-6873h6361v-3435h-10174v24221z"/><path id="4" class="fil2" d="M132203 412755v-8027h-2007v-20786h-11431v9047c0 4800-746 8538-2007 11739h-1565v8027h3605v-4592h9800v4592h3605zm-5816-8027h-5749c1120-3030 1769-6431 1769-10786v-6599h3980v17385z"/><path id="5" class="fil2" d="M144199 408163v-3435h-6362v-7043h5475v-3435h-5475v-6873h6362v-3435h-10175v24221z"/><path id="6" class="fil2" d="M159729 408163v-24221h-11332v13435c0 6873-1528 7351-3264 7351h-341v3435h1124c3401 0 6157-1020 6157-10341v-10445h3843v20786h3813z"/><path id="7" class="fil2" d="M175022 400782c0-5071-1840-7348-6228-7348h-2277v-9492h-3813v24221h6090c4388 0 6228-2314 6228-7381zm-3813 0c0 2448-508 3946-2552 3946h-2140v-7859h2140c2044 0 2552 1461 2552 3913z"/><path id="8" class="fil2" d="M189532 408163v-24221h-3813v10204h-4725v-10204h-3813v24221h3813v-10578h4725v10578z"/><path id="9" class="fil2" d="m195875 408163 5445-14833v14833h3809v-24221h-3401l-5408 14833v-14833h-3813v24221z"/><path id="10" class="fil2" d="m222054 408163-6190-12793 5545-11428h-4017l-5441 11599 5886 12622h4217zm-10174 0v-24221h-3809v24221h3809z"/><path class="fil0 str1" d="M248127 325978h214793v136894H248127z"/><path class="fil2" d="M317574 401223c0-2244-275-3709-1395-4866-341-338-816-646-1328-883 512-204 920-512 1257-849 1124-1158 1395-2486 1395-4221 0-2619-408-3843-1528-4967-987-1020-2452-1495-4696-1495h-6057v24221h6024c2277 0 3742-512 4762-1532 1158-1190 1566-2552 1566-5408zm-3813-271c0 2823-850 3776-2890 3776h-1836v-7555h1836c2040 0 2890 1090 2890 3779zm-67-10311c0 2314-783 3301-2756 3301h-1903v-6565h1903c1973 0 2756 883 2756 3264z"/><path id="1" class="fil2" d="M330448 387377v-3435h-11940v3435h4047v20786h3809v-20786z"/><path id="2" class="fil2" d="M344039 396053c0-5750-134-8405-1770-10308-986-1191-2448-2077-4692-2077-2248 0-3709 886-4696 2077-1598 1936-1769 4558-1769 10308 0 5749 171 8368 1769 10307 987 1191 2448 2074 4696 2074 2244 0 3706-883 4692-2074 1636-1906 1770-4558 1770-10307zm-3810 0c0 4421-100 6873-816 8026-341 546-920 920-1836 920-920 0-1465-374-1802-920-716-1153-854-3605-854-8026 0-4425 138-6873 854-8031 337-545 882-916 1802-916 916 0 1495 371 1836 916 716 1158 816 3606 816 8031z"/><path id="3" class="fil2" d="M358686 391323c0-5070-1840-7381-6227-7381h-6091v24221h3813v-9492h2278c4387 0 6227-2281 6227-7348zm-3813 0c0 2448-508 3914-2552 3914h-2140v-7860h2140c2044 0 2552 1495 2552 3946z"/><path id="4" class="fil2" d="M373026 408163v-24221h-3813v10204h-4726v-10204h-3813v24221h3813v-10578h4726v10578z"/><path id="5" class="fil2" d="m379369 408163 5445-14833v14833h3809v-24221h-3401l-5408 14833v-14833h-3813v24221z"/><path id="6" class="fil2" d="m405548 408163-6190-12793 5545-11428h-4017l-5442 11599 5887 12622h4217zm-10174 0v-24221h-3809v24221h3809z"/><path class="fil2" d="M560433 559502c208-6970 3954-10612 10923-10612 6135 0 10193 3123 10193 7908 0 3746-2600 6450-6969 7073-1666 208-4370 416-6347 416-1142 0-1558 0-2808-104v11862c3851-104 4266-104 5305-104 7388 0 11758 3431 11758 9154 0 5824-4474 9362-11655 9362-9154 0-11858-4577-12169-12485h-16855v1873c0 17686 13631 25490 29547 25490 14667 0 29440-7285 29440-23928 0-8324-4681-14151-12693-16232 6243-1557 10197-6865 10197-13939 0-12377-10508-20285-26944-20285-16543 0-27674 9362-27674 24551h16751zM385485 592792h-34021c4266-4266 7389-5720 14047-9985 10193-6451 19140-11655 19140-24971 0-14043-10401-22885-26736-22885-19974 0-28817 11858-28817 29751h16751c0-7177 2081-14562 11235-14562 6035 0 9777 3535 9777 9050 0 6035-5096 9051-9569 12066-17167 11447-29752 16647-29752 36517v208h57945v-15189zM815696 577083h-9466v-41613h-16959l-32247 39948v16335h31520v16228h17686v-16228h9466v-14670zm-26632 104h-19040l19040-23616v23616zM1025910 535885h-45775l-7073 40575h16124c2707-3850 6450-5515 11131-5515 7285 0 11862 4681 11862 12069 0 7178-4785 11755-12174 11755-6865 0-11442-3435-11962-9051h-17374c1043 16020 12278 23302 28921 23302 18624 0 30274-10193 30274-26632 0-14459-9154-23613-23720-23613-5616 0-9050 1142-14670 4785l2185-12797h32251v-14878zM1244241 554613c-2289-12589-11551-19662-25697-19662-19974 0-31313 14250-31313 39117 0 18828 8427 35059 29232 35059 15916 0 28713-9366 28713-26216 0-14359-9989-24344-24136-24344-7281 0-12066 2185-16747 7593 1142-8220 3431-18101 13731-18101 5097 0 7905 1873 9570 6554h16647zm-27571 16855c6866 0 11651 4888 11651 11754s-4785 11858-11443 11858c-6554 0-11235-4992-11235-11858 0-6762 4681-11754 11027-11754zM1456956 535885h-52745v15816h34748c-14463 16747-22994 34848-24136 56280h19035c624-22678 7493-41094 23098-57633v-14463zM127055 781990c-8220 2393-13943 7697-13943 17374 0 13732 11339 22159 29963 22159 18308 0 29543-8635 29543-22474 0-8947-4681-14666-13835-17059 7177-2184 10924-7388 10924-15085 0-14670-14043-19662-26528-19662-12278 0-27048 5511-27048 20077 0 7805 4266 12278 10924 14670zm15708-22158c7177 0 11339 3119 11339 8427 0 5408-4265 8839-11027 8839s-11235-3431-11235-8631c0-5204 4369-8635 10923-8635zm-104 28293c7697 0 12482 3954 12482 10197 0 6242-4577 10093-12170 10093-7493 0-12381-3954-12381-10197 0-6139 4784-10093 12069-10093zM551182 748819h-14666c-1458 11966-10197 14878-21328 15189v13005h17374v44317h18620v-72511z"/><path id="1" class="fil2" d="M596835 748300c-21743 0-29855 17997-29855 37244 0 22989 10816 36825 28816 36825 18724 0 29648-13524 29648-36825 0-23201-10820-37244-28609-37244zm-519 14250c10923 0 12066 12901 12066 22267 0 8423-416 23405-12066 23405-11755 0-12278-13939-12278-22574 0-15813 3746-23098 12278-23098z"/><path class="fil2" d="M327021 802814c1665 12377 11547 19766 26113 19766 19766 0 31001-14151 30897-39117 0-22159-11027-35163-29755-35163-16539 0-28190 10923-28190 26320 0 14562 9570 24344 23924 24344 7493 0 11759-1977 16751-7701-831 7908-3538 18313-13316 18313-4889 0-8427-1977-9781-6762h-16643zm27255-40264c6554 0 11443 4997 11443 11759 0 6761-4889 11650-11443 11650s-11235-4889-11235-11754c0-6762 4681-11655 11235-11655zM773522 748819h-14666c-1458 11966-10196 14878-21328 15189v13005h17374v44317h18620v-72511z"/><path id="1" class="fil2" d="M832699 748819h-14666c-1458 11966-10197 14878-21328 15189v13005h17374v44317h18620v-72511z"/><path class="fil2" d="M981029 748819h-14666c-1458 11966-10196 14878-21328 15189v13005h17374v44317h18620v-72511z"/><path id="1" class="fil2" d="M1054772 806141h-34021c4266-4266 7389-5720 14047-9985 10193-6451 19139-11655 19139-24971 0-14043-10400-22885-26736-22885-19974 0-28816 11858-28816 29751h16750c0-7177 2081-14562 11235-14562 6035 0 9778 3535 9778 9050 0 6035-5097 9051-9570 12066-17166 11447-29751 16647-29751 36517v208h57945v-15189z"/><path class="fil2" d="M1195561 748819h-14666c-1457 11966-10196 14878-21328 15189v13005h17374v44317h18620v-72511z"/><path id="1" class="fil2" d="M1229460 772851c207-6970 3954-10612 10923-10612 6135 0 10193 3123 10193 7908 0 3746-2600 6450-6969 7073-1666 208-4370 416-6347 416-1142 0-1558 0-2808-104v11862c3850-104 4266-104 5304-104 7389 0 11759 3431 11759 9154 0 5824-4474 9362-11655 9362-9154 0-11858-4577-12170-12485h-16854v1873c0 17686 13631 25490 29547 25490 14666 0 29440-7285 29440-23928 0-8324-4681-14151-12693-16232 6243-1557 10197-6865 10197-13939 0-12377-10508-20285-26944-20285-16543 0-27674 9362-27674 24551h16751z"/><path class="fil2" d="M1410305 748819h-14666c-1458 11966-10197 14878-21328 15189v13005h17374v44317h18620v-72511z"/><path id="1" class="fil2" d="M1484671 790432h-9466v-41613h-16959l-32247 39948v16335h31520v16228h17686v-16228h9466v-14670zm-26632 104h-19040l19040-23616v23616z"/><path class="fil2" d="M121854 962569h-14666c-1457 11965-10196 14877-21328 15189v13004h17374v44318h18620v-72511z"/><path id="1" class="fil2" d="M191643 962984h-45775l-7074 40575h16124c2708-3850 6450-5516 11131-5516 7285 0 11862 4681 11862 12070 0 7177-4784 11754-12173 11754-6866 0-11443-3434-11962-9050h-17374c1042 16020 12277 23301 28920 23301 18624 0 30275-10193 30275-26632 0-14458-9154-23613-23720-23613-5616 0-9051 1143-14670 4785l2184-12796h32252v-14878z"/><path class="fil2" d="M552692 963626h-14666c-1458 11966-10197 14877-21328 15189v13004h17374v44318h18620v-72511z"/><path id="1" class="fil2" d="M623938 964041h-52745v15816h34748c-14462 16747-22993 34848-24136 56280h19036c623-22678 7492-41094 23097-57634v-14462z"/><path class="fil2" d="M336390 963626h-14666c-1458 11966-10196 14877-21328 15189v13004h17374v44318h18620v-72511z"/><path id="1" class="fil2" d="M409717 982769c-2288-12589-11550-19663-25697-19663-19974 0-31313 14251-31313 39118 0 18827 8427 35059 29232 35059 15916 0 28713-9366 28713-26217 0-14358-9989-24343-24136-24343-7281 0-12066 2185-16747 7593 1143-8220 3431-18101 13732-18101 5096 0 7904 1873 9569 6554h16647zm-27570 16854c6866 0 11650 4889 11650 11755s-4784 11858-11442 11858c-6555 0-11236-4992-11236-11858 0-6762 4681-11755 11028-11755z"/><path class="fil2" d="M765718 963626h-14666c-1458 11966-10197 14877-21328 15189v13004h17374v44318h18620v-72511z"/><path id="1" class="fil2" d="M794935 997854c-8219 2393-13942 7697-13942 17374 0 13731 11339 22159 29962 22159 18309 0 29544-8635 29544-22474 0-8947-4681-14666-13835-17059 7177-2185 10923-7389 10923-15085 0-14670-14043-19663-26528-19663-12277 0-27047 5512-27047 20078 0 7804 4265 12278 10923 14670zm15709-22159c7177 0 11339 3120 11339 8428 0 5408-4266 8839-11028 8839-6761 0-11235-3431-11235-8632 0-5204 4370-8635 10924-8635zm-104 28294c7697 0 12481 3954 12481 10197 0 6242-4577 10092-12169 10092-7493 0-12382-3954-12382-10196 0-6139 4785-10093 12070-10093z"/><path class="fil2" d="M981081 963626h-14666c-1458 11966-10197 14877-21328 15189v13004h17374v44318h18620v-72511z"/><path id="1" class="fil2" d="M997606 1017620c1665 12378 11546 19767 26112 19767 19767 0 31002-14151 30898-39117 0-22159-11028-35164-29755-35164-16540 0-28190 10924-28190 26321 0 14562 9570 24343 23924 24343 7493 0 11758-1977 16751-7700-831 7908-3539 18312-13316 18312-4889 0-8427-1977-9781-6762h-16643zm27255-40263c6554 0 11443 4996 11443 11758s-4889 11651-11443 11651-11235-4889-11235-11755c0-6761 4681-11654 11235-11654z"/><path class="fil2" d="M1213822 1020948h-34021c4266-4266 7389-5720 14047-9986 10193-6450 19139-11654 19139-24970 0-14043-10400-22886-26736-22886-19974 0-28816 11859-28816 29752h16750c0-7177 2081-14562 11236-14562 6034 0 9777 3534 9777 9050 0 6035-5096 9050-9570 12066-17166 11447-29751 16647-29751 36517v208h57945v-15189z"/><path id="1" class="fil2" d="M1244909 963106c-21744 0-29856 17997-29856 37244 0 22990 10816 36825 28817 36825 18724 0 29648-13523 29648-36825 0-23201-10820-37244-28609-37244zm-520 14251c10924 0 12066 12901 12066 22266 0 8424-415 23405-12066 23405-11754 0-12277-13939-12277-22574 0-15812 3746-23097 12277-23097z"/><path class="fil2" d="M1436158 1020948h-34021c4266-4266 7389-5720 14047-9986 10193-6450 19140-11654 19140-24970 0-14043-10401-22886-26736-22886-19974 0-28817 11859-28817 29752h16751c0-7177 2081-14562 11235-14562 6035 0 9777 3534 9777 9050 0 6035-5096 9050-9569 12066-17167 11447-29752 16647-29752 36517v208h57945v-15189z"/><path id="1" class="fil2" d="M1480769 963626h-14667c-1457 11966-10196 14877-21327 15189v13004h17373v44318h18621v-72511z"/><path class="fil2" d="M140115 1234693h-34021c4266-4265 7389-5719 14047-9985 10193-6450 19139-11654 19139-24970 0-14043-10400-22886-26736-22886-19974 0-28816 11859-28816 29752h16750c0-7178 2081-14563 11235-14563 6035 0 9778 3535 9778 9051 0 6035-5097 9050-9570 12066-17166 11446-29751 16647-29751 36517v208h57945v-15190z"/><path id="1" class="fil2" d="M199291 1234693h-34021c4266-4265 7389-5719 14047-9985 10193-6450 19140-11654 19140-24970 0-14043-10401-22886-26736-22886-19974 0-28817 11859-28817 29752h16751c0-7178 2081-14563 11235-14563 6035 0 9777 3535 9777 9051 0 6035-5096 9050-9569 12066-17167 11446-29752 16647-29752 36517v208h57945v-15190z"/><path class="fil2" d="M569391 1235751h-34021c4265-4266 7389-5720 14047-9986 10192-6450 19139-11654 19139-24970 0-14043-10401-22886-26736-22886-19974 0-28817 11859-28817 29752h16751c0-7177 2081-14562 11235-14562 6035 0 9778 3534 9778 9050 0 6035-5097 9050-9570 12066-17166 11447-29751 16647-29751 36517v208h57945v-15189z"/><path id="1" class="fil2" d="M629190 1220042h-9466v-41613h-16958l-32248 39948v16335h31521v16228h17685v-16228h9466v-14670zm-26632 104h-19039l19039-23616v23616z"/><path class="fil2" d="M354651 1235751h-34021c4266-4266 7389-5720 14047-9986 10193-6450 19139-11654 19139-24970 0-14043-10400-22886-26736-22886-19974 0-28816 11859-28816 29752h16750c0-7177 2081-14562 11235-14562 6035 0 9778 3534 9778 9050 0 6035-5097 9050-9570 12066-17166 11447-29751 16647-29751 36517v208h57945v-15189z"/><path id="1" class="fil2" d="M373983 1202461c208-6970 3954-10612 10924-10612 6135 0 10192 3123 10192 7908 0 3746-2600 6450-6969 7073-1666 208-4370 415-6347 415-1142 0-1557 0-2807-103v11862c3850-104 4265-104 5304-104 7388 0 11758 3431 11758 9154 0 5823-4473 9362-11654 9362-9155 0-11859-4577-12170-12485h-16855v1873c0 17685 13631 25490 29548 25490 14666 0 29439-7285 29439-23928 0-8324-4681-14151-12692-16232 6242-1558 10196-6866 10196-13939 0-12378-10508-20286-26943-20286-16543 0-27675 9362-27675 24552h16751z"/><path class="fil2" d="M784498 1235751h-34021c4266-4266 7389-5720 14047-9986 10193-6450 19139-11654 19139-24970 0-14043-10400-22886-26736-22886-19974 0-28816 11859-28816 29752h16750c0-7177 2081-14562 11235-14562 6035 0 9778 3534 9778 9050 0 6035-5097 9050-9570 12066-17166 11447-29751 16647-29751 36517v208h57945v-15189z"/><path id="1" class="fil2" d="M839720 1178844h-45775l-7073 40575h16123c2708-3850 6451-5516 11132-5516 7285 0 11862 4681 11862 12070 0 7177-4785 11755-12174 11755-6866 0-11443-3435-11962-9051h-17374c1042 16020 12278 23301 28921 23301 18624 0 30274-10193 30274-26632 0-14458-9154-23612-23720-23612-5616 0-9051 1142-14670 4784l2185-12796h32251v-14878z"/><path class="fil2" d="M999030 1235435h-34021c4266-4265 7389-5719 14047-9985 10193-6450 19139-11654 19139-24970 0-14043-10400-22886-26735-22886-19974 0-28817 11858-28817 29752h16751c0-7178 2080-14563 11235-14563 6035 0 9777 3535 9777 9051 0 6035-5096 9050-9570 12066-17166 11446-29751 16647-29751 36517v207h57945v-15189z"/><path id="1" class="fil2" d="M1057791 1197257c-2289-12589-11550-19663-25697-19663-19974 0-31313 14251-31313 39117 0 18828 8427 35060 29232 35060 15916 0 28713-9366 28713-26217 0-14358-9989-24343-24136-24343-7281 0-12066 2184-16747 7592 1142-8219 3431-18101 13731-18101 5097 0 7905 1874 9570 6555h16647zm-27570 16854c6865 0 11650 4889 11650 11755 0 6865-4785 11858-11443 11858-6554 0-11235-4993-11235-11858 0-6762 4681-11755 11028-11755z"/><path class="fil2" d="M1215328 1235751h-34021c4266-4266 7389-5720 14047-9986 10193-6450 19139-11654 19139-24970 0-14043-10400-22886-26736-22886-19974 0-28816 11859-28816 29752h16750c0-7177 2081-14562 11235-14562 6035 0 9778 3534 9778 9050 0 6035-5097 9050-9570 12066-17166 11447-29751 16647-29751 36517v208h57945v-15189z"/><path id="1" class="fil2" d="M1272008 1178844h-52745v15816h34748c-14462 16747-22993 34848-24136 56280h19036c623-22678 7492-41094 23097-57634v-14462z"/><path class="fil2" d="M1428358 1235751h-34021c4266-4266 7389-5720 14047-9986 10193-6450 19139-11654 19139-24970 0-14043-10400-22886-26736-22886-19974 0-28816 11859-28816 29752h16750c0-7177 2081-14562 11235-14562 6035 0 9778 3534 9778 9050 0 6035-5097 9050-9570 12066-17166 11447-29751 16647-29751 36517v208h57945v-15189z"/><path id="1" class="fil2" d="M1443009 1212657c-8220 2393-13943 7697-13943 17374 0 13731 11339 22159 29963 22159 18309 0 29544-8635 29544-22474 0-8947-4681-14666-13836-17059 7178-2185 10924-7389 10924-15085 0-14670-14043-19663-26528-19663-12278 0-27048 5512-27048 20078 0 7804 4266 12278 10924 14670zm15708-22159c7178 0 11339 3120 11339 8428 0 5408-4265 8839-11027 8839s-11235-3431-11235-8632c0-5204 4369-8635 10923-8635zm-103 28294c7696 0 12481 3954 12481 10197 0 6242-4577 10092-12170 10092-7492 0-12381-3954-12381-10196 0-6139 4785-10093 12070-10093z"/><path class="fil2" d="M140167 1449496h-34021c4266-4265 7389-5719 14047-9985 10193-6450 19139-11654 19139-24970 0-14043-10401-22886-26736-22886-19974 0-28816 11859-28816 29752h16750c0-7178 2081-14563 11235-14563 6035 0 9778 3535 9778 9051 0 6035-5097 9050-9570 12066-17166 11446-29751 16647-29751 36517v208h57945v-15190z"/><path id="1" class="fil2" d="M142125 1446169c1666 12378 11547 19767 26113 19767 19766 0 31001-14151 30897-39118 0-22158-11027-35163-29755-35163-16539 0-28190 10924-28190 26321 0 14562 9570 24343 23925 24343 7492 0 11758-1977 16750-7700-830 7908-3538 18312-13316 18312-4888 0-8427-1977-9781-6762h-16643zm27255-40263c6554 0 11443 4996 11443 11758s-4889 11651-11443 11651-11235-4889-11235-11755c0-6762 4681-11654 11235-11654z"/><path class="fil2" d="M537403 1417264c207-6970 3954-10612 10923-10612 6135 0 10193 3123 10193 7908 0 3746-2600 6450-6970 7073-1665 208-4369 415-6346 415-1142 0-1558 0-2808-103v11862c3850-104 4266-104 5304-104 7389 0 11758 3431 11758 9154 0 5823-4473 9362-11654 9362-9154 0-11858-4577-12170-12485h-16854v1873c0 17685 13631 25490 29547 25490 14666 0 29440-7285 29440-23928 0-8324-4681-14151-12693-16232 6243-1558 10197-6866 10197-13939 0-12378-10508-20286-26944-20286-16543 0-27674 9362-27674 24552h16751z"/><path id="1" class="fil2" d="M621857 1393232h-14666c-1458 11966-10197 14877-21328 15189v13004h17374v44318h18620v-72511z"/><path class="fil2" d="M315066 1417264c208-6970 3954-10612 10924-10612 6135 0 10193 3123 10193 7908 0 3746-2601 6450-6970 7073-1665 208-4369 415-6346 415-1143 0-1558 0-2808-103v11862c3850-104 4265-104 5304-104 7389 0 11758 3431 11758 9154 0 5823-4473 9362-11654 9362-9155 0-11859-4577-12170-12485h-16855v1873c0 17685 13632 25490 29548 25490 14666 0 29440-7285 29440-23928 0-8324-4681-14151-12693-16232 6242-1558 10196-6866 10196-13939 0-12378-10508-20286-26943-20286-16543 0-27675 9362-27675 24552h16751z"/><path id="1" class="fil2" d="M385997 1392712c-21743 0-29855 17997-29855 37244 0 22990 10816 36825 28816 36825 18724 0 29648-13523 29648-36825 0-23201-10820-37244-28609-37244zm-519 14251c10923 0 12066 12901 12066 22266 0 8424-416 23405-12066 23405-11755 0-12278-13939-12278-22574 0-15812 3747-23097 12278-23097z"/><path class="fil3" d="M799260 1393232h-14666c-1458 11966-10196 14877-21328 15189v13004h17374v44318h18620v-72511zM1028618 1450554h-34021c4266-4266 7389-5720 14047-9986 10193-6450 19140-11654 19140-24970 0-14043-10401-22886-26736-22886-19974 0-28817 11859-28817 29752h16751c0-7177 2081-14562 11235-14562 6035 0 9777 3534 9777 9050 0 6035-5096 9050-9569 12066-17167 11447-29752 16647-29752 36517v208h57945v-15189zM1203566 1417264c208-6970 3954-10612 10923-10612 6135 0 10193 3123 10193 7908 0 3746-2600 6450-6969 7073-1666 208-4370 415-6347 415-1142 0-1558 0-2808-103v11862c3851-104 4266-104 5305-104 7388 0 11758 3431 11758 9154 0 5823-4474 9362-11655 9362-9154 0-11858-4577-12169-12485h-16855v1873c0 17685 13631 25490 29547 25490 14667 0 29440-7285 29440-23928 0-8324-4681-14151-12693-16232 6243-1558 10197-6866 10197-13939 0-12378-10508-20286-26944-20286-16543 0-27674 9362-27674 24552h16751zM1458829 1434845h-9466v-41613h-16959l-32247 39948v16335h31520v16228h17686v-16228h9466v-14670zm-26632 104h-19040l19040-23616v23616z"/></g></g></svg>